M48
;DRILL file {KiCad (2016-08-15 BZR 7057)-product} date Thu Oct 13 01:49:07 2016
;FORMAT={-:-/ absolute / metric / decimal}
FMAT,2
METRIC,TZ
T1C0.500
T2C0.600
T3C0.698
T4C0.762
T5C0.800
T6C0.800
T7C0.900
T8C1.000
T9C1.016
T10C1.400
T11C3.200
%
G90
G05
M71
T1
X9.Y14.
X11.5Y36.993
X16.185Y35.104
X16.678Y47.276
X17.Y52.
X17.248Y33.72
X19.Y52.25
X19.Y40.5
X20.25Y66.25
X21.819Y29.611
X22.Y40.5
X23.5Y54.
X24.Y31.5
X26.Y6.5
X26.186Y55.479
X28.099Y56.413
X29.Y52.5
X30.Y35.5
X30.25Y44.75
X30.25Y43.5
X30.25Y42.25
X31.061Y58.738
X35.Y36.
X36.Y52.5
X36.641Y7.572
X36.641Y5.588
X38.415Y50.195
X38.5Y63.5
X38.5Y52.5
X43.Y43.5
X43.5Y56.5
X44.612Y48.353
X48.55Y56.3
X48.65Y22.15
X49.Y63.5
X49.66Y45.4
X51.Y45.5
X51.45Y56.5
X53.55Y51.3
X53.761Y21.565
X56.901Y36.377
X57.215Y29.
X57.5Y41.85
X57.5Y32.
X58.004Y22.719
X59.Y43.
X59.Y35.25
X59.11Y39.146
X60.75Y64.
X62.577Y13.038
X65.Y15.
X68.5Y45.5
T2
X28.783Y6.763
X35.101Y15.5
X59.808Y13.203
T3
X28.203Y3.949
X32.Y3.946
T4
X58.23Y59.
X59.5Y59.
X60.77Y59.
X62.04Y59.
T6
X21.559Y37.5
X26.441Y37.5
T7
X68.5Y41.5
X68.5Y39.
X68.5Y36.5
X68.5Y34.
T8
X28.5Y15.5
X31.Y15.5
X38.38Y68.5
X40.88Y68.5
X48.88Y68.5
X51.38Y68.5
T9
X5.Y50.08
X5.Y47.54
X5.Y45.
X7.54Y50.08
X7.54Y47.54
X7.54Y45.
X13.96Y15.3
X16.5Y15.3
X19.04Y15.3
X20.34Y69.
X22.88Y69.
X25.42Y69.
X27.96Y69.
X68.Y22.58
X68.Y20.04
X68.Y17.5
X68.Y14.96
X70.54Y22.58
X70.54Y20.04
X70.54Y17.5
X70.54Y14.96
T10
X42.17Y6.75
X47.25Y6.75
X52.33Y6.75
X57.41Y6.75
T11
X6.Y69.
X6.Y6.
X69.Y69.
X69.Y6.
T5
X15.15Y10.2G85X17.85Y10.2
G05
X15.4Y4.2G85X17.6Y4.2
G05
X21.3Y6.6G85X21.3Y8.8
G05
T0
M30
