  0
SECTION
  2
HEADER
  9
$ANGBASE
  50
0.0
  9
$ANGDIR
  70
  1
  9
$MEASUREMENT
  70
0
  0
ENDSEC
  0
SECTION
  2
TABLES
  0
TABLE
  2
LTYPE
  70
1
  0
LTYPE
  2
CONTINUOUS
  70
0
  3
Solid line
  72
65
  73
0
  40
0.0
  0
ENDTAB
  0
TABLE
  2
STYLE
  70
4
  0
STYLE
  2
KICAD
  70
0
  40
0
  41
1
  42
1
  50
0
  71
0
  3
isocp.shx
  0
STYLE
  2
KICADB
  70
0
  40
0
  41
1
  42
1
  50
0
  71
0
  3
isocp.shx
  0
STYLE
  2
KICADI
  70
0
  40
0
  41
1
  42
1
  50
15
  71
0
  3
isocp.shx
  0
STYLE
  2
KICADBI
  70
0
  40
0
  41
1
  42
1
  50
15
  71
0
  3
isocp.shx
  0
ENDTAB
  0
TABLE
  2
LAYER
  70
30
  0
LAYER
  2
BLACK
  70
0
  62
7
  6
CONTINUOUS
  0
LAYER
  2
GRAY1
  70
0
  62
251
  6
CONTINUOUS
  0
LAYER
  2
GRAY2
  70
0
  62
8
  6
CONTINUOUS
  0
LAYER
  2
GRAY3
  70
0
  62
9
  6
CONTINUOUS
  0
LAYER
  2
WHITE
  70
0
  62
7
  6
CONTINUOUS
  0
LAYER
  2
LYELLOW
  70
0
  62
51
  6
CONTINUOUS
  0
LAYER
  2
BLUE1
  70
0
  62
178
  6
CONTINUOUS
  0
LAYER
  2
GREEN1
  70
0
  62
98
  6
CONTINUOUS
  0
LAYER
  2
CYAN1
  70
0
  62
138
  6
CONTINUOUS
  0
LAYER
  2
RED1
  70
0
  62
18
  6
CONTINUOUS
  0
LAYER
  2
MAGENTA1
  70
0
  62
228
  6
CONTINUOUS
  0
LAYER
  2
BROWN1
  70
0
  62
58
  6
CONTINUOUS
  0
LAYER
  2
BLUE2
  70
0
  62
5
  6
CONTINUOUS
  0
LAYER
  2
GREEN2
  70
0
  62
3
  6
CONTINUOUS
  0
LAYER
  2
CYAN2
  70
0
  62
4
  6
CONTINUOUS
  0
LAYER
  2
RED2
  70
0
  62
1
  6
CONTINUOUS
  0
LAYER
  2
MAGENTA2
  70
0
  62
6
  6
CONTINUOUS
  0
LAYER
  2
BROWN2
  70
0
  62
54
  6
CONTINUOUS
  0
LAYER
  2
BLUE3
  70
0
  62
171
  6
CONTINUOUS
  0
LAYER
  2
GREEN3
  70
0
  62
91
  6
CONTINUOUS
  0
LAYER
  2
CYAN3
  70
0
  62
131
  6
CONTINUOUS
  0
LAYER
  2
RED3
  70
0
  62
11
  6
CONTINUOUS
  0
LAYER
  2
MAGENTA3
  70
0
  62
221
  6
CONTINUOUS
  0
LAYER
  2
YELLOW3
  70
0
  62
2
  6
CONTINUOUS
  0
LAYER
  2
BLUE4
  70
0
  62
5
  6
CONTINUOUS
  0
LAYER
  2
GREEN4
  70
0
  62
3
  6
CONTINUOUS
  0
LAYER
  2
CYAN4
  70
0
  62
4
  6
CONTINUOUS
  0
LAYER
  2
RED4
  70
0
  62
1
  6
CONTINUOUS
  0
LAYER
  2
MAGENTA4
  70
0
  62
6
  6
CONTINUOUS
  0
LAYER
  2
YELLOW4
  70
0
  62
2
  6
CONTINUOUS
  0
ENDTAB
  0
ENDSEC
  0
SECTION
  2
ENTITIES
0
LINE
8
Black
10
50
20
-125.075
11
125
21
-125.075
0
LINE
8
Black
10
50
20
-124.925
11
125
21
-124.925
0
ARC
8
Black
10
125
20
-125
40
0.075
50
270
51
450
0
ARC
8
Black
10
50
20
-125
40
0.075
50
90
51
270
0
LINE
8
Black
10
125.075
20
-125
11
125.075
21
-50
0
LINE
8
Black
10
124.925
20
-125
11
124.925
21
-50
0
ARC
8
Black
10
125
20
-50
40
0.075
50
360
51
540
0
ARC
8
Black
10
125
20
-125
40
0.075
50
180
51
360
0
LINE
8
Black
10
50.075
20
-125
11
50.075
21
-50
0
LINE
8
Black
10
49.925
20
-125
11
49.925
21
-50
0
ARC
8
Black
10
50
20
-50
40
0.075
50
360
51
540
0
ARC
8
Black
10
50
20
-125
40
0.075
50
180
51
360
0
LINE
8
Black
10
50
20
-50.075
11
125
21
-50.075
0
LINE
8
Black
10
50
20
-49.925
11
125
21
-49.925
0
ARC
8
Black
10
125
20
-50
40
0.075
50
270
51
450
0
ARC
8
Black
10
50
20
-50
40
0.075
50
90
51
270
0
LINE
8
Black
10
54.4
20
-54.4
11
57.6
21
-57.6
0
LINE
8
Black
10
57.6
20
-54.4
11
54.4
21
-57.6
0
LINE
8
Black
10
54.4
20
-117.4
11
57.6
21
-120.6
0
LINE
8
Black
10
57.6
20
-117.4
11
54.4
21
-120.6
0
LINE
8
Black
10
117.4
20
-54.4
11
120.6
21
-57.6
0
LINE
8
Black
10
120.6
20
-54.4
11
117.4
21
-57.6
0
LINE
8
Black
10
117.4
20
-117.4
11
120.6
21
-120.6
0
LINE
8
Black
10
120.6
20
-117.4
11
117.4
21
-120.6
0
LINE
8
Black
10
52.7893
20
-129.732
11
52.7893
21
-126.732
0
LINE
8
Black
10
52.7893
20
-126.732
11
53.5036
21
-126.732
0
LINE
8
Black
10
53.5036
20
-126.732
11
53.9321
21
-126.875
0
LINE
8
Black
10
53.9321
20
-126.875
11
54.2179
21
-127.161
0
LINE
8
Black
10
54.2179
20
-127.161
11
54.3607
21
-127.446
0
LINE
8
Black
10
54.3607
20
-127.446
11
54.5036
21
-128.018
0
LINE
8
Black
10
54.5036
20
-128.018
11
54.5036
21
-128.446
0
LINE
8
Black
10
54.5036
20
-128.446
11
54.3607
21
-129.018
0
LINE
8
Black
10
54.3607
20
-129.018
11
54.2179
21
-129.304
0
LINE
8
Black
10
54.2179
20
-129.304
11
53.9321
21
-129.589
0
LINE
8
Black
10
53.9321
20
-129.589
11
53.5036
21
-129.732
0
LINE
8
Black
10
53.5036
20
-129.732
11
52.7893
21
-129.732
0
LINE
8
Black
10
55.7893
20
-129.732
11
55.7893
21
-127.732
0
LINE
8
Black
10
55.7893
20
-128.304
11
55.9321
21
-128.018
0
LINE
8
Black
10
55.9321
20
-128.018
11
56.075
21
-127.875
0
LINE
8
Black
10
56.075
20
-127.875
11
56.3607
21
-127.732
0
LINE
8
Black
10
56.3607
20
-127.732
11
56.6464
21
-127.732
0
LINE
8
Black
10
57.6464
20
-129.732
11
57.6464
21
-127.732
0
LINE
8
Black
10
57.6464
20
-126.732
11
57.5036
21
-126.875
0
LINE
8
Black
10
57.5036
20
-126.875
11
57.6464
21
-127.018
0
LINE
8
Black
10
57.6464
20
-127.018
11
57.7893
21
-126.875
0
LINE
8
Black
10
57.7893
20
-126.875
11
57.6464
21
-126.732
0
LINE
8
Black
10
57.6464
20
-126.732
11
57.6464
21
-127.018
0
LINE
8
Black
10
59.5036
20
-129.732
11
59.2179
21
-129.589
0
LINE
8
Black
10
59.2179
20
-129.589
11
59.075
21
-129.304
0
LINE
8
Black
10
59.075
20
-129.304
11
59.075
21
-126.732
0
LINE
8
Black
10
61.075
20
-129.732
11
60.7893
21
-129.589
0
LINE
8
Black
10
60.7893
20
-129.589
11
60.6464
21
-129.304
0
LINE
8
Black
10
60.6464
20
-129.304
11
60.6464
21
-126.732
0
LINE
8
Black
10
64.5036
20
-129.732
11
64.5036
21
-126.732
0
LINE
8
Black
10
64.5036
20
-126.732
11
65.5036
21
-128.875
0
LINE
8
Black
10
65.5036
20
-128.875
11
66.5036
21
-126.732
0
LINE
8
Black
10
66.5036
20
-126.732
11
66.5036
21
-129.732
0
LINE
8
Black
10
69.2179
20
-129.732
11
69.2179
21
-128.161
0
LINE
8
Black
10
69.2179
20
-128.161
11
69.075
21
-127.875
0
LINE
8
Black
10
69.075
20
-127.875
11
68.7893
21
-127.732
0
LINE
8
Black
10
68.7893
20
-127.732
11
68.2179
21
-127.732
0
LINE
8
Black
10
68.2179
20
-127.732
11
67.9321
21
-127.875
0
LINE
8
Black
10
69.2179
20
-129.589
11
68.9321
21
-129.732
0
LINE
8
Black
10
68.9321
20
-129.732
11
68.2179
21
-129.732
0
LINE
8
Black
10
68.2179
20
-129.732
11
67.9321
21
-129.589
0
LINE
8
Black
10
67.9321
20
-129.589
11
67.7893
21
-129.304
0
LINE
8
Black
10
67.7893
20
-129.304
11
67.7893
21
-129.018
0
LINE
8
Black
10
67.7893
20
-129.018
11
67.9321
21
-128.732
0
LINE
8
Black
10
67.9321
20
-128.732
11
68.2179
21
-128.589
0
LINE
8
Black
10
68.2179
20
-128.589
11
68.9321
21
-128.589
0
LINE
8
Black
10
68.9321
20
-128.589
11
69.2179
21
-128.446
0
LINE
8
Black
10
70.6464
20
-127.732
11
70.6464
21
-130.732
0
LINE
8
Black
10
70.6464
20
-127.875
11
70.9321
21
-127.732
0
LINE
8
Black
10
70.9321
20
-127.732
11
71.5036
21
-127.732
0
LINE
8
Black
10
71.5036
20
-127.732
11
71.7893
21
-127.875
0
LINE
8
Black
10
71.7893
20
-127.875
11
71.9321
21
-128.018
0
LINE
8
Black
10
71.9321
20
-128.018
11
72.075
21
-128.304
0
LINE
8
Black
10
72.075
20
-128.304
11
72.075
21
-129.161
0
LINE
8
Black
10
72.075
20
-129.161
11
71.9321
21
-129.446
0
LINE
8
Black
10
71.9321
20
-129.446
11
71.7893
21
-129.589
0
LINE
8
Black
10
71.7893
20
-129.589
11
71.5036
21
-129.732
0
LINE
8
Black
10
71.5036
20
-129.732
11
70.9321
21
-129.732
0
LINE
8
Black
10
70.9321
20
-129.732
11
70.6464
21
-129.589
0
LINE
8
Black
10
73.3607
20
-129.446
11
73.5036
21
-129.589
0
LINE
8
Black
10
73.5036
20
-129.589
11
73.3607
21
-129.732
0
LINE
8
Black
10
73.3607
20
-129.732
11
73.2179
21
-129.589
0
LINE
8
Black
10
73.2179
20
-129.589
11
73.3607
21
-129.446
0
LINE
8
Black
10
73.3607
20
-129.446
11
73.3607
21
-129.732
0
LINE
8
Black
10
73.3607
20
-127.875
11
73.5036
21
-128.018
0
LINE
8
Black
10
73.5036
20
-128.018
11
73.3607
21
-128.161
0
LINE
8
Black
10
73.3607
20
-128.161
11
73.2179
21
-128.018
0
LINE
8
Black
10
73.2179
20
-128.018
11
73.3607
21
-127.875
0
LINE
8
Black
10
73.3607
20
-127.875
11
73.3607
21
-128.161
0
LINE
8
Black
10
46.725
20
-133.075
11
49.925
21
-136.275
0
LINE
8
Black
10
49.925
20
-133.075
11
46.725
21
-136.275
0
LINE
8
Black
10
52.5036
20
-133.032
11
54.3607
21
-133.032
0
LINE
8
Black
10
54.3607
20
-133.032
11
53.3607
21
-134.175
0
LINE
8
Black
10
53.3607
20
-134.175
11
53.7893
21
-134.175
0
LINE
8
Black
10
53.7893
20
-134.175
11
54.075
21
-134.318
0
LINE
8
Black
10
54.075
20
-134.318
11
54.2179
21
-134.461
0
LINE
8
Black
10
54.2179
20
-134.461
11
54.3607
21
-134.746
0
LINE
8
Black
10
54.3607
20
-134.746
11
54.3607
21
-135.461
0
LINE
8
Black
10
54.3607
20
-135.461
11
54.2179
21
-135.746
0
LINE
8
Black
10
54.2179
20
-135.746
11
54.075
21
-135.889
0
LINE
8
Black
10
54.075
20
-135.889
11
53.7893
21
-136.032
0
LINE
8
Black
10
53.7893
20
-136.032
11
52.9321
21
-136.032
0
LINE
8
Black
10
52.9321
20
-136.032
11
52.6464
21
-135.889
0
LINE
8
Black
10
52.6464
20
-135.889
11
52.5036
21
-135.746
0
LINE
8
Black
10
55.6464
20
-135.746
11
55.7893
21
-135.889
0
LINE
8
Black
10
55.7893
20
-135.889
11
55.6464
21
-136.032
0
LINE
8
Black
10
55.6464
20
-136.032
11
55.5036
21
-135.889
0
LINE
8
Black
10
55.5036
20
-135.889
11
55.6464
21
-135.746
0
LINE
8
Black
10
55.6464
20
-135.746
11
55.6464
21
-136.032
0
LINE
8
Black
10
56.9321
20
-133.318
11
57.075
21
-133.175
0
LINE
8
Black
10
57.075
20
-133.175
11
57.3607
21
-133.032
0
LINE
8
Black
10
57.3607
20
-133.032
11
58.075
21
-133.032
0
LINE
8
Black
10
58.075
20
-133.032
11
58.3607
21
-133.175
0
LINE
8
Black
10
58.3607
20
-133.175
11
58.5036
21
-133.318
0
LINE
8
Black
10
58.5036
20
-133.318
11
58.6464
21
-133.604
0
LINE
8
Black
10
58.6464
20
-133.604
11
58.6464
21
-133.889
0
LINE
8
Black
10
58.6464
20
-133.889
11
58.5036
21
-134.318
0
LINE
8
Black
10
58.5036
20
-134.318
11
56.7893
21
-136.032
0
LINE
8
Black
10
56.7893
20
-136.032
11
58.6464
21
-136.032
0
LINE
8
Black
10
60.5036
20
-133.032
11
60.7893
21
-133.032
0
LINE
8
Black
10
60.7893
20
-133.032
11
61.075
21
-133.175
0
LINE
8
Black
10
61.075
20
-133.175
11
61.2179
21
-133.318
0
LINE
8
Black
10
61.2179
20
-133.318
11
61.3607
21
-133.604
0
LINE
8
Black
10
61.3607
20
-133.604
11
61.5036
21
-134.175
0
LINE
8
Black
10
61.5036
20
-134.175
11
61.5036
21
-134.889
0
LINE
8
Black
10
61.5036
20
-134.889
11
61.3607
21
-135.461
0
LINE
8
Black
10
61.3607
20
-135.461
11
61.2179
21
-135.746
0
LINE
8
Black
10
61.2179
20
-135.746
11
61.075
21
-135.889
0
LINE
8
Black
10
61.075
20
-135.889
11
60.7893
21
-136.032
0
LINE
8
Black
10
60.7893
20
-136.032
11
60.5036
21
-136.032
0
LINE
8
Black
10
60.5036
20
-136.032
11
60.2179
21
-135.889
0
LINE
8
Black
10
60.2179
20
-135.889
11
60.075
21
-135.746
0
LINE
8
Black
10
60.075
20
-135.746
11
59.9321
21
-135.461
0
LINE
8
Black
10
59.9321
20
-135.461
11
59.7893
21
-134.889
0
LINE
8
Black
10
59.7893
20
-134.889
11
59.7893
21
-134.175
0
LINE
8
Black
10
59.7893
20
-134.175
11
59.9321
21
-133.604
0
LINE
8
Black
10
59.9321
20
-133.604
11
60.075
21
-133.318
0
LINE
8
Black
10
60.075
20
-133.318
11
60.2179
21
-133.175
0
LINE
8
Black
10
60.2179
20
-133.175
11
60.5036
21
-133.032
0
LINE
8
Black
10
62.7893
20
-136.032
11
62.7893
21
-134.032
0
LINE
8
Black
10
62.7893
20
-134.318
11
62.9321
21
-134.175
0
LINE
8
Black
10
62.9321
20
-134.175
11
63.2179
21
-134.032
0
LINE
8
Black
10
63.2179
20
-134.032
11
63.6464
21
-134.032
0
LINE
8
Black
10
63.6464
20
-134.032
11
63.9321
21
-134.175
0
LINE
8
Black
10
63.9321
20
-134.175
11
64.075
21
-134.461
0
LINE
8
Black
10
64.075
20
-134.461
11
64.075
21
-136.032
0
LINE
8
Black
10
64.075
20
-134.461
11
64.2179
21
-134.175
0
LINE
8
Black
10
64.2179
20
-134.175
11
64.5036
21
-134.032
0
LINE
8
Black
10
64.5036
20
-134.032
11
64.9321
21
-134.032
0
LINE
8
Black
10
64.9321
20
-134.032
11
65.2179
21
-134.175
0
LINE
8
Black
10
65.2179
20
-134.175
11
65.3607
21
-134.461
0
LINE
8
Black
10
65.3607
20
-134.461
11
65.3607
21
-136.032
0
LINE
8
Black
10
66.7893
20
-136.032
11
66.7893
21
-134.032
0
LINE
8
Black
10
66.7893
20
-134.318
11
66.9321
21
-134.175
0
LINE
8
Black
10
66.9321
20
-134.175
11
67.2179
21
-134.032
0
LINE
8
Black
10
67.2179
20
-134.032
11
67.6464
21
-134.032
0
LINE
8
Black
10
67.6464
20
-134.032
11
67.9321
21
-134.175
0
LINE
8
Black
10
67.9321
20
-134.175
11
68.075
21
-134.461
0
LINE
8
Black
10
68.075
20
-134.461
11
68.075
21
-136.032
0
LINE
8
Black
10
68.075
20
-134.461
11
68.2179
21
-134.175
0
LINE
8
Black
10
68.2179
20
-134.175
11
68.5036
21
-134.032
0
LINE
8
Black
10
68.5036
20
-134.032
11
68.9321
21
-134.032
0
LINE
8
Black
10
68.9321
20
-134.032
11
69.2179
21
-134.175
0
LINE
8
Black
10
69.2179
20
-134.175
11
69.3607
21
-134.461
0
LINE
8
Black
10
69.3607
20
-134.461
11
69.3607
21
-136.032
0
LINE
8
Black
10
75.2179
20
-132.889
11
72.6464
21
-136.746
0
LINE
8
Black
10
79.075
20
-133.032
11
79.3607
21
-133.032
0
LINE
8
Black
10
79.3607
20
-133.032
11
79.6464
21
-133.175
0
LINE
8
Black
10
79.6464
20
-133.175
11
79.7893
21
-133.318
0
LINE
8
Black
10
79.7893
20
-133.318
11
79.9321
21
-133.604
0
LINE
8
Black
10
79.9321
20
-133.604
11
80.075
21
-134.175
0
LINE
8
Black
10
80.075
20
-134.175
11
80.075
21
-134.889
0
LINE
8
Black
10
80.075
20
-134.889
11
79.9321
21
-135.461
0
LINE
8
Black
10
79.9321
20
-135.461
11
79.7893
21
-135.746
0
LINE
8
Black
10
79.7893
20
-135.746
11
79.6464
21
-135.889
0
LINE
8
Black
10
79.6464
20
-135.889
11
79.3607
21
-136.032
0
LINE
8
Black
10
79.3607
20
-136.032
11
79.075
21
-136.032
0
LINE
8
Black
10
79.075
20
-136.032
11
78.7893
21
-135.889
0
LINE
8
Black
10
78.7893
20
-135.889
11
78.6464
21
-135.746
0
LINE
8
Black
10
78.6464
20
-135.746
11
78.5036
21
-135.461
0
LINE
8
Black
10
78.5036
20
-135.461
11
78.3607
21
-134.889
0
LINE
8
Black
10
78.3607
20
-134.889
11
78.3607
21
-134.175
0
LINE
8
Black
10
78.3607
20
-134.175
11
78.5036
21
-133.604
0
LINE
8
Black
10
78.5036
20
-133.604
11
78.6464
21
-133.318
0
LINE
8
Black
10
78.6464
20
-133.318
11
78.7893
21
-133.175
0
LINE
8
Black
10
78.7893
20
-133.175
11
79.075
21
-133.032
0
LINE
8
Black
10
81.3607
20
-135.746
11
81.5036
21
-135.889
0
LINE
8
Black
10
81.5036
20
-135.889
11
81.3607
21
-136.032
0
LINE
8
Black
10
81.3607
20
-136.032
11
81.2179
21
-135.889
0
LINE
8
Black
10
81.2179
20
-135.889
11
81.3607
21
-135.746
0
LINE
8
Black
10
81.3607
20
-135.746
11
81.3607
21
-136.032
0
LINE
8
Black
10
84.3607
20
-136.032
11
82.6464
21
-136.032
0
LINE
8
Black
10
83.5036
20
-136.032
11
83.5036
21
-133.032
0
LINE
8
Black
10
83.5036
20
-133.032
11
83.2179
21
-133.461
0
LINE
8
Black
10
83.2179
20
-133.461
11
82.9321
21
-133.746
0
LINE
8
Black
10
82.9321
20
-133.746
11
82.6464
21
-133.889
0
LINE
8
Black
10
85.5036
20
-133.318
11
85.6464
21
-133.175
0
LINE
8
Black
10
85.6464
20
-133.175
11
85.9321
21
-133.032
0
LINE
8
Black
10
85.9321
20
-133.032
11
86.6464
21
-133.032
0
LINE
8
Black
10
86.6464
20
-133.032
11
86.9321
21
-133.175
0
LINE
8
Black
10
86.9321
20
-133.175
11
87.075
21
-133.318
0
LINE
8
Black
10
87.075
20
-133.318
11
87.2179
21
-133.604
0
LINE
8
Black
10
87.2179
20
-133.604
11
87.2179
21
-133.889
0
LINE
8
Black
10
87.2179
20
-133.889
11
87.075
21
-134.318
0
LINE
8
Black
10
87.075
20
-134.318
11
85.3607
21
-136.032
0
LINE
8
Black
10
85.3607
20
-136.032
11
87.2179
21
-136.032
0
LINE
8
Black
10
89.7893
20
-133.032
11
89.2179
21
-133.032
0
LINE
8
Black
10
89.2179
20
-133.032
11
88.9321
21
-133.175
0
LINE
8
Black
10
88.9321
20
-133.175
11
88.7893
21
-133.318
0
LINE
8
Black
10
88.7893
20
-133.318
11
88.5036
21
-133.746
0
LINE
8
Black
10
88.5036
20
-133.746
11
88.3607
21
-134.318
0
LINE
8
Black
10
88.3607
20
-134.318
11
88.3607
21
-135.461
0
LINE
8
Black
10
88.3607
20
-135.461
11
88.5036
21
-135.746
0
LINE
8
Black
10
88.5036
20
-135.746
11
88.6464
21
-135.889
0
LINE
8
Black
10
88.6464
20
-135.889
11
88.9321
21
-136.032
0
LINE
8
Black
10
88.9321
20
-136.032
11
89.5036
21
-136.032
0
LINE
8
Black
10
89.5036
20
-136.032
11
89.7893
21
-135.889
0
LINE
8
Black
10
89.7893
20
-135.889
11
89.9321
21
-135.746
0
LINE
8
Black
10
89.9321
20
-135.746
11
90.075
21
-135.461
0
LINE
8
Black
10
90.075
20
-135.461
11
90.075
21
-134.746
0
LINE
8
Black
10
90.075
20
-134.746
11
89.9321
21
-134.461
0
LINE
8
Black
10
89.9321
20
-134.461
11
89.7893
21
-134.318
0
LINE
8
Black
10
89.7893
20
-134.318
11
89.5036
21
-134.175
0
LINE
8
Black
10
89.5036
20
-134.175
11
88.9321
21
-134.175
0
LINE
8
Black
10
88.9321
20
-134.175
11
88.6464
21
-134.318
0
LINE
8
Black
10
88.6464
20
-134.318
11
88.5036
21
-134.461
0
LINE
8
Black
10
88.5036
20
-134.461
11
88.3607
21
-134.746
0
LINE
8
Black
10
91.2179
20
-133.032
11
91.2179
21
-133.604
0
LINE
8
Black
10
92.3607
20
-133.032
11
92.3607
21
-133.604
0
LINE
8
Black
10
96.7893
20
-137.175
11
96.6464
21
-137.032
0
LINE
8
Black
10
96.6464
20
-137.032
11
96.3607
21
-136.604
0
LINE
8
Black
10
96.3607
20
-136.604
11
96.2179
21
-136.318
0
LINE
8
Black
10
96.2179
20
-136.318
11
96.075
21
-135.889
0
LINE
8
Black
10
96.075
20
-135.889
11
95.9321
21
-135.175
0
LINE
8
Black
10
95.9321
20
-135.175
11
95.9321
21
-134.604
0
LINE
8
Black
10
95.9321
20
-134.604
11
96.075
21
-133.889
0
LINE
8
Black
10
96.075
20
-133.889
11
96.2179
21
-133.461
0
LINE
8
Black
10
96.2179
20
-133.461
11
96.3607
21
-133.175
0
LINE
8
Black
10
96.3607
20
-133.175
11
96.6464
21
-132.746
0
LINE
8
Black
10
96.6464
20
-132.746
11
96.7893
21
-132.604
0
LINE
8
Black
10
99.2179
20
-134.032
11
99.2179
21
-136.032
0
LINE
8
Black
10
98.5036
20
-132.889
11
97.7893
21
-135.032
0
LINE
8
Black
10
97.7893
20
-135.032
11
99.6464
21
-135.032
0
LINE
8
Black
10
103.075
20
-136.032
11
103.075
21
-133.032
0
LINE
8
Black
10
104.361
20
-136.032
11
104.361
21
-134.461
0
LINE
8
Black
10
104.361
20
-134.461
11
104.218
21
-134.175
0
LINE
8
Black
10
104.218
20
-134.175
11
103.932
21
-134.032
0
LINE
8
Black
10
103.932
20
-134.032
11
103.504
21
-134.032
0
LINE
8
Black
10
103.504
20
-134.032
11
103.218
21
-134.175
0
LINE
8
Black
10
103.218
20
-134.175
11
103.075
21
-134.318
0
LINE
8
Black
10
106.218
20
-136.032
11
105.932
21
-135.889
0
LINE
8
Black
10
105.932
20
-135.889
11
105.789
21
-135.746
0
LINE
8
Black
10
105.789
20
-135.746
11
105.646
21
-135.461
0
LINE
8
Black
10
105.646
20
-135.461
11
105.646
21
-134.604
0
LINE
8
Black
10
105.646
20
-134.604
11
105.789
21
-134.318
0
LINE
8
Black
10
105.789
20
-134.318
11
105.932
21
-134.175
0
LINE
8
Black
10
105.932
20
-134.175
11
106.218
21
-134.032
0
LINE
8
Black
10
106.218
20
-134.032
11
106.646
21
-134.032
0
LINE
8
Black
10
106.646
20
-134.032
11
106.932
21
-134.175
0
LINE
8
Black
10
106.932
20
-134.175
11
107.075
21
-134.318
0
LINE
8
Black
10
107.075
20
-134.318
11
107.218
21
-134.604
0
LINE
8
Black
10
107.218
20
-134.604
11
107.218
21
-135.461
0
LINE
8
Black
10
107.218
20
-135.461
11
107.075
21
-135.746
0
LINE
8
Black
10
107.075
20
-135.746
11
106.932
21
-135.889
0
LINE
8
Black
10
106.932
20
-135.889
11
106.646
21
-136.032
0
LINE
8
Black
10
106.646
20
-136.032
11
106.218
21
-136.032
0
LINE
8
Black
10
108.932
20
-136.032
11
108.646
21
-135.889
0
LINE
8
Black
10
108.646
20
-135.889
11
108.504
21
-135.604
0
LINE
8
Black
10
108.504
20
-135.604
11
108.504
21
-133.032
0
LINE
8
Black
10
111.218
20
-135.889
11
110.932
21
-136.032
0
LINE
8
Black
10
110.932
20
-136.032
11
110.361
21
-136.032
0
LINE
8
Black
10
110.361
20
-136.032
11
110.075
21
-135.889
0
LINE
8
Black
10
110.075
20
-135.889
11
109.932
21
-135.604
0
LINE
8
Black
10
109.932
20
-135.604
11
109.932
21
-134.461
0
LINE
8
Black
10
109.932
20
-134.461
11
110.075
21
-134.175
0
LINE
8
Black
10
110.075
20
-134.175
11
110.361
21
-134.032
0
LINE
8
Black
10
110.361
20
-134.032
11
110.932
21
-134.032
0
LINE
8
Black
10
110.932
20
-134.032
11
111.218
21
-134.175
0
LINE
8
Black
10
111.218
20
-134.175
11
111.361
21
-134.461
0
LINE
8
Black
10
111.361
20
-134.461
11
111.361
21
-134.746
0
LINE
8
Black
10
111.361
20
-134.746
11
109.932
21
-135.032
0
LINE
8
Black
10
112.504
20
-135.889
11
112.789
21
-136.032
0
LINE
8
Black
10
112.789
20
-136.032
11
113.361
21
-136.032
0
LINE
8
Black
10
113.361
20
-136.032
11
113.646
21
-135.889
0
LINE
8
Black
10
113.646
20
-135.889
11
113.789
21
-135.604
0
LINE
8
Black
10
113.789
20
-135.604
11
113.789
21
-135.461
0
LINE
8
Black
10
113.789
20
-135.461
11
113.646
21
-135.175
0
LINE
8
Black
10
113.646
20
-135.175
11
113.361
21
-135.032
0
LINE
8
Black
10
113.361
20
-135.032
11
112.932
21
-135.032
0
LINE
8
Black
10
112.932
20
-135.032
11
112.646
21
-134.889
0
LINE
8
Black
10
112.646
20
-134.889
11
112.504
21
-134.604
0
LINE
8
Black
10
112.504
20
-134.604
11
112.504
21
-134.461
0
LINE
8
Black
10
112.504
20
-134.461
11
112.646
21
-134.175
0
LINE
8
Black
10
112.646
20
-134.175
11
112.932
21
-134.032
0
LINE
8
Black
10
112.932
20
-134.032
11
113.361
21
-134.032
0
LINE
8
Black
10
113.361
20
-134.032
11
113.646
21
-134.175
0
LINE
8
Black
10
114.789
20
-137.175
11
114.932
21
-137.032
0
LINE
8
Black
10
114.932
20
-137.032
11
115.218
21
-136.604
0
LINE
8
Black
10
115.218
20
-136.604
11
115.361
21
-136.318
0
LINE
8
Black
10
115.361
20
-136.318
11
115.504
21
-135.889
0
LINE
8
Black
10
115.504
20
-135.889
11
115.646
21
-135.175
0
LINE
8
Black
10
115.646
20
-135.175
11
115.646
21
-134.604
0
LINE
8
Black
10
115.646
20
-134.604
11
115.504
21
-133.889
0
LINE
8
Black
10
115.504
20
-133.889
11
115.361
21
-133.461
0
LINE
8
Black
10
115.361
20
-133.461
11
115.218
21
-133.175
0
LINE
8
Black
10
115.218
20
-133.175
11
114.932
21
-132.746
0
LINE
8
Black
10
114.932
20
-132.746
11
114.789
21
-132.604
0
LINE
8
Black
10
120.218
20
-137.175
11
120.075
21
-137.032
0
LINE
8
Black
10
120.075
20
-137.032
11
119.789
21
-136.604
0
LINE
8
Black
10
119.789
20
-136.604
11
119.646
21
-136.318
0
LINE
8
Black
10
119.646
20
-136.318
11
119.504
21
-135.889
0
LINE
8
Black
10
119.504
20
-135.889
11
119.361
21
-135.175
0
LINE
8
Black
10
119.361
20
-135.175
11
119.361
21
-134.604
0
LINE
8
Black
10
119.361
20
-134.604
11
119.504
21
-133.889
0
LINE
8
Black
10
119.504
20
-133.889
11
119.646
21
-133.461
0
LINE
8
Black
10
119.646
20
-133.461
11
119.789
21
-133.175
0
LINE
8
Black
10
119.789
20
-133.175
11
120.075
21
-132.746
0
LINE
8
Black
10
120.075
20
-132.746
11
120.218
21
-132.604
0
LINE
8
Black
10
121.361
20
-134.032
11
121.361
21
-136.032
0
LINE
8
Black
10
121.361
20
-134.318
11
121.504
21
-134.175
0
LINE
8
Black
10
121.504
20
-134.175
11
121.789
21
-134.032
0
LINE
8
Black
10
121.789
20
-134.032
11
122.218
21
-134.032
0
LINE
8
Black
10
122.218
20
-134.032
11
122.504
21
-134.175
0
LINE
8
Black
10
122.504
20
-134.175
11
122.646
21
-134.461
0
LINE
8
Black
10
122.646
20
-134.461
11
122.646
21
-136.032
0
LINE
8
Black
10
124.504
20
-136.032
11
124.218
21
-135.889
0
LINE
8
Black
10
124.218
20
-135.889
11
124.075
21
-135.746
0
LINE
8
Black
10
124.075
20
-135.746
11
123.932
21
-135.461
0
LINE
8
Black
10
123.932
20
-135.461
11
123.932
21
-134.604
0
LINE
8
Black
10
123.932
20
-134.604
11
124.075
21
-134.318
0
LINE
8
Black
10
124.075
20
-134.318
11
124.218
21
-134.175
0
LINE
8
Black
10
124.218
20
-134.175
11
124.504
21
-134.032
0
LINE
8
Black
10
124.504
20
-134.032
11
124.932
21
-134.032
0
LINE
8
Black
10
124.932
20
-134.032
11
125.218
21
-134.175
0
LINE
8
Black
10
125.218
20
-134.175
11
125.361
21
-134.318
0
LINE
8
Black
10
125.361
20
-134.318
11
125.504
21
-134.604
0
LINE
8
Black
10
125.504
20
-134.604
11
125.504
21
-135.461
0
LINE
8
Black
10
125.504
20
-135.461
11
125.361
21
-135.746
0
LINE
8
Black
10
125.361
20
-135.746
11
125.218
21
-135.889
0
LINE
8
Black
10
125.218
20
-135.889
11
124.932
21
-136.032
0
LINE
8
Black
10
124.932
20
-136.032
11
124.504
21
-136.032
0
LINE
8
Black
10
126.361
20
-134.032
11
127.504
21
-134.032
0
LINE
8
Black
10
126.789
20
-133.032
11
126.789
21
-135.604
0
LINE
8
Black
10
126.789
20
-135.604
11
126.932
21
-135.889
0
LINE
8
Black
10
126.932
20
-135.889
11
127.218
21
-136.032
0
LINE
8
Black
10
127.218
20
-136.032
11
127.504
21
-136.032
0
LINE
8
Black
10
130.789
20
-134.032
11
130.789
21
-137.032
0
LINE
8
Black
10
130.789
20
-134.175
11
131.075
21
-134.032
0
LINE
8
Black
10
131.075
20
-134.032
11
131.646
21
-134.032
0
LINE
8
Black
10
131.646
20
-134.032
11
131.932
21
-134.175
0
LINE
8
Black
10
131.932
20
-134.175
11
132.075
21
-134.318
0
LINE
8
Black
10
132.075
20
-134.318
11
132.218
21
-134.604
0
LINE
8
Black
10
132.218
20
-134.604
11
132.218
21
-135.461
0
LINE
8
Black
10
132.218
20
-135.461
11
132.075
21
-135.746
0
LINE
8
Black
10
132.075
20
-135.746
11
131.932
21
-135.889
0
LINE
8
Black
10
131.932
20
-135.889
11
131.646
21
-136.032
0
LINE
8
Black
10
131.646
20
-136.032
11
131.075
21
-136.032
0
LINE
8
Black
10
131.075
20
-136.032
11
130.789
21
-135.889
0
LINE
8
Black
10
133.932
20
-136.032
11
133.646
21
-135.889
0
LINE
8
Black
10
133.646
20
-135.889
11
133.504
21
-135.604
0
LINE
8
Black
10
133.504
20
-135.604
11
133.504
21
-133.032
0
LINE
8
Black
10
136.361
20
-136.032
11
136.361
21
-134.461
0
LINE
8
Black
10
136.361
20
-134.461
11
136.218
21
-134.175
0
LINE
8
Black
10
136.218
20
-134.175
11
135.932
21
-134.032
0
LINE
8
Black
10
135.932
20
-134.032
11
135.361
21
-134.032
0
LINE
8
Black
10
135.361
20
-134.032
11
135.075
21
-134.175
0
LINE
8
Black
10
136.361
20
-135.889
11
136.075
21
-136.032
0
LINE
8
Black
10
136.075
20
-136.032
11
135.361
21
-136.032
0
LINE
8
Black
10
135.361
20
-136.032
11
135.075
21
-135.889
0
LINE
8
Black
10
135.075
20
-135.889
11
134.932
21
-135.604
0
LINE
8
Black
10
134.932
20
-135.604
11
134.932
21
-135.318
0
LINE
8
Black
10
134.932
20
-135.318
11
135.075
21
-135.032
0
LINE
8
Black
10
135.075
20
-135.032
11
135.361
21
-134.889
0
LINE
8
Black
10
135.361
20
-134.889
11
136.075
21
-134.889
0
LINE
8
Black
10
136.075
20
-134.889
11
136.361
21
-134.746
0
LINE
8
Black
10
137.361
20
-134.032
11
138.504
21
-134.032
0
LINE
8
Black
10
137.789
20
-133.032
11
137.789
21
-135.604
0
LINE
8
Black
10
137.789
20
-135.604
11
137.932
21
-135.889
0
LINE
8
Black
10
137.932
20
-135.889
11
138.218
21
-136.032
0
LINE
8
Black
10
138.218
20
-136.032
11
138.504
21
-136.032
0
LINE
8
Black
10
140.646
20
-135.889
11
140.361
21
-136.032
0
LINE
8
Black
10
140.361
20
-136.032
11
139.789
21
-136.032
0
LINE
8
Black
10
139.789
20
-136.032
11
139.504
21
-135.889
0
LINE
8
Black
10
139.504
20
-135.889
11
139.361
21
-135.604
0
LINE
8
Black
10
139.361
20
-135.604
11
139.361
21
-134.461
0
LINE
8
Black
10
139.361
20
-134.461
11
139.504
21
-134.175
0
LINE
8
Black
10
139.504
20
-134.175
11
139.789
21
-134.032
0
LINE
8
Black
10
139.789
20
-134.032
11
140.361
21
-134.032
0
LINE
8
Black
10
140.361
20
-134.032
11
140.646
21
-134.175
0
LINE
8
Black
10
140.646
20
-134.175
11
140.789
21
-134.461
0
LINE
8
Black
10
140.789
20
-134.461
11
140.789
21
-134.746
0
LINE
8
Black
10
140.789
20
-134.746
11
139.361
21
-135.032
0
LINE
8
Black
10
143.361
20
-136.032
11
143.361
21
-133.032
0
LINE
8
Black
10
143.361
20
-135.889
11
143.075
21
-136.032
0
LINE
8
Black
10
143.075
20
-136.032
11
142.504
21
-136.032
0
LINE
8
Black
10
142.504
20
-136.032
11
142.218
21
-135.889
0
LINE
8
Black
10
142.218
20
-135.889
11
142.075
21
-135.746
0
LINE
8
Black
10
142.075
20
-135.746
11
141.932
21
-135.461
0
LINE
8
Black
10
141.932
20
-135.461
11
141.932
21
-134.604
0
LINE
8
Black
10
141.932
20
-134.604
11
142.075
21
-134.318
0
LINE
8
Black
10
142.075
20
-134.318
11
142.218
21
-134.175
0
LINE
8
Black
10
142.218
20
-134.175
11
142.504
21
-134.032
0
LINE
8
Black
10
142.504
20
-134.032
11
143.075
21
-134.032
0
LINE
8
Black
10
143.075
20
-134.032
11
143.361
21
-134.175
0
LINE
8
Black
10
144.504
20
-137.175
11
144.646
21
-137.032
0
LINE
8
Black
10
144.646
20
-137.032
11
144.932
21
-136.604
0
LINE
8
Black
10
144.932
20
-136.604
11
145.075
21
-136.318
0
LINE
8
Black
10
145.075
20
-136.318
11
145.218
21
-135.889
0
LINE
8
Black
10
145.218
20
-135.889
11
145.361
21
-135.175
0
LINE
8
Black
10
145.361
20
-135.175
11
145.361
21
-134.604
0
LINE
8
Black
10
145.361
20
-134.604
11
145.218
21
-133.889
0
LINE
8
Black
10
145.218
20
-133.889
11
145.075
21
-133.461
0
LINE
8
Black
10
145.075
20
-133.461
11
144.932
21
-133.175
0
LINE
8
Black
10
144.932
20
-133.175
11
144.646
21
-132.746
0
LINE
8
Black
10
144.646
20
-132.746
11
144.504
21
-132.604
  0
ENDSEC
  0
EOF
