  0
SECTION
  2
HEADER
  9
$ANGBASE
  50
0.0
  9
$ANGDIR
  70
  1
  9
$MEASUREMENT
  70
0
  0
ENDSEC
  0
SECTION
  2
TABLES
  0
TABLE
  2
LTYPE
  70
1
  0
LTYPE
  2
CONTINUOUS
  70
0
  3
Solid line
  72
65
  73
0
  40
0.0
  0
ENDTAB
  0
TABLE
  2
STYLE
  70
4
  0
STYLE
  2
KICAD
  70
0
  40
0
  41
1
  42
1
  50
0
  71
0
  3
isocp.shx
  0
STYLE
  2
KICADB
  70
0
  40
0
  41
1
  42
1
  50
0
  71
0
  3
isocp.shx
  0
STYLE
  2
KICADI
  70
0
  40
0
  41
1
  42
1
  50
15
  71
0
  3
isocp.shx
  0
STYLE
  2
KICADBI
  70
0
  40
0
  41
1
  42
1
  50
15
  71
0
  3
isocp.shx
  0
ENDTAB
  0
TABLE
  2
LAYER
  70
30
  0
LAYER
  2
BLACK
  70
0
  62
7
  6
CONTINUOUS
  0
LAYER
  2
GRAY1
  70
0
  62
251
  6
CONTINUOUS
  0
LAYER
  2
GRAY2
  70
0
  62
8
  6
CONTINUOUS
  0
LAYER
  2
GRAY3
  70
0
  62
9
  6
CONTINUOUS
  0
LAYER
  2
WHITE
  70
0
  62
7
  6
CONTINUOUS
  0
LAYER
  2
LYELLOW
  70
0
  62
51
  6
CONTINUOUS
  0
LAYER
  2
BLUE1
  70
0
  62
178
  6
CONTINUOUS
  0
LAYER
  2
GREEN1
  70
0
  62
98
  6
CONTINUOUS
  0
LAYER
  2
CYAN1
  70
0
  62
138
  6
CONTINUOUS
  0
LAYER
  2
RED1
  70
0
  62
18
  6
CONTINUOUS
  0
LAYER
  2
MAGENTA1
  70
0
  62
228
  6
CONTINUOUS
  0
LAYER
  2
BROWN1
  70
0
  62
58
  6
CONTINUOUS
  0
LAYER
  2
BLUE2
  70
0
  62
5
  6
CONTINUOUS
  0
LAYER
  2
GREEN2
  70
0
  62
3
  6
CONTINUOUS
  0
LAYER
  2
CYAN2
  70
0
  62
4
  6
CONTINUOUS
  0
LAYER
  2
RED2
  70
0
  62
1
  6
CONTINUOUS
  0
LAYER
  2
MAGENTA2
  70
0
  62
6
  6
CONTINUOUS
  0
LAYER
  2
BROWN2
  70
0
  62
54
  6
CONTINUOUS
  0
LAYER
  2
BLUE3
  70
0
  62
171
  6
CONTINUOUS
  0
LAYER
  2
GREEN3
  70
0
  62
91
  6
CONTINUOUS
  0
LAYER
  2
CYAN3
  70
0
  62
131
  6
CONTINUOUS
  0
LAYER
  2
RED3
  70
0
  62
11
  6
CONTINUOUS
  0
LAYER
  2
MAGENTA3
  70
0
  62
221
  6
CONTINUOUS
  0
LAYER
  2
YELLOW3
  70
0
  62
2
  6
CONTINUOUS
  0
LAYER
  2
BLUE4
  70
0
  62
5
  6
CONTINUOUS
  0
LAYER
  2
GREEN4
  70
0
  62
3
  6
CONTINUOUS
  0
LAYER
  2
CYAN4
  70
0
  62
4
  6
CONTINUOUS
  0
LAYER
  2
RED4
  70
0
  62
1
  6
CONTINUOUS
  0
LAYER
  2
MAGENTA4
  70
0
  62
6
  6
CONTINUOUS
  0
LAYER
  2
YELLOW4
  70
0
  62
2
  6
CONTINUOUS
  0
ENDTAB
  0
ENDSEC
  0
SECTION
  2
ENTITIES
0
LINE
8
Black
10
50
20
-125.075
11
125
21
-125.075
0
LINE
8
Black
10
50
20
-124.925
11
125
21
-124.925
0
ARC
8
Black
10
125
20
-125
40
0.075
50
270
51
450
0
ARC
8
Black
10
50
20
-125
40
0.075
50
90
51
270
0
LINE
8
Black
10
125.075
20
-125
11
125.075
21
-50
0
LINE
8
Black
10
124.925
20
-125
11
124.925
21
-50
0
ARC
8
Black
10
125
20
-50
40
0.075
50
360
51
540
0
ARC
8
Black
10
125
20
-125
40
0.075
50
180
51
360
0
LINE
8
Black
10
50.075
20
-125
11
50.075
21
-50
0
LINE
8
Black
10
49.925
20
-125
11
49.925
21
-50
0
ARC
8
Black
10
50
20
-50
40
0.075
50
360
51
540
0
ARC
8
Black
10
50
20
-125
40
0.075
50
180
51
360
0
LINE
8
Black
10
50
20
-50.075
11
125
21
-50.075
0
LINE
8
Black
10
50
20
-49.925
11
125
21
-49.925
0
ARC
8
Black
10
125
20
-50
40
0.075
50
270
51
450
0
ARC
8
Black
10
50
20
-50
40
0.075
50
90
51
270
0
LINE
8
Black
10
61.3
20
-87.8073
11
61.7
21
-88.2073
0
LINE
8
Black
10
61.7
20
-87.8073
11
61.3
21
-88.2073
0
LINE
8
Black
10
65.9852
20
-89.6957
11
66.3852
21
-90.0957
0
LINE
8
Black
10
66.3852
20
-89.6957
11
65.9852
21
-90.0957
0
LINE
8
Black
10
66.4785
20
-77.5245
11
66.8785
21
-77.9245
0
LINE
8
Black
10
66.8785
20
-77.5245
11
66.4785
21
-77.9245
0
LINE
8
Black
10
66.8
20
-72.8
11
67.2
21
-73.2
0
LINE
8
Black
10
67.2
20
-72.8
11
66.8
21
-73.2
0
LINE
8
Black
10
67.0483
20
-91.0802
11
67.4483
21
-91.4802
0
LINE
8
Black
10
67.4483
20
-91.0802
11
67.0483
21
-91.4802
0
LINE
8
Black
10
68.8
20
-72.55
11
69.2
21
-72.95
0
LINE
8
Black
10
69.2
20
-72.55
11
68.8
21
-72.95
0
LINE
8
Black
10
68.8
20
-84.3
11
69.2
21
-84.7
0
LINE
8
Black
10
69.2
20
-84.3
11
68.8
21
-84.7
0
LINE
8
Black
10
70.05
20
-58.55
11
70.45
21
-58.95
0
LINE
8
Black
10
70.45
20
-58.55
11
70.05
21
-58.95
0
LINE
8
Black
10
71.6193
20
-95.1886
11
72.0193
21
-95.5886
0
LINE
8
Black
10
72.0193
20
-95.1886
11
71.6193
21
-95.5886
0
LINE
8
Black
10
71.8
20
-84.3
11
72.2
21
-84.7
0
LINE
8
Black
10
72.2
20
-84.3
11
71.8
21
-84.7
0
LINE
8
Black
10
73.3
20
-70.8
11
73.7
21
-71.2
0
LINE
8
Black
10
73.7
20
-70.8
11
73.3
21
-71.2
0
LINE
8
Black
10
73.8
20
-93.3
11
74.2
21
-93.7
0
LINE
8
Black
10
74.2
20
-93.3
11
73.8
21
-93.7
0
LINE
8
Black
10
75.9864
20
-69.3212
11
76.3864
21
-69.7212
0
LINE
8
Black
10
76.3864
20
-69.3212
11
75.9864
21
-69.7212
0
LINE
8
Black
10
77.8992
20
-68.3873
11
78.2992
21
-68.7873
0
LINE
8
Black
10
78.2992
20
-68.3873
11
77.8992
21
-68.7873
0
LINE
8
Black
10
78.583
20
-118.037
11
78.983
21
-118.437
0
LINE
8
Black
10
78.983
20
-118.037
11
78.583
21
-118.437
0
LINE
8
Black
10
78.8
20
-72.3
11
79.2
21
-72.7
0
LINE
8
Black
10
79.2
20
-72.3
11
78.8
21
-72.7
0
LINE
8
Black
10
79.8
20
-89.3
11
80.2
21
-89.7
0
LINE
8
Black
10
80.2
20
-89.3
11
79.8
21
-89.7
0
LINE
8
Black
10
80.05
20
-80.05
11
80.45
21
-80.45
0
LINE
8
Black
10
80.45
20
-80.05
11
80.05
21
-80.45
0
LINE
8
Black
10
80.05
20
-81.3
11
80.45
21
-81.7
0
LINE
8
Black
10
80.45
20
-81.3
11
80.05
21
-81.7
0
LINE
8
Black
10
80.05
20
-82.55
11
80.45
21
-82.95
0
LINE
8
Black
10
80.45
20
-82.55
11
80.05
21
-82.95
0
LINE
8
Black
10
80.8613
20
-66.0617
11
81.2613
21
-66.4617
0
LINE
8
Black
10
81.2613
20
-66.0617
11
80.8613
21
-66.4617
0
LINE
8
Black
10
84.8
20
-88.8
11
85.2
21
-89.2
0
LINE
8
Black
10
85.2
20
-88.8
11
84.8
21
-89.2
0
LINE
8
Black
10
84.9014
20
-109.3
11
85.3015
21
-109.7
0
LINE
8
Black
10
85.3015
20
-109.3
11
84.9014
21
-109.7
0
LINE
8
Black
10
85.8
20
-72.3
11
86.2
21
-72.7
0
LINE
8
Black
10
86.2
20
-72.3
11
85.8
21
-72.7
0
LINE
8
Black
10
87.8
20
-116.3
11
88.2
21
-116.7
0
LINE
8
Black
10
88.2
20
-116.3
11
87.8
21
-116.7
0
LINE
8
Black
10
87.8
20
-117.8
11
88.2
21
-118.2
0
LINE
8
Black
10
88.2
20
-117.8
11
87.8
21
-118.2
0
LINE
8
Black
10
88.2147
20
-74.605
11
88.6147
21
-75.005
0
LINE
8
Black
10
88.6147
20
-74.605
11
88.2147
21
-75.005
0
LINE
8
Black
10
88.3
20
-61.3
11
88.7
21
-61.7
0
LINE
8
Black
10
88.7
20
-61.3
11
88.3
21
-61.7
0
LINE
8
Black
10
88.3
20
-72.3
11
88.7
21
-72.7
0
LINE
8
Black
10
88.7
20
-72.3
11
88.3
21
-72.7
0
LINE
8
Black
10
92.8
20
-81.3
11
93.2
21
-81.7
0
LINE
8
Black
10
93.2
20
-81.3
11
92.8
21
-81.7
0
LINE
8
Black
10
93.3
20
-68.3
11
93.7
21
-68.7
0
LINE
8
Black
10
93.7
20
-68.3
11
93.3
21
-68.7
0
LINE
8
Black
10
94.412
20
-76.4474
11
94.812
21
-76.8474
0
LINE
8
Black
10
94.812
20
-76.4474
11
94.412
21
-76.8474
0
LINE
8
Black
10
98.45
20
-102.65
11
98.85
21
-103.05
0
LINE
8
Black
10
98.85
20
-102.65
11
98.45
21
-103.05
0
LINE
8
Black
10
98.8
20
-61.3
11
99.2
21
-61.7
0
LINE
8
Black
10
99.2
20
-61.3
11
98.8
21
-61.7
0
LINE
8
Black
10
99.4601
20
-79.3996
11
99.8601
21
-79.7996
0
LINE
8
Black
10
99.8601
20
-79.3996
11
99.4601
21
-79.7996
0
LINE
8
Black
10
100.8
20
-79.3
11
101.2
21
-79.7
0
LINE
8
Black
10
101.2
20
-79.3
11
100.8
21
-79.7
0
LINE
8
Black
10
101.25
20
-68.3
11
101.65
21
-68.7
0
LINE
8
Black
10
101.65
20
-68.3
11
101.25
21
-68.7
0
LINE
8
Black
10
107.015
20
-95.8
11
107.415
21
-96.2
0
LINE
8
Black
10
107.415
20
-95.8
11
107.015
21
-96.2
0
LINE
8
Black
10
107.3
20
-92.8
11
107.7
21
-93.2
0
LINE
8
Black
10
107.7
20
-92.8
11
107.3
21
-93.2
0
LINE
8
Black
10
108.8
20
-81.8
11
109.2
21
-82.2
0
LINE
8
Black
10
109.2
20
-81.8
11
108.8
21
-82.2
0
LINE
8
Black
10
108.8
20
-89.55
11
109.2
21
-89.95
0
LINE
8
Black
10
109.2
20
-89.55
11
108.8
21
-89.95
0
LINE
8
Black
10
110.55
20
-60.8
11
110.95
21
-61.2
0
LINE
8
Black
10
110.95
20
-60.8
11
110.55
21
-61.2
0
LINE
8
Black
10
114.8
20
-109.8
11
115.2
21
-110.2
0
LINE
8
Black
10
115.2
20
-109.8
11
114.8
21
-110.2
0
LINE
8
Black
10
118.3
20
-79.3
11
118.7
21
-79.7
0
LINE
8
Black
10
118.7
20
-79.3
11
118.3
21
-79.7
0
CIRCLE
8
Black
10
78.2027
20
-121.051
40
0.34878
0
CIRCLE
8
Black
10
82
20
-121.054
40
0.34878
0
LINE
8
Black
10
108.23
20
-65.619
11
108.23
21
-66.381
0
LINE
8
Black
10
107.849
20
-66
11
108.611
21
-66
0
LINE
8
Black
10
109.5
20
-65.619
11
109.5
21
-66.381
0
LINE
8
Black
10
109.119
20
-66
11
109.881
21
-66
0
LINE
8
Black
10
110.77
20
-65.619
11
110.77
21
-66.381
0
LINE
8
Black
10
110.389
20
-66
11
111.151
21
-66
0
LINE
8
Black
10
112.04
20
-65.619
11
112.04
21
-66.381
0
LINE
8
Black
10
111.659
20
-66
11
112.421
21
-66
0
LINE
8
Black
10
59.2828
20
-111.283
11
59.2828
21
-110.717
0
LINE
8
Black
10
59.2828
20
-110.717
11
58.7172
21
-110.717
0
LINE
8
Black
10
58.7172
20
-110.717
11
58.7172
21
-111.283
0
LINE
8
Black
10
58.7172
20
-111.283
11
59.2828
21
-111.283
0
LINE
8
Black
10
66.7828
20
-115.083
11
66.7828
21
-114.517
0
LINE
8
Black
10
66.7828
20
-114.517
11
66.2172
21
-114.517
0
LINE
8
Black
10
66.2172
20
-114.517
11
66.2172
21
-115.083
0
LINE
8
Black
10
66.2172
20
-115.083
11
66.7828
21
-115.083
0
LINE
8
Black
10
65.15
20
-115.2
11
67.85
21
-115.2
0
LINE
8
Black
10
65.15
20
-114.4
11
67.85
21
-114.4
0
ARC
8
Black
10
67.85
20
-114.8
40
0.4
50
270
51
450
0
ARC
8
Black
10
65.15
20
-114.8
40
0.4
50
90
51
270
0
LINE
8
Black
10
66.7828
20
-121.083
11
66.7828
21
-120.517
0
LINE
8
Black
10
66.7828
20
-120.517
11
66.2172
21
-120.517
0
LINE
8
Black
10
66.2172
20
-120.517
11
66.2172
21
-121.083
0
LINE
8
Black
10
66.2172
20
-121.083
11
66.7828
21
-121.083
0
LINE
8
Black
10
65.4
20
-121.2
11
67.6
21
-121.2
0
LINE
8
Black
10
65.4
20
-120.4
11
67.6
21
-120.4
0
ARC
8
Black
10
67.6
20
-120.8
40
0.4
50
270
51
450
0
ARC
8
Black
10
65.4
20
-120.8
40
0.4
50
90
51
270
0
LINE
8
Black
10
71.5828
20
-117.583
11
71.5828
21
-117.017
0
LINE
8
Black
10
71.5828
20
-117.017
11
71.0172
21
-117.017
0
LINE
8
Black
10
71.0172
20
-117.017
11
71.0172
21
-117.583
0
LINE
8
Black
10
71.0172
20
-117.583
11
71.5828
21
-117.583
0
LINE
8
Black
10
71.7
20
-118.4
11
71.7
21
-116.2
0
LINE
8
Black
10
70.9
20
-118.4
11
70.9
21
-116.2
0
ARC
8
Black
10
71.3
20
-116.2
40
0.4
50
360
51
540
0
ARC
8
Black
10
71.3
20
-118.4
40
0.4
50
180
51
360
0
LINE
8
Black
10
76.2828
20
-118.783
11
76.2828
21
-118.217
0
LINE
8
Black
10
76.2828
20
-118.217
11
75.7172
21
-118.217
0
LINE
8
Black
10
75.7172
20
-118.217
11
75.7172
21
-118.783
0
LINE
8
Black
10
75.7172
20
-118.783
11
76.2828
21
-118.783
0
LINE
8
Black
10
104.044
20
-103.718
11
104.044
21
-103.152
0
LINE
8
Black
10
104.044
20
-103.152
11
103.478
21
-103.152
0
LINE
8
Black
10
103.478
20
-103.152
11
103.478
21
-103.718
0
LINE
8
Black
10
103.478
20
-103.718
11
104.044
21
-103.718
0
LINE
8
Black
10
108.287
20
-102.563
11
108.287
21
-101.998
0
LINE
8
Black
10
108.287
20
-101.998
11
107.721
21
-101.998
0
LINE
8
Black
10
107.721
20
-101.998
11
107.721
21
-102.563
0
LINE
8
Black
10
107.721
20
-102.563
11
108.287
21
-102.563
0
LINE
8
Black
10
110.033
20
-112.283
11
110.033
21
-111.717
0
LINE
8
Black
10
110.033
20
-111.717
11
109.467
21
-111.717
0
LINE
8
Black
10
109.467
20
-111.717
11
109.467
21
-112.283
0
LINE
8
Black
10
109.467
20
-112.283
11
110.033
21
-112.283
0
LINE
8
Black
10
112.86
20
-112.245
11
112.86
21
-111.679
0
LINE
8
Black
10
112.86
20
-111.679
11
112.294
21
-111.679
0
LINE
8
Black
10
112.294
20
-111.679
11
112.294
21
-112.245
0
LINE
8
Black
10
112.294
20
-112.245
11
112.86
21
-112.245
0
LINE
8
Black
10
71.5591
20
-87.9
11
71.9591
21
-87.5
0
LINE
8
Black
10
71.9591
20
-87.5
11
71.5591
21
-87.0999
0
LINE
8
Black
10
71.5591
20
-87.0999
11
71.159
21
-87.5
0
LINE
8
Black
10
71.159
20
-87.5
11
71.5591
21
-87.9
0
LINE
8
Black
10
76.4409
20
-87.9
11
76.841
21
-87.5
0
LINE
8
Black
10
76.841
20
-87.5
11
76.4409
21
-87.0999
0
LINE
8
Black
10
76.4409
20
-87.0999
11
76.0409
21
-87.5
0
LINE
8
Black
10
76.0409
20
-87.5
11
76.4409
21
-87.9
0
LINE
8
Black
10
118.05
20
-83.05
11
118.95
21
-83.95
0
LINE
8
Black
10
118.95
20
-83.05
11
118.05
21
-83.95
0
CIRCLE
8
Black
10
118.5
20
-83.5
40
0.45
0
LINE
8
Black
10
118.05
20
-85.55
11
118.95
21
-86.45
0
LINE
8
Black
10
118.95
20
-85.55
11
118.05
21
-86.45
0
CIRCLE
8
Black
10
118.5
20
-86
40
0.45
0
LINE
8
Black
10
118.05
20
-88.05
11
118.95
21
-88.95
0
LINE
8
Black
10
118.95
20
-88.05
11
118.05
21
-88.95
0
CIRCLE
8
Black
10
118.5
20
-88.5
40
0.45
0
LINE
8
Black
10
118.05
20
-90.55
11
118.95
21
-91.45
0
LINE
8
Black
10
118.95
20
-90.55
11
118.05
21
-91.45
0
CIRCLE
8
Black
10
118.5
20
-91
40
0.45
0
LINE
8
Black
10
78
20
-109
11
79
21
-110
0
LINE
8
Black
10
79
20
-109
11
78
21
-110
0
LINE
8
Black
10
78.5
20
-109
11
78.5
21
-110
0
LINE
8
Black
10
78
20
-109.5
11
79
21
-109.5
0
LINE
8
Black
10
80.5
20
-109
11
81.5
21
-110
0
LINE
8
Black
10
81.5
20
-109
11
80.5
21
-110
0
LINE
8
Black
10
81
20
-109
11
81
21
-110
0
LINE
8
Black
10
80.5
20
-109.5
11
81.5
21
-109.5
0
LINE
8
Black
10
87.88
20
-56
11
88.88
21
-57
0
LINE
8
Black
10
88.88
20
-56
11
87.88
21
-57
0
LINE
8
Black
10
88.38
20
-56
11
88.38
21
-57
0
LINE
8
Black
10
87.88
20
-56.5
11
88.88
21
-56.5
0
LINE
8
Black
10
90.38
20
-56
11
91.38
21
-57
0
LINE
8
Black
10
91.38
20
-56
11
90.38
21
-57
0
LINE
8
Black
10
90.88
20
-56
11
90.88
21
-57
0
LINE
8
Black
10
90.38
20
-56.5
11
91.38
21
-56.5
0
LINE
8
Black
10
98.38
20
-56
11
99.38
21
-57
0
LINE
8
Black
10
99.38
20
-56
11
98.38
21
-57
0
LINE
8
Black
10
98.88
20
-56
11
98.88
21
-57
0
LINE
8
Black
10
98.38
20
-56.5
11
99.38
21
-56.5
0
LINE
8
Black
10
100.88
20
-56
11
101.88
21
-57
0
LINE
8
Black
10
101.88
20
-56
11
100.88
21
-57
0
LINE
8
Black
10
101.38
20
-56
11
101.38
21
-57
0
LINE
8
Black
10
100.88
20
-56.5
11
101.88
21
-56.5
0
LINE
8
Black
10
54.492
20
-74.412
11
55.508
21
-75.428
0
LINE
8
Black
10
55.508
20
-74.412
11
54.492
21
-75.428
0
LINE
8
Black
10
55.3592
20
-75.2792
11
55.3592
21
-74.5608
0
LINE
8
Black
10
55.3592
20
-74.5608
11
54.6408
21
-74.5608
0
LINE
8
Black
10
54.6408
20
-74.5608
11
54.6408
21
-75.2792
0
LINE
8
Black
10
54.6408
20
-75.2792
11
55.3592
21
-75.2792
0
LINE
8
Black
10
54.492
20
-76.952
11
55.508
21
-77.968
0
LINE
8
Black
10
55.508
20
-76.952
11
54.492
21
-77.968
0
LINE
8
Black
10
55.3592
20
-77.8192
11
55.3592
21
-77.1008
0
LINE
8
Black
10
55.3592
20
-77.1008
11
54.6408
21
-77.1008
0
LINE
8
Black
10
54.6408
20
-77.1008
11
54.6408
21
-77.8192
0
LINE
8
Black
10
54.6408
20
-77.8192
11
55.3592
21
-77.8192
0
LINE
8
Black
10
54.492
20
-79.492
11
55.508
21
-80.508
0
LINE
8
Black
10
55.508
20
-79.492
11
54.492
21
-80.508
0
LINE
8
Black
10
55.3592
20
-80.3592
11
55.3592
21
-79.6408
0
LINE
8
Black
10
55.3592
20
-79.6408
11
54.6408
21
-79.6408
0
LINE
8
Black
10
54.6408
20
-79.6408
11
54.6408
21
-80.3592
0
LINE
8
Black
10
54.6408
20
-80.3592
11
55.3592
21
-80.3592
0
LINE
8
Black
10
57.032
20
-74.412
11
58.048
21
-75.428
0
LINE
8
Black
10
58.048
20
-74.412
11
57.032
21
-75.428
0
LINE
8
Black
10
57.8992
20
-75.2792
11
57.8992
21
-74.5608
0
LINE
8
Black
10
57.8992
20
-74.5608
11
57.1808
21
-74.5608
0
LINE
8
Black
10
57.1808
20
-74.5608
11
57.1808
21
-75.2792
0
LINE
8
Black
10
57.1808
20
-75.2792
11
57.8992
21
-75.2792
0
LINE
8
Black
10
57.032
20
-76.952
11
58.048
21
-77.968
0
LINE
8
Black
10
58.048
20
-76.952
11
57.032
21
-77.968
0
LINE
8
Black
10
57.8992
20
-77.8192
11
57.8992
21
-77.1008
0
LINE
8
Black
10
57.8992
20
-77.1008
11
57.1808
21
-77.1008
0
LINE
8
Black
10
57.1808
20
-77.1008
11
57.1808
21
-77.8192
0
LINE
8
Black
10
57.1808
20
-77.8192
11
57.8992
21
-77.8192
0
LINE
8
Black
10
57.032
20
-79.492
11
58.048
21
-80.508
0
LINE
8
Black
10
58.048
20
-79.492
11
57.032
21
-80.508
0
LINE
8
Black
10
57.8992
20
-80.3592
11
57.8992
21
-79.6408
0
LINE
8
Black
10
57.8992
20
-79.6408
11
57.1808
21
-79.6408
0
LINE
8
Black
10
57.1808
20
-79.6408
11
57.1808
21
-80.3592
0
LINE
8
Black
10
57.1808
20
-80.3592
11
57.8992
21
-80.3592
0
LINE
8
Black
10
63.452
20
-109.192
11
64.468
21
-110.208
0
LINE
8
Black
10
64.468
20
-109.192
11
63.452
21
-110.208
0
LINE
8
Black
10
64.3192
20
-110.059
11
64.3192
21
-109.341
0
LINE
8
Black
10
64.3192
20
-109.341
11
63.6008
21
-109.341
0
LINE
8
Black
10
63.6008
20
-109.341
11
63.6008
21
-110.059
0
LINE
8
Black
10
63.6008
20
-110.059
11
64.3192
21
-110.059
0
LINE
8
Black
10
65.992
20
-109.192
11
67.008
21
-110.208
0
LINE
8
Black
10
67.008
20
-109.192
11
65.992
21
-110.208
0
LINE
8
Black
10
66.8592
20
-110.059
11
66.8592
21
-109.341
0
LINE
8
Black
10
66.8592
20
-109.341
11
66.1408
21
-109.341
0
LINE
8
Black
10
66.1408
20
-109.341
11
66.1408
21
-110.059
0
LINE
8
Black
10
66.1408
20
-110.059
11
66.8592
21
-110.059
0
LINE
8
Black
10
68.532
20
-109.192
11
69.548
21
-110.208
0
LINE
8
Black
10
69.548
20
-109.192
11
68.532
21
-110.208
0
LINE
8
Black
10
69.3992
20
-110.059
11
69.3992
21
-109.341
0
LINE
8
Black
10
69.3992
20
-109.341
11
68.6808
21
-109.341
0
LINE
8
Black
10
68.6808
20
-109.341
11
68.6808
21
-110.059
0
LINE
8
Black
10
68.6808
20
-110.059
11
69.3992
21
-110.059
0
LINE
8
Black
10
69.832
20
-55.492
11
70.848
21
-56.508
0
LINE
8
Black
10
70.848
20
-55.492
11
69.832
21
-56.508
0
LINE
8
Black
10
70.6992
20
-56.3592
11
70.6992
21
-55.6408
0
LINE
8
Black
10
70.6992
20
-55.6408
11
69.9808
21
-55.6408
0
LINE
8
Black
10
69.9808
20
-55.6408
11
69.9808
21
-56.3592
0
LINE
8
Black
10
69.9808
20
-56.3592
11
70.6992
21
-56.3592
0
LINE
8
Black
10
72.372
20
-55.492
11
73.388
21
-56.508
0
LINE
8
Black
10
73.388
20
-55.492
11
72.372
21
-56.508
0
LINE
8
Black
10
73.2392
20
-56.3592
11
73.2392
21
-55.6408
0
LINE
8
Black
10
73.2392
20
-55.6408
11
72.5208
21
-55.6408
0
LINE
8
Black
10
72.5208
20
-55.6408
11
72.5208
21
-56.3592
0
LINE
8
Black
10
72.5208
20
-56.3592
11
73.2392
21
-56.3592
0
LINE
8
Black
10
74.912
20
-55.492
11
75.928
21
-56.508
0
LINE
8
Black
10
75.928
20
-55.492
11
74.912
21
-56.508
0
LINE
8
Black
10
75.7792
20
-56.3592
11
75.7792
21
-55.6408
0
LINE
8
Black
10
75.7792
20
-55.6408
11
75.0608
21
-55.6408
0
LINE
8
Black
10
75.0608
20
-55.6408
11
75.0608
21
-56.3592
0
LINE
8
Black
10
75.0608
20
-56.3592
11
75.7792
21
-56.3592
0
LINE
8
Black
10
77.452
20
-55.492
11
78.468
21
-56.508
0
LINE
8
Black
10
78.468
20
-55.492
11
77.452
21
-56.508
0
LINE
8
Black
10
78.3192
20
-56.3592
11
78.3192
21
-55.6408
0
LINE
8
Black
10
78.3192
20
-55.6408
11
77.6008
21
-55.6408
0
LINE
8
Black
10
77.6008
20
-55.6408
11
77.6008
21
-56.3592
0
LINE
8
Black
10
77.6008
20
-56.3592
11
78.3192
21
-56.3592
0
LINE
8
Black
10
117.492
20
-101.912
11
118.508
21
-102.928
0
LINE
8
Black
10
118.508
20
-101.912
11
117.492
21
-102.928
0
LINE
8
Black
10
118.359
20
-102.779
11
118.359
21
-102.061
0
LINE
8
Black
10
118.359
20
-102.061
11
117.641
21
-102.061
0
LINE
8
Black
10
117.641
20
-102.061
11
117.641
21
-102.779
0
LINE
8
Black
10
117.641
20
-102.779
11
118.359
21
-102.779
0
LINE
8
Black
10
117.492
20
-104.452
11
118.508
21
-105.468
0
LINE
8
Black
10
118.508
20
-104.452
11
117.492
21
-105.468
0
LINE
8
Black
10
118.359
20
-105.319
11
118.359
21
-104.601
0
LINE
8
Black
10
118.359
20
-104.601
11
117.641
21
-104.601
0
LINE
8
Black
10
117.641
20
-104.601
11
117.641
21
-105.319
0
LINE
8
Black
10
117.641
20
-105.319
11
118.359
21
-105.319
0
LINE
8
Black
10
117.492
20
-106.992
11
118.508
21
-108.008
0
LINE
8
Black
10
118.508
20
-106.992
11
117.492
21
-108.008
0
LINE
8
Black
10
118.359
20
-107.859
11
118.359
21
-107.141
0
LINE
8
Black
10
118.359
20
-107.141
11
117.641
21
-107.141
0
LINE
8
Black
10
117.641
20
-107.141
11
117.641
21
-107.859
0
LINE
8
Black
10
117.641
20
-107.859
11
118.359
21
-107.859
0
LINE
8
Black
10
117.492
20
-109.532
11
118.508
21
-110.548
0
LINE
8
Black
10
118.508
20
-109.532
11
117.492
21
-110.548
0
LINE
8
Black
10
118.359
20
-110.399
11
118.359
21
-109.681
0
LINE
8
Black
10
118.359
20
-109.681
11
117.641
21
-109.681
0
LINE
8
Black
10
117.641
20
-109.681
11
117.641
21
-110.399
0
LINE
8
Black
10
117.641
20
-110.399
11
118.359
21
-110.399
0
LINE
8
Black
10
120.032
20
-101.912
11
121.048
21
-102.928
0
LINE
8
Black
10
121.048
20
-101.912
11
120.032
21
-102.928
0
LINE
8
Black
10
120.899
20
-102.779
11
120.899
21
-102.061
0
LINE
8
Black
10
120.899
20
-102.061
11
120.181
21
-102.061
0
LINE
8
Black
10
120.181
20
-102.061
11
120.181
21
-102.779
0
LINE
8
Black
10
120.181
20
-102.779
11
120.899
21
-102.779
0
LINE
8
Black
10
120.032
20
-104.452
11
121.048
21
-105.468
0
LINE
8
Black
10
121.048
20
-104.452
11
120.032
21
-105.468
0
LINE
8
Black
10
120.899
20
-105.319
11
120.899
21
-104.601
0
LINE
8
Black
10
120.899
20
-104.601
11
120.181
21
-104.601
0
LINE
8
Black
10
120.181
20
-104.601
11
120.181
21
-105.319
0
LINE
8
Black
10
120.181
20
-105.319
11
120.899
21
-105.319
0
LINE
8
Black
10
120.032
20
-106.992
11
121.048
21
-108.008
0
LINE
8
Black
10
121.048
20
-106.992
11
120.032
21
-108.008
0
LINE
8
Black
10
120.899
20
-107.859
11
120.899
21
-107.141
0
LINE
8
Black
10
120.899
20
-107.141
11
120.181
21
-107.141
0
LINE
8
Black
10
120.181
20
-107.141
11
120.181
21
-107.859
0
LINE
8
Black
10
120.181
20
-107.859
11
120.899
21
-107.859
0
LINE
8
Black
10
120.032
20
-109.532
11
121.048
21
-110.548
0
LINE
8
Black
10
121.048
20
-109.532
11
120.032
21
-110.548
0
LINE
8
Black
10
120.899
20
-110.399
11
120.899
21
-109.681
0
LINE
8
Black
10
120.899
20
-109.681
11
120.181
21
-109.681
0
LINE
8
Black
10
120.181
20
-109.681
11
120.181
21
-110.399
0
LINE
8
Black
10
120.181
20
-110.399
11
120.899
21
-110.399
0
LINE
8
Black
10
91.9
20
-119.6
11
93.1
21
-120.8
0
LINE
8
Black
10
93.1
20
-119.6
11
91.9
21
-120.8
0
LINE
8
Black
10
92.5
20
-120.8
11
93.1
21
-120.2
0
LINE
8
Black
10
93.1
20
-120.2
11
92.5
21
-119.6
0
LINE
8
Black
10
92.5
20
-119.6
11
91.9
21
-120.2
0
LINE
8
Black
10
91.9
20
-120.2
11
92.5
21
-120.8
0
LINE
8
Black
10
96.98
20
-119.6
11
98.18
21
-120.8
0
LINE
8
Black
10
98.18
20
-119.6
11
96.98
21
-120.8
0
LINE
8
Black
10
97.58
20
-120.8
11
98.18
21
-120.2
0
LINE
8
Black
10
98.18
20
-120.2
11
97.58
21
-119.6
0
LINE
8
Black
10
97.58
20
-119.6
11
96.98
21
-120.2
0
LINE
8
Black
10
96.98
20
-120.2
11
97.58
21
-120.8
0
LINE
8
Black
10
102.06
20
-119.6
11
103.26
21
-120.8
0
LINE
8
Black
10
103.26
20
-119.6
11
102.06
21
-120.8
0
LINE
8
Black
10
102.66
20
-120.8
11
103.26
21
-120.2
0
LINE
8
Black
10
103.26
20
-120.2
11
102.66
21
-119.6
0
LINE
8
Black
10
102.66
20
-119.6
11
102.06
21
-120.2
0
LINE
8
Black
10
102.06
20
-120.2
11
102.66
21
-120.8
0
LINE
8
Black
10
107.14
20
-119.6
11
108.34
21
-120.8
0
LINE
8
Black
10
108.34
20
-119.6
11
107.14
21
-120.8
0
LINE
8
Black
10
107.74
20
-120.8
11
108.34
21
-120.2
0
LINE
8
Black
10
108.34
20
-120.2
11
107.74
21
-119.6
0
LINE
8
Black
10
107.74
20
-119.6
11
107.14
21
-120.2
0
LINE
8
Black
10
107.14
20
-120.2
11
107.74
21
-120.8
0
LINE
8
Black
10
52.7893
20
-129.732
11
52.7893
21
-126.732
0
LINE
8
Black
10
52.7893
20
-126.732
11
53.5036
21
-126.732
0
LINE
8
Black
10
53.5036
20
-126.732
11
53.9321
21
-126.875
0
LINE
8
Black
10
53.9321
20
-126.875
11
54.2179
21
-127.161
0
LINE
8
Black
10
54.2179
20
-127.161
11
54.3607
21
-127.446
0
LINE
8
Black
10
54.3607
20
-127.446
11
54.5036
21
-128.018
0
LINE
8
Black
10
54.5036
20
-128.018
11
54.5036
21
-128.446
0
LINE
8
Black
10
54.5036
20
-128.446
11
54.3607
21
-129.018
0
LINE
8
Black
10
54.3607
20
-129.018
11
54.2179
21
-129.304
0
LINE
8
Black
10
54.2179
20
-129.304
11
53.9321
21
-129.589
0
LINE
8
Black
10
53.9321
20
-129.589
11
53.5036
21
-129.732
0
LINE
8
Black
10
53.5036
20
-129.732
11
52.7893
21
-129.732
0
LINE
8
Black
10
55.7893
20
-129.732
11
55.7893
21
-127.732
0
LINE
8
Black
10
55.7893
20
-128.304
11
55.9321
21
-128.018
0
LINE
8
Black
10
55.9321
20
-128.018
11
56.075
21
-127.875
0
LINE
8
Black
10
56.075
20
-127.875
11
56.3607
21
-127.732
0
LINE
8
Black
10
56.3607
20
-127.732
11
56.6464
21
-127.732
0
LINE
8
Black
10
57.6464
20
-129.732
11
57.6464
21
-127.732
0
LINE
8
Black
10
57.6464
20
-126.732
11
57.5036
21
-126.875
0
LINE
8
Black
10
57.5036
20
-126.875
11
57.6464
21
-127.018
0
LINE
8
Black
10
57.6464
20
-127.018
11
57.7893
21
-126.875
0
LINE
8
Black
10
57.7893
20
-126.875
11
57.6464
21
-126.732
0
LINE
8
Black
10
57.6464
20
-126.732
11
57.6464
21
-127.018
0
LINE
8
Black
10
59.5036
20
-129.732
11
59.2179
21
-129.589
0
LINE
8
Black
10
59.2179
20
-129.589
11
59.075
21
-129.304
0
LINE
8
Black
10
59.075
20
-129.304
11
59.075
21
-126.732
0
LINE
8
Black
10
61.075
20
-129.732
11
60.7893
21
-129.589
0
LINE
8
Black
10
60.7893
20
-129.589
11
60.6464
21
-129.304
0
LINE
8
Black
10
60.6464
20
-129.304
11
60.6464
21
-126.732
0
LINE
8
Black
10
64.5036
20
-129.732
11
64.5036
21
-126.732
0
LINE
8
Black
10
64.5036
20
-126.732
11
65.5036
21
-128.875
0
LINE
8
Black
10
65.5036
20
-128.875
11
66.5036
21
-126.732
0
LINE
8
Black
10
66.5036
20
-126.732
11
66.5036
21
-129.732
0
LINE
8
Black
10
69.2179
20
-129.732
11
69.2179
21
-128.161
0
LINE
8
Black
10
69.2179
20
-128.161
11
69.075
21
-127.875
0
LINE
8
Black
10
69.075
20
-127.875
11
68.7893
21
-127.732
0
LINE
8
Black
10
68.7893
20
-127.732
11
68.2179
21
-127.732
0
LINE
8
Black
10
68.2179
20
-127.732
11
67.9321
21
-127.875
0
LINE
8
Black
10
69.2179
20
-129.589
11
68.9321
21
-129.732
0
LINE
8
Black
10
68.9321
20
-129.732
11
68.2179
21
-129.732
0
LINE
8
Black
10
68.2179
20
-129.732
11
67.9321
21
-129.589
0
LINE
8
Black
10
67.9321
20
-129.589
11
67.7893
21
-129.304
0
LINE
8
Black
10
67.7893
20
-129.304
11
67.7893
21
-129.018
0
LINE
8
Black
10
67.7893
20
-129.018
11
67.9321
21
-128.732
0
LINE
8
Black
10
67.9321
20
-128.732
11
68.2179
21
-128.589
0
LINE
8
Black
10
68.2179
20
-128.589
11
68.9321
21
-128.589
0
LINE
8
Black
10
68.9321
20
-128.589
11
69.2179
21
-128.446
0
LINE
8
Black
10
70.6464
20
-127.732
11
70.6464
21
-130.732
0
LINE
8
Black
10
70.6464
20
-127.875
11
70.9321
21
-127.732
0
LINE
8
Black
10
70.9321
20
-127.732
11
71.5036
21
-127.732
0
LINE
8
Black
10
71.5036
20
-127.732
11
71.7893
21
-127.875
0
LINE
8
Black
10
71.7893
20
-127.875
11
71.9321
21
-128.018
0
LINE
8
Black
10
71.9321
20
-128.018
11
72.075
21
-128.304
0
LINE
8
Black
10
72.075
20
-128.304
11
72.075
21
-129.161
0
LINE
8
Black
10
72.075
20
-129.161
11
71.9321
21
-129.446
0
LINE
8
Black
10
71.9321
20
-129.446
11
71.7893
21
-129.589
0
LINE
8
Black
10
71.7893
20
-129.589
11
71.5036
21
-129.732
0
LINE
8
Black
10
71.5036
20
-129.732
11
70.9321
21
-129.732
0
LINE
8
Black
10
70.9321
20
-129.732
11
70.6464
21
-129.589
0
LINE
8
Black
10
73.3607
20
-129.446
11
73.5036
21
-129.589
0
LINE
8
Black
10
73.5036
20
-129.589
11
73.3607
21
-129.732
0
LINE
8
Black
10
73.3607
20
-129.732
11
73.2179
21
-129.589
0
LINE
8
Black
10
73.2179
20
-129.589
11
73.3607
21
-129.446
0
LINE
8
Black
10
73.3607
20
-129.446
11
73.3607
21
-129.732
0
LINE
8
Black
10
73.3607
20
-127.875
11
73.5036
21
-128.018
0
LINE
8
Black
10
73.5036
20
-128.018
11
73.3607
21
-128.161
0
LINE
8
Black
10
73.3607
20
-128.161
11
73.2179
21
-128.018
0
LINE
8
Black
10
73.2179
20
-128.018
11
73.3607
21
-127.875
0
LINE
8
Black
10
73.3607
20
-127.875
11
73.3607
21
-128.161
0
LINE
8
Black
10
49.525
20
-134.475
11
49.925
21
-134.875
0
LINE
8
Black
10
49.925
20
-134.475
11
49.525
21
-134.875
0
LINE
8
Black
10
53.3607
20
-133.032
11
53.6464
21
-133.032
0
LINE
8
Black
10
53.6464
20
-133.032
11
53.9321
21
-133.175
0
LINE
8
Black
10
53.9321
20
-133.175
11
54.075
21
-133.318
0
LINE
8
Black
10
54.075
20
-133.318
11
54.2179
21
-133.604
0
LINE
8
Black
10
54.2179
20
-133.604
11
54.3607
21
-134.175
0
LINE
8
Black
10
54.3607
20
-134.175
11
54.3607
21
-134.889
0
LINE
8
Black
10
54.3607
20
-134.889
11
54.2179
21
-135.461
0
LINE
8
Black
10
54.2179
20
-135.461
11
54.075
21
-135.746
0
LINE
8
Black
10
54.075
20
-135.746
11
53.9321
21
-135.889
0
LINE
8
Black
10
53.9321
20
-135.889
11
53.6464
21
-136.032
0
LINE
8
Black
10
53.6464
20
-136.032
11
53.3607
21
-136.032
0
LINE
8
Black
10
53.3607
20
-136.032
11
53.075
21
-135.889
0
LINE
8
Black
10
53.075
20
-135.889
11
52.9321
21
-135.746
0
LINE
8
Black
10
52.9321
20
-135.746
11
52.7893
21
-135.461
0
LINE
8
Black
10
52.7893
20
-135.461
11
52.6464
21
-134.889
0
LINE
8
Black
10
52.6464
20
-134.889
11
52.6464
21
-134.175
0
LINE
8
Black
10
52.6464
20
-134.175
11
52.7893
21
-133.604
0
LINE
8
Black
10
52.7893
20
-133.604
11
52.9321
21
-133.318
0
LINE
8
Black
10
52.9321
20
-133.318
11
53.075
21
-133.175
0
LINE
8
Black
10
53.075
20
-133.175
11
53.3607
21
-133.032
0
LINE
8
Black
10
55.6464
20
-135.746
11
55.7893
21
-135.889
0
LINE
8
Black
10
55.7893
20
-135.889
11
55.6464
21
-136.032
0
LINE
8
Black
10
55.6464
20
-136.032
11
55.5036
21
-135.889
0
LINE
8
Black
10
55.5036
20
-135.889
11
55.6464
21
-135.746
0
LINE
8
Black
10
55.6464
20
-135.746
11
55.6464
21
-136.032
0
LINE
8
Black
10
58.3607
20
-134.032
11
58.3607
21
-136.032
0
LINE
8
Black
10
57.6464
20
-132.889
11
56.9321
21
-135.032
0
LINE
8
Black
10
56.9321
20
-135.032
11
58.7893
21
-135.032
0
LINE
8
Black
10
60.5036
20
-133.032
11
60.7893
21
-133.032
0
LINE
8
Black
10
60.7893
20
-133.032
11
61.075
21
-133.175
0
LINE
8
Black
10
61.075
20
-133.175
11
61.2179
21
-133.318
0
LINE
8
Black
10
61.2179
20
-133.318
11
61.3607
21
-133.604
0
LINE
8
Black
10
61.3607
20
-133.604
11
61.5036
21
-134.175
0
LINE
8
Black
10
61.5036
20
-134.175
11
61.5036
21
-134.889
0
LINE
8
Black
10
61.5036
20
-134.889
11
61.3607
21
-135.461
0
LINE
8
Black
10
61.3607
20
-135.461
11
61.2179
21
-135.746
0
LINE
8
Black
10
61.2179
20
-135.746
11
61.075
21
-135.889
0
LINE
8
Black
10
61.075
20
-135.889
11
60.7893
21
-136.032
0
LINE
8
Black
10
60.7893
20
-136.032
11
60.5036
21
-136.032
0
LINE
8
Black
10
60.5036
20
-136.032
11
60.2179
21
-135.889
0
LINE
8
Black
10
60.2179
20
-135.889
11
60.075
21
-135.746
0
LINE
8
Black
10
60.075
20
-135.746
11
59.9321
21
-135.461
0
LINE
8
Black
10
59.9321
20
-135.461
11
59.7893
21
-134.889
0
LINE
8
Black
10
59.7893
20
-134.889
11
59.7893
21
-134.175
0
LINE
8
Black
10
59.7893
20
-134.175
11
59.9321
21
-133.604
0
LINE
8
Black
10
59.9321
20
-133.604
11
60.075
21
-133.318
0
LINE
8
Black
10
60.075
20
-133.318
11
60.2179
21
-133.175
0
LINE
8
Black
10
60.2179
20
-133.175
11
60.5036
21
-133.032
0
LINE
8
Black
10
62.7893
20
-136.032
11
62.7893
21
-134.032
0
LINE
8
Black
10
62.7893
20
-134.318
11
62.9321
21
-134.175
0
LINE
8
Black
10
62.9321
20
-134.175
11
63.2179
21
-134.032
0
LINE
8
Black
10
63.2179
20
-134.032
11
63.6464
21
-134.032
0
LINE
8
Black
10
63.6464
20
-134.032
11
63.9321
21
-134.175
0
LINE
8
Black
10
63.9321
20
-134.175
11
64.075
21
-134.461
0
LINE
8
Black
10
64.075
20
-134.461
11
64.075
21
-136.032
0
LINE
8
Black
10
64.075
20
-134.461
11
64.2179
21
-134.175
0
LINE
8
Black
10
64.2179
20
-134.175
11
64.5036
21
-134.032
0
LINE
8
Black
10
64.5036
20
-134.032
11
64.9321
21
-134.032
0
LINE
8
Black
10
64.9321
20
-134.032
11
65.2179
21
-134.175
0
LINE
8
Black
10
65.2179
20
-134.175
11
65.3607
21
-134.461
0
LINE
8
Black
10
65.3607
20
-134.461
11
65.3607
21
-136.032
0
LINE
8
Black
10
66.7893
20
-136.032
11
66.7893
21
-134.032
0
LINE
8
Black
10
66.7893
20
-134.318
11
66.9321
21
-134.175
0
LINE
8
Black
10
66.9321
20
-134.175
11
67.2179
21
-134.032
0
LINE
8
Black
10
67.2179
20
-134.032
11
67.6464
21
-134.032
0
LINE
8
Black
10
67.6464
20
-134.032
11
67.9321
21
-134.175
0
LINE
8
Black
10
67.9321
20
-134.175
11
68.075
21
-134.461
0
LINE
8
Black
10
68.075
20
-134.461
11
68.075
21
-136.032
0
LINE
8
Black
10
68.075
20
-134.461
11
68.2179
21
-134.175
0
LINE
8
Black
10
68.2179
20
-134.175
11
68.5036
21
-134.032
0
LINE
8
Black
10
68.5036
20
-134.032
11
68.9321
21
-134.032
0
LINE
8
Black
10
68.9321
20
-134.032
11
69.2179
21
-134.175
0
LINE
8
Black
10
69.2179
20
-134.175
11
69.3607
21
-134.461
0
LINE
8
Black
10
69.3607
20
-134.461
11
69.3607
21
-136.032
0
LINE
8
Black
10
75.2179
20
-132.889
11
72.6464
21
-136.746
0
LINE
8
Black
10
79.075
20
-133.032
11
79.3607
21
-133.032
0
LINE
8
Black
10
79.3607
20
-133.032
11
79.6464
21
-133.175
0
LINE
8
Black
10
79.6464
20
-133.175
11
79.7893
21
-133.318
0
LINE
8
Black
10
79.7893
20
-133.318
11
79.9321
21
-133.604
0
LINE
8
Black
10
79.9321
20
-133.604
11
80.075
21
-134.175
0
LINE
8
Black
10
80.075
20
-134.175
11
80.075
21
-134.889
0
LINE
8
Black
10
80.075
20
-134.889
11
79.9321
21
-135.461
0
LINE
8
Black
10
79.9321
20
-135.461
11
79.7893
21
-135.746
0
LINE
8
Black
10
79.7893
20
-135.746
11
79.6464
21
-135.889
0
LINE
8
Black
10
79.6464
20
-135.889
11
79.3607
21
-136.032
0
LINE
8
Black
10
79.3607
20
-136.032
11
79.075
21
-136.032
0
LINE
8
Black
10
79.075
20
-136.032
11
78.7893
21
-135.889
0
LINE
8
Black
10
78.7893
20
-135.889
11
78.6464
21
-135.746
0
LINE
8
Black
10
78.6464
20
-135.746
11
78.5036
21
-135.461
0
LINE
8
Black
10
78.5036
20
-135.461
11
78.3607
21
-134.889
0
LINE
8
Black
10
78.3607
20
-134.889
11
78.3607
21
-134.175
0
LINE
8
Black
10
78.3607
20
-134.175
11
78.5036
21
-133.604
0
LINE
8
Black
10
78.5036
20
-133.604
11
78.6464
21
-133.318
0
LINE
8
Black
10
78.6464
20
-133.318
11
78.7893
21
-133.175
0
LINE
8
Black
10
78.7893
20
-133.175
11
79.075
21
-133.032
0
LINE
8
Black
10
81.3607
20
-135.746
11
81.5036
21
-135.889
0
LINE
8
Black
10
81.5036
20
-135.889
11
81.3607
21
-136.032
0
LINE
8
Black
10
81.3607
20
-136.032
11
81.2179
21
-135.889
0
LINE
8
Black
10
81.2179
20
-135.889
11
81.3607
21
-135.746
0
LINE
8
Black
10
81.3607
20
-135.746
11
81.3607
21
-136.032
0
LINE
8
Black
10
83.3607
20
-133.032
11
83.6464
21
-133.032
0
LINE
8
Black
10
83.6464
20
-133.032
11
83.9321
21
-133.175
0
LINE
8
Black
10
83.9321
20
-133.175
11
84.075
21
-133.318
0
LINE
8
Black
10
84.075
20
-133.318
11
84.2179
21
-133.604
0
LINE
8
Black
10
84.2179
20
-133.604
11
84.3607
21
-134.175
0
LINE
8
Black
10
84.3607
20
-134.175
11
84.3607
21
-134.889
0
LINE
8
Black
10
84.3607
20
-134.889
11
84.2179
21
-135.461
0
LINE
8
Black
10
84.2179
20
-135.461
11
84.075
21
-135.746
0
LINE
8
Black
10
84.075
20
-135.746
11
83.9321
21
-135.889
0
LINE
8
Black
10
83.9321
20
-135.889
11
83.6464
21
-136.032
0
LINE
8
Black
10
83.6464
20
-136.032
11
83.3607
21
-136.032
0
LINE
8
Black
10
83.3607
20
-136.032
11
83.075
21
-135.889
0
LINE
8
Black
10
83.075
20
-135.889
11
82.9321
21
-135.746
0
LINE
8
Black
10
82.9321
20
-135.746
11
82.7893
21
-135.461
0
LINE
8
Black
10
82.7893
20
-135.461
11
82.6464
21
-134.889
0
LINE
8
Black
10
82.6464
20
-134.889
11
82.6464
21
-134.175
0
LINE
8
Black
10
82.6464
20
-134.175
11
82.7893
21
-133.604
0
LINE
8
Black
10
82.7893
20
-133.604
11
82.9321
21
-133.318
0
LINE
8
Black
10
82.9321
20
-133.318
11
83.075
21
-133.175
0
LINE
8
Black
10
83.075
20
-133.175
11
83.3607
21
-133.032
0
LINE
8
Black
10
87.2179
20
-136.032
11
85.5036
21
-136.032
0
LINE
8
Black
10
86.3607
20
-136.032
11
86.3607
21
-133.032
0
LINE
8
Black
10
86.3607
20
-133.032
11
86.075
21
-133.461
0
LINE
8
Black
10
86.075
20
-133.461
11
85.7893
21
-133.746
0
LINE
8
Black
10
85.7893
20
-133.746
11
85.5036
21
-133.889
0
LINE
8
Black
10
89.7893
20
-133.032
11
89.2179
21
-133.032
0
LINE
8
Black
10
89.2179
20
-133.032
11
88.9321
21
-133.175
0
LINE
8
Black
10
88.9321
20
-133.175
11
88.7893
21
-133.318
0
LINE
8
Black
10
88.7893
20
-133.318
11
88.5036
21
-133.746
0
LINE
8
Black
10
88.5036
20
-133.746
11
88.3607
21
-134.318
0
LINE
8
Black
10
88.3607
20
-134.318
11
88.3607
21
-135.461
0
LINE
8
Black
10
88.3607
20
-135.461
11
88.5036
21
-135.746
0
LINE
8
Black
10
88.5036
20
-135.746
11
88.6464
21
-135.889
0
LINE
8
Black
10
88.6464
20
-135.889
11
88.9321
21
-136.032
0
LINE
8
Black
10
88.9321
20
-136.032
11
89.5036
21
-136.032
0
LINE
8
Black
10
89.5036
20
-136.032
11
89.7893
21
-135.889
0
LINE
8
Black
10
89.7893
20
-135.889
11
89.9321
21
-135.746
0
LINE
8
Black
10
89.9321
20
-135.746
11
90.075
21
-135.461
0
LINE
8
Black
10
90.075
20
-135.461
11
90.075
21
-134.746
0
LINE
8
Black
10
90.075
20
-134.746
11
89.9321
21
-134.461
0
LINE
8
Black
10
89.9321
20
-134.461
11
89.7893
21
-134.318
0
LINE
8
Black
10
89.7893
20
-134.318
11
89.5036
21
-134.175
0
LINE
8
Black
10
89.5036
20
-134.175
11
88.9321
21
-134.175
0
LINE
8
Black
10
88.9321
20
-134.175
11
88.6464
21
-134.318
0
LINE
8
Black
10
88.6464
20
-134.318
11
88.5036
21
-134.461
0
LINE
8
Black
10
88.5036
20
-134.461
11
88.3607
21
-134.746
0
LINE
8
Black
10
91.2179
20
-133.032
11
91.2179
21
-133.604
0
LINE
8
Black
10
92.3607
20
-133.032
11
92.3607
21
-133.604
0
LINE
8
Black
10
96.7893
20
-137.175
11
96.6464
21
-137.032
0
LINE
8
Black
10
96.6464
20
-137.032
11
96.3607
21
-136.604
0
LINE
8
Black
10
96.3607
20
-136.604
11
96.2179
21
-136.318
0
LINE
8
Black
10
96.2179
20
-136.318
11
96.075
21
-135.889
0
LINE
8
Black
10
96.075
20
-135.889
11
95.9321
21
-135.175
0
LINE
8
Black
10
95.9321
20
-135.175
11
95.9321
21
-134.604
0
LINE
8
Black
10
95.9321
20
-134.604
11
96.075
21
-133.889
0
LINE
8
Black
10
96.075
20
-133.889
11
96.2179
21
-133.461
0
LINE
8
Black
10
96.2179
20
-133.461
11
96.3607
21
-133.175
0
LINE
8
Black
10
96.3607
20
-133.175
11
96.6464
21
-132.746
0
LINE
8
Black
10
96.6464
20
-132.746
11
96.7893
21
-132.604
0
LINE
8
Black
10
99.2179
20
-134.032
11
99.2179
21
-136.032
0
LINE
8
Black
10
98.5036
20
-132.889
11
97.7893
21
-135.032
0
LINE
8
Black
10
97.7893
20
-135.032
11
99.6464
21
-135.032
0
LINE
8
Black
10
102.075
20
-134.032
11
102.075
21
-136.032
0
LINE
8
Black
10
101.361
20
-132.889
11
100.646
21
-135.032
0
LINE
8
Black
10
100.646
20
-135.032
11
102.504
21
-135.032
0
LINE
8
Black
10
105.932
20
-136.032
11
105.932
21
-133.032
0
LINE
8
Black
10
107.218
20
-136.032
11
107.218
21
-134.461
0
LINE
8
Black
10
107.218
20
-134.461
11
107.075
21
-134.175
0
LINE
8
Black
10
107.075
20
-134.175
11
106.789
21
-134.032
0
LINE
8
Black
10
106.789
20
-134.032
11
106.361
21
-134.032
0
LINE
8
Black
10
106.361
20
-134.032
11
106.075
21
-134.175
0
LINE
8
Black
10
106.075
20
-134.175
11
105.932
21
-134.318
0
LINE
8
Black
10
109.075
20
-136.032
11
108.789
21
-135.889
0
LINE
8
Black
10
108.789
20
-135.889
11
108.646
21
-135.746
0
LINE
8
Black
10
108.646
20
-135.746
11
108.504
21
-135.461
0
LINE
8
Black
10
108.504
20
-135.461
11
108.504
21
-134.604
0
LINE
8
Black
10
108.504
20
-134.604
11
108.646
21
-134.318
0
LINE
8
Black
10
108.646
20
-134.318
11
108.789
21
-134.175
0
LINE
8
Black
10
108.789
20
-134.175
11
109.075
21
-134.032
0
LINE
8
Black
10
109.075
20
-134.032
11
109.504
21
-134.032
0
LINE
8
Black
10
109.504
20
-134.032
11
109.789
21
-134.175
0
LINE
8
Black
10
109.789
20
-134.175
11
109.932
21
-134.318
0
LINE
8
Black
10
109.932
20
-134.318
11
110.075
21
-134.604
0
LINE
8
Black
10
110.075
20
-134.604
11
110.075
21
-135.461
0
LINE
8
Black
10
110.075
20
-135.461
11
109.932
21
-135.746
0
LINE
8
Black
10
109.932
20
-135.746
11
109.789
21
-135.889
0
LINE
8
Black
10
109.789
20
-135.889
11
109.504
21
-136.032
0
LINE
8
Black
10
109.504
20
-136.032
11
109.075
21
-136.032
0
LINE
8
Black
10
111.789
20
-136.032
11
111.504
21
-135.889
0
LINE
8
Black
10
111.504
20
-135.889
11
111.361
21
-135.604
0
LINE
8
Black
10
111.361
20
-135.604
11
111.361
21
-133.032
0
LINE
8
Black
10
114.075
20
-135.889
11
113.789
21
-136.032
0
LINE
8
Black
10
113.789
20
-136.032
11
113.218
21
-136.032
0
LINE
8
Black
10
113.218
20
-136.032
11
112.932
21
-135.889
0
LINE
8
Black
10
112.932
20
-135.889
11
112.789
21
-135.604
0
LINE
8
Black
10
112.789
20
-135.604
11
112.789
21
-134.461
0
LINE
8
Black
10
112.789
20
-134.461
11
112.932
21
-134.175
0
LINE
8
Black
10
112.932
20
-134.175
11
113.218
21
-134.032
0
LINE
8
Black
10
113.218
20
-134.032
11
113.789
21
-134.032
0
LINE
8
Black
10
113.789
20
-134.032
11
114.075
21
-134.175
0
LINE
8
Black
10
114.075
20
-134.175
11
114.218
21
-134.461
0
LINE
8
Black
10
114.218
20
-134.461
11
114.218
21
-134.746
0
LINE
8
Black
10
114.218
20
-134.746
11
112.789
21
-135.032
0
LINE
8
Black
10
115.361
20
-135.889
11
115.646
21
-136.032
0
LINE
8
Black
10
115.646
20
-136.032
11
116.218
21
-136.032
0
LINE
8
Black
10
116.218
20
-136.032
11
116.504
21
-135.889
0
LINE
8
Black
10
116.504
20
-135.889
11
116.646
21
-135.604
0
LINE
8
Black
10
116.646
20
-135.604
11
116.646
21
-135.461
0
LINE
8
Black
10
116.646
20
-135.461
11
116.504
21
-135.175
0
LINE
8
Black
10
116.504
20
-135.175
11
116.218
21
-135.032
0
LINE
8
Black
10
116.218
20
-135.032
11
115.789
21
-135.032
0
LINE
8
Black
10
115.789
20
-135.032
11
115.504
21
-134.889
0
LINE
8
Black
10
115.504
20
-134.889
11
115.361
21
-134.604
0
LINE
8
Black
10
115.361
20
-134.604
11
115.361
21
-134.461
0
LINE
8
Black
10
115.361
20
-134.461
11
115.504
21
-134.175
0
LINE
8
Black
10
115.504
20
-134.175
11
115.789
21
-134.032
0
LINE
8
Black
10
115.789
20
-134.032
11
116.218
21
-134.032
0
LINE
8
Black
10
116.218
20
-134.032
11
116.504
21
-134.175
0
LINE
8
Black
10
117.646
20
-137.175
11
117.789
21
-137.032
0
LINE
8
Black
10
117.789
20
-137.032
11
118.075
21
-136.604
0
LINE
8
Black
10
118.075
20
-136.604
11
118.218
21
-136.318
0
LINE
8
Black
10
118.218
20
-136.318
11
118.361
21
-135.889
0
LINE
8
Black
10
118.361
20
-135.889
11
118.504
21
-135.175
0
LINE
8
Black
10
118.504
20
-135.175
11
118.504
21
-134.604
0
LINE
8
Black
10
118.504
20
-134.604
11
118.361
21
-133.889
0
LINE
8
Black
10
118.361
20
-133.889
11
118.218
21
-133.461
0
LINE
8
Black
10
118.218
20
-133.461
11
118.075
21
-133.175
0
LINE
8
Black
10
118.075
20
-133.175
11
117.789
21
-132.746
0
LINE
8
Black
10
117.789
20
-132.746
11
117.646
21
-132.604
0
CIRCLE
8
Black
10
49.5762
20
-138.635
40
0.34878
0
LINE
8
Black
10
53.3607
20
-136.992
11
53.6464
21
-136.992
0
LINE
8
Black
10
53.6464
20
-136.992
11
53.9321
21
-137.135
0
LINE
8
Black
10
53.9321
20
-137.135
11
54.075
21
-137.278
0
LINE
8
Black
10
54.075
20
-137.278
11
54.2179
21
-137.564
0
LINE
8
Black
10
54.2179
20
-137.564
11
54.3607
21
-138.135
0
LINE
8
Black
10
54.3607
20
-138.135
11
54.3607
21
-138.849
0
LINE
8
Black
10
54.3607
20
-138.849
11
54.2179
21
-139.421
0
LINE
8
Black
10
54.2179
20
-139.421
11
54.075
21
-139.706
0
LINE
8
Black
10
54.075
20
-139.706
11
53.9321
21
-139.849
0
LINE
8
Black
10
53.9321
20
-139.849
11
53.6464
21
-139.992
0
LINE
8
Black
10
53.6464
20
-139.992
11
53.3607
21
-139.992
0
LINE
8
Black
10
53.3607
20
-139.992
11
53.075
21
-139.849
0
LINE
8
Black
10
53.075
20
-139.849
11
52.9321
21
-139.706
0
LINE
8
Black
10
52.9321
20
-139.706
11
52.7893
21
-139.421
0
LINE
8
Black
10
52.7893
20
-139.421
11
52.6464
21
-138.849
0
LINE
8
Black
10
52.6464
20
-138.849
11
52.6464
21
-138.135
0
LINE
8
Black
10
52.6464
20
-138.135
11
52.7893
21
-137.564
0
LINE
8
Black
10
52.7893
20
-137.564
11
52.9321
21
-137.278
0
LINE
8
Black
10
52.9321
20
-137.278
11
53.075
21
-137.135
0
LINE
8
Black
10
53.075
20
-137.135
11
53.3607
21
-136.992
0
LINE
8
Black
10
55.6464
20
-139.706
11
55.7893
21
-139.849
0
LINE
8
Black
10
55.7893
20
-139.849
11
55.6464
21
-139.992
0
LINE
8
Black
10
55.6464
20
-139.992
11
55.5036
21
-139.849
0
LINE
8
Black
10
55.5036
20
-139.849
11
55.6464
21
-139.706
0
LINE
8
Black
10
55.6464
20
-139.706
11
55.6464
21
-139.992
0
LINE
8
Black
10
56.7893
20
-136.992
11
58.7893
21
-136.992
0
LINE
8
Black
10
58.7893
20
-136.992
11
57.5036
21
-139.992
0
LINE
8
Black
10
60.5036
20
-136.992
11
60.7893
21
-136.992
0
LINE
8
Black
10
60.7893
20
-136.992
11
61.075
21
-137.135
0
LINE
8
Black
10
61.075
20
-137.135
11
61.2179
21
-137.278
0
LINE
8
Black
10
61.2179
20
-137.278
11
61.3607
21
-137.564
0
LINE
8
Black
10
61.3607
20
-137.564
11
61.5036
21
-138.135
0
LINE
8
Black
10
61.5036
20
-138.135
11
61.5036
21
-138.849
0
LINE
8
Black
10
61.5036
20
-138.849
11
61.3607
21
-139.421
0
LINE
8
Black
10
61.3607
20
-139.421
11
61.2179
21
-139.706
0
LINE
8
Black
10
61.2179
20
-139.706
11
61.075
21
-139.849
0
LINE
8
Black
10
61.075
20
-139.849
11
60.7893
21
-139.992
0
LINE
8
Black
10
60.7893
20
-139.992
11
60.5036
21
-139.992
0
LINE
8
Black
10
60.5036
20
-139.992
11
60.2179
21
-139.849
0
LINE
8
Black
10
60.2179
20
-139.849
11
60.075
21
-139.706
0
LINE
8
Black
10
60.075
20
-139.706
11
59.9321
21
-139.421
0
LINE
8
Black
10
59.9321
20
-139.421
11
59.7893
21
-138.849
0
LINE
8
Black
10
59.7893
20
-138.849
11
59.7893
21
-138.135
0
LINE
8
Black
10
59.7893
20
-138.135
11
59.9321
21
-137.564
0
LINE
8
Black
10
59.9321
20
-137.564
11
60.075
21
-137.278
0
LINE
8
Black
10
60.075
20
-137.278
11
60.2179
21
-137.135
0
LINE
8
Black
10
60.2179
20
-137.135
11
60.5036
21
-136.992
0
LINE
8
Black
10
62.7893
20
-139.992
11
62.7893
21
-137.992
0
LINE
8
Black
10
62.7893
20
-138.278
11
62.9321
21
-138.135
0
LINE
8
Black
10
62.9321
20
-138.135
11
63.2179
21
-137.992
0
LINE
8
Black
10
63.2179
20
-137.992
11
63.6464
21
-137.992
0
LINE
8
Black
10
63.6464
20
-137.992
11
63.9321
21
-138.135
0
LINE
8
Black
10
63.9321
20
-138.135
11
64.075
21
-138.421
0
LINE
8
Black
10
64.075
20
-138.421
11
64.075
21
-139.992
0
LINE
8
Black
10
64.075
20
-138.421
11
64.2179
21
-138.135
0
LINE
8
Black
10
64.2179
20
-138.135
11
64.5036
21
-137.992
0
LINE
8
Black
10
64.5036
20
-137.992
11
64.9321
21
-137.992
0
LINE
8
Black
10
64.9321
20
-137.992
11
65.2179
21
-138.135
0
LINE
8
Black
10
65.2179
20
-138.135
11
65.3607
21
-138.421
0
LINE
8
Black
10
65.3607
20
-138.421
11
65.3607
21
-139.992
0
LINE
8
Black
10
66.7893
20
-139.992
11
66.7893
21
-137.992
0
LINE
8
Black
10
66.7893
20
-138.278
11
66.9321
21
-138.135
0
LINE
8
Black
10
66.9321
20
-138.135
11
67.2179
21
-137.992
0
LINE
8
Black
10
67.2179
20
-137.992
11
67.6464
21
-137.992
0
LINE
8
Black
10
67.6464
20
-137.992
11
67.9321
21
-138.135
0
LINE
8
Black
10
67.9321
20
-138.135
11
68.075
21
-138.421
0
LINE
8
Black
10
68.075
20
-138.421
11
68.075
21
-139.992
0
LINE
8
Black
10
68.075
20
-138.421
11
68.2179
21
-138.135
0
LINE
8
Black
10
68.2179
20
-138.135
11
68.5036
21
-137.992
0
LINE
8
Black
10
68.5036
20
-137.992
11
68.9321
21
-137.992
0
LINE
8
Black
10
68.9321
20
-137.992
11
69.2179
21
-138.135
0
LINE
8
Black
10
69.2179
20
-138.135
11
69.3607
21
-138.421
0
LINE
8
Black
10
69.3607
20
-138.421
11
69.3607
21
-139.992
0
LINE
8
Black
10
75.2179
20
-136.849
11
72.6464
21
-140.706
0
LINE
8
Black
10
79.075
20
-136.992
11
79.3607
21
-136.992
0
LINE
8
Black
10
79.3607
20
-136.992
11
79.6464
21
-137.135
0
LINE
8
Black
10
79.6464
20
-137.135
11
79.7893
21
-137.278
0
LINE
8
Black
10
79.7893
20
-137.278
11
79.9321
21
-137.564
0
LINE
8
Black
10
79.9321
20
-137.564
11
80.075
21
-138.135
0
LINE
8
Black
10
80.075
20
-138.135
11
80.075
21
-138.849
0
LINE
8
Black
10
80.075
20
-138.849
11
79.9321
21
-139.421
0
LINE
8
Black
10
79.9321
20
-139.421
11
79.7893
21
-139.706
0
LINE
8
Black
10
79.7893
20
-139.706
11
79.6464
21
-139.849
0
LINE
8
Black
10
79.6464
20
-139.849
11
79.3607
21
-139.992
0
LINE
8
Black
10
79.3607
20
-139.992
11
79.075
21
-139.992
0
LINE
8
Black
10
79.075
20
-139.992
11
78.7893
21
-139.849
0
LINE
8
Black
10
78.7893
20
-139.849
11
78.6464
21
-139.706
0
LINE
8
Black
10
78.6464
20
-139.706
11
78.5036
21
-139.421
0
LINE
8
Black
10
78.5036
20
-139.421
11
78.3607
21
-138.849
0
LINE
8
Black
10
78.3607
20
-138.849
11
78.3607
21
-138.135
0
LINE
8
Black
10
78.3607
20
-138.135
11
78.5036
21
-137.564
0
LINE
8
Black
10
78.5036
20
-137.564
11
78.6464
21
-137.278
0
LINE
8
Black
10
78.6464
20
-137.278
11
78.7893
21
-137.135
0
LINE
8
Black
10
78.7893
20
-137.135
11
79.075
21
-136.992
0
LINE
8
Black
10
81.3607
20
-139.706
11
81.5036
21
-139.849
0
LINE
8
Black
10
81.5036
20
-139.849
11
81.3607
21
-139.992
0
LINE
8
Black
10
81.3607
20
-139.992
11
81.2179
21
-139.849
0
LINE
8
Black
10
81.2179
20
-139.849
11
81.3607
21
-139.706
0
LINE
8
Black
10
81.3607
20
-139.706
11
81.3607
21
-139.992
0
LINE
8
Black
10
83.3607
20
-136.992
11
83.6464
21
-136.992
0
LINE
8
Black
10
83.6464
20
-136.992
11
83.9321
21
-137.135
0
LINE
8
Black
10
83.9321
20
-137.135
11
84.075
21
-137.278
0
LINE
8
Black
10
84.075
20
-137.278
11
84.2179
21
-137.564
0
LINE
8
Black
10
84.2179
20
-137.564
11
84.3607
21
-138.135
0
LINE
8
Black
10
84.3607
20
-138.135
11
84.3607
21
-138.849
0
LINE
8
Black
10
84.3607
20
-138.849
11
84.2179
21
-139.421
0
LINE
8
Black
10
84.2179
20
-139.421
11
84.075
21
-139.706
0
LINE
8
Black
10
84.075
20
-139.706
11
83.9321
21
-139.849
0
LINE
8
Black
10
83.9321
20
-139.849
11
83.6464
21
-139.992
0
LINE
8
Black
10
83.6464
20
-139.992
11
83.3607
21
-139.992
0
LINE
8
Black
10
83.3607
20
-139.992
11
83.075
21
-139.849
0
LINE
8
Black
10
83.075
20
-139.849
11
82.9321
21
-139.706
0
LINE
8
Black
10
82.9321
20
-139.706
11
82.7893
21
-139.421
0
LINE
8
Black
10
82.7893
20
-139.421
11
82.6464
21
-138.849
0
LINE
8
Black
10
82.6464
20
-138.849
11
82.6464
21
-138.135
0
LINE
8
Black
10
82.6464
20
-138.135
11
82.7893
21
-137.564
0
LINE
8
Black
10
82.7893
20
-137.564
11
82.9321
21
-137.278
0
LINE
8
Black
10
82.9321
20
-137.278
11
83.075
21
-137.135
0
LINE
8
Black
10
83.075
20
-137.135
11
83.3607
21
-136.992
0
LINE
8
Black
10
85.5036
20
-137.278
11
85.6464
21
-137.135
0
LINE
8
Black
10
85.6464
20
-137.135
11
85.9321
21
-136.992
0
LINE
8
Black
10
85.9321
20
-136.992
11
86.6464
21
-136.992
0
LINE
8
Black
10
86.6464
20
-136.992
11
86.9321
21
-137.135
0
LINE
8
Black
10
86.9321
20
-137.135
11
87.075
21
-137.278
0
LINE
8
Black
10
87.075
20
-137.278
11
87.2179
21
-137.564
0
LINE
8
Black
10
87.2179
20
-137.564
11
87.2179
21
-137.849
0
LINE
8
Black
10
87.2179
20
-137.849
11
87.075
21
-138.278
0
LINE
8
Black
10
87.075
20
-138.278
11
85.3607
21
-139.992
0
LINE
8
Black
10
85.3607
20
-139.992
11
87.2179
21
-139.992
0
LINE
8
Black
10
88.2179
20
-136.992
11
90.2179
21
-136.992
0
LINE
8
Black
10
90.2179
20
-136.992
11
88.9321
21
-139.992
0
LINE
8
Black
10
91.2179
20
-136.992
11
91.2179
21
-137.564
0
LINE
8
Black
10
92.3607
20
-136.992
11
92.3607
21
-137.564
0
LINE
8
Black
10
96.7893
20
-141.135
11
96.6464
21
-140.992
0
LINE
8
Black
10
96.6464
20
-140.992
11
96.3607
21
-140.564
0
LINE
8
Black
10
96.3607
20
-140.564
11
96.2179
21
-140.278
0
LINE
8
Black
10
96.2179
20
-140.278
11
96.075
21
-139.849
0
LINE
8
Black
10
96.075
20
-139.849
11
95.9321
21
-139.135
0
LINE
8
Black
10
95.9321
20
-139.135
11
95.9321
21
-138.564
0
LINE
8
Black
10
95.9321
20
-138.564
11
96.075
21
-137.849
0
LINE
8
Black
10
96.075
20
-137.849
11
96.2179
21
-137.421
0
LINE
8
Black
10
96.2179
20
-137.421
11
96.3607
21
-137.135
0
LINE
8
Black
10
96.3607
20
-137.135
11
96.6464
21
-136.706
0
LINE
8
Black
10
96.6464
20
-136.706
11
96.7893
21
-136.564
0
LINE
8
Black
10
97.7893
20
-137.278
11
97.9321
21
-137.135
0
LINE
8
Black
10
97.9321
20
-137.135
11
98.2179
21
-136.992
0
LINE
8
Black
10
98.2179
20
-136.992
11
98.9321
21
-136.992
0
LINE
8
Black
10
98.9321
20
-136.992
11
99.2179
21
-137.135
0
LINE
8
Black
10
99.2179
20
-137.135
11
99.3607
21
-137.278
0
LINE
8
Black
10
99.3607
20
-137.278
11
99.5036
21
-137.564
0
LINE
8
Black
10
99.5036
20
-137.564
11
99.5036
21
-137.849
0
LINE
8
Black
10
99.5036
20
-137.849
11
99.3607
21
-138.278
0
LINE
8
Black
10
99.3607
20
-138.278
11
97.6464
21
-139.992
0
LINE
8
Black
10
97.6464
20
-139.992
11
99.5036
21
-139.992
0
LINE
8
Black
10
103.075
20
-139.992
11
103.075
21
-136.992
0
LINE
8
Black
10
104.361
20
-139.992
11
104.361
21
-138.421
0
LINE
8
Black
10
104.361
20
-138.421
11
104.218
21
-138.135
0
LINE
8
Black
10
104.218
20
-138.135
11
103.932
21
-137.992
0
LINE
8
Black
10
103.932
20
-137.992
11
103.504
21
-137.992
0
LINE
8
Black
10
103.504
20
-137.992
11
103.218
21
-138.135
0
LINE
8
Black
10
103.218
20
-138.135
11
103.075
21
-138.278
0
LINE
8
Black
10
106.218
20
-139.992
11
105.932
21
-139.849
0
LINE
8
Black
10
105.932
20
-139.849
11
105.789
21
-139.706
0
LINE
8
Black
10
105.789
20
-139.706
11
105.646
21
-139.421
0
LINE
8
Black
10
105.646
20
-139.421
11
105.646
21
-138.564
0
LINE
8
Black
10
105.646
20
-138.564
11
105.789
21
-138.278
0
LINE
8
Black
10
105.789
20
-138.278
11
105.932
21
-138.135
0
LINE
8
Black
10
105.932
20
-138.135
11
106.218
21
-137.992
0
LINE
8
Black
10
106.218
20
-137.992
11
106.646
21
-137.992
0
LINE
8
Black
10
106.646
20
-137.992
11
106.932
21
-138.135
0
LINE
8
Black
10
106.932
20
-138.135
11
107.075
21
-138.278
0
LINE
8
Black
10
107.075
20
-138.278
11
107.218
21
-138.564
0
LINE
8
Black
10
107.218
20
-138.564
11
107.218
21
-139.421
0
LINE
8
Black
10
107.218
20
-139.421
11
107.075
21
-139.706
0
LINE
8
Black
10
107.075
20
-139.706
11
106.932
21
-139.849
0
LINE
8
Black
10
106.932
20
-139.849
11
106.646
21
-139.992
0
LINE
8
Black
10
106.646
20
-139.992
11
106.218
21
-139.992
0
LINE
8
Black
10
108.932
20
-139.992
11
108.646
21
-139.849
0
LINE
8
Black
10
108.646
20
-139.849
11
108.504
21
-139.564
0
LINE
8
Black
10
108.504
20
-139.564
11
108.504
21
-136.992
0
LINE
8
Black
10
111.218
20
-139.849
11
110.932
21
-139.992
0
LINE
8
Black
10
110.932
20
-139.992
11
110.361
21
-139.992
0
LINE
8
Black
10
110.361
20
-139.992
11
110.075
21
-139.849
0
LINE
8
Black
10
110.075
20
-139.849
11
109.932
21
-139.564
0
LINE
8
Black
10
109.932
20
-139.564
11
109.932
21
-138.421
0
LINE
8
Black
10
109.932
20
-138.421
11
110.075
21
-138.135
0
LINE
8
Black
10
110.075
20
-138.135
11
110.361
21
-137.992
0
LINE
8
Black
10
110.361
20
-137.992
11
110.932
21
-137.992
0
LINE
8
Black
10
110.932
20
-137.992
11
111.218
21
-138.135
0
LINE
8
Black
10
111.218
20
-138.135
11
111.361
21
-138.421
0
LINE
8
Black
10
111.361
20
-138.421
11
111.361
21
-138.706
0
LINE
8
Black
10
111.361
20
-138.706
11
109.932
21
-138.992
0
LINE
8
Black
10
112.504
20
-139.849
11
112.789
21
-139.992
0
LINE
8
Black
10
112.789
20
-139.992
11
113.361
21
-139.992
0
LINE
8
Black
10
113.361
20
-139.992
11
113.646
21
-139.849
0
LINE
8
Black
10
113.646
20
-139.849
11
113.789
21
-139.564
0
LINE
8
Black
10
113.789
20
-139.564
11
113.789
21
-139.421
0
LINE
8
Black
10
113.789
20
-139.421
11
113.646
21
-139.135
0
LINE
8
Black
10
113.646
20
-139.135
11
113.361
21
-138.992
0
LINE
8
Black
10
113.361
20
-138.992
11
112.932
21
-138.992
0
LINE
8
Black
10
112.932
20
-138.992
11
112.646
21
-138.849
0
LINE
8
Black
10
112.646
20
-138.849
11
112.504
21
-138.564
0
LINE
8
Black
10
112.504
20
-138.564
11
112.504
21
-138.421
0
LINE
8
Black
10
112.504
20
-138.421
11
112.646
21
-138.135
0
LINE
8
Black
10
112.646
20
-138.135
11
112.932
21
-137.992
0
LINE
8
Black
10
112.932
20
-137.992
11
113.361
21
-137.992
0
LINE
8
Black
10
113.361
20
-137.992
11
113.646
21
-138.135
0
LINE
8
Black
10
114.789
20
-141.135
11
114.932
21
-140.992
0
LINE
8
Black
10
114.932
20
-140.992
11
115.218
21
-140.564
0
LINE
8
Black
10
115.218
20
-140.564
11
115.361
21
-140.278
0
LINE
8
Black
10
115.361
20
-140.278
11
115.504
21
-139.849
0
LINE
8
Black
10
115.504
20
-139.849
11
115.646
21
-139.135
0
LINE
8
Black
10
115.646
20
-139.135
11
115.646
21
-138.564
0
LINE
8
Black
10
115.646
20
-138.564
11
115.504
21
-137.849
0
LINE
8
Black
10
115.504
20
-137.849
11
115.361
21
-137.421
0
LINE
8
Black
10
115.361
20
-137.421
11
115.218
21
-137.135
0
LINE
8
Black
10
115.218
20
-137.135
11
114.932
21
-136.706
0
LINE
8
Black
10
114.932
20
-136.706
11
114.789
21
-136.564
0
LINE
8
Black
10
49.544
20
-142.214
11
49.544
21
-142.976
0
LINE
8
Black
10
49.163
20
-142.595
11
49.925
21
-142.595
0
LINE
8
Black
10
53.3607
20
-140.952
11
53.6464
21
-140.952
0
LINE
8
Black
10
53.6464
20
-140.952
11
53.9321
21
-141.095
0
LINE
8
Black
10
53.9321
20
-141.095
11
54.075
21
-141.238
0
LINE
8
Black
10
54.075
20
-141.238
11
54.2179
21
-141.524
0
LINE
8
Black
10
54.2179
20
-141.524
11
54.3607
21
-142.095
0
LINE
8
Black
10
54.3607
20
-142.095
11
54.3607
21
-142.809
0
LINE
8
Black
10
54.3607
20
-142.809
11
54.2179
21
-143.381
0
LINE
8
Black
10
54.2179
20
-143.381
11
54.075
21
-143.666
0
LINE
8
Black
10
54.075
20
-143.666
11
53.9321
21
-143.809
0
LINE
8
Black
10
53.9321
20
-143.809
11
53.6464
21
-143.952
0
LINE
8
Black
10
53.6464
20
-143.952
11
53.3607
21
-143.952
0
LINE
8
Black
10
53.3607
20
-143.952
11
53.075
21
-143.809
0
LINE
8
Black
10
53.075
20
-143.809
11
52.9321
21
-143.666
0
LINE
8
Black
10
52.9321
20
-143.666
11
52.7893
21
-143.381
0
LINE
8
Black
10
52.7893
20
-143.381
11
52.6464
21
-142.809
0
LINE
8
Black
10
52.6464
20
-142.809
11
52.6464
21
-142.095
0
LINE
8
Black
10
52.6464
20
-142.095
11
52.7893
21
-141.524
0
LINE
8
Black
10
52.7893
20
-141.524
11
52.9321
21
-141.238
0
LINE
8
Black
10
52.9321
20
-141.238
11
53.075
21
-141.095
0
LINE
8
Black
10
53.075
20
-141.095
11
53.3607
21
-140.952
0
LINE
8
Black
10
55.6464
20
-143.666
11
55.7893
21
-143.809
0
LINE
8
Black
10
55.7893
20
-143.809
11
55.6464
21
-143.952
0
LINE
8
Black
10
55.6464
20
-143.952
11
55.5036
21
-143.809
0
LINE
8
Black
10
55.5036
20
-143.809
11
55.6464
21
-143.666
0
LINE
8
Black
10
55.6464
20
-143.666
11
55.6464
21
-143.952
0
LINE
8
Black
10
56.7893
20
-140.952
11
58.7893
21
-140.952
0
LINE
8
Black
10
58.7893
20
-140.952
11
57.5036
21
-143.952
0
LINE
8
Black
10
61.2179
20
-140.952
11
60.6464
21
-140.952
0
LINE
8
Black
10
60.6464
20
-140.952
11
60.3607
21
-141.095
0
LINE
8
Black
10
60.3607
20
-141.095
11
60.2179
21
-141.238
0
LINE
8
Black
10
60.2179
20
-141.238
11
59.9321
21
-141.666
0
LINE
8
Black
10
59.9321
20
-141.666
11
59.7893
21
-142.238
0
LINE
8
Black
10
59.7893
20
-142.238
11
59.7893
21
-143.381
0
LINE
8
Black
10
59.7893
20
-143.381
11
59.9321
21
-143.666
0
LINE
8
Black
10
59.9321
20
-143.666
11
60.075
21
-143.809
0
LINE
8
Black
10
60.075
20
-143.809
11
60.3607
21
-143.952
0
LINE
8
Black
10
60.3607
20
-143.952
11
60.9321
21
-143.952
0
LINE
8
Black
10
60.9321
20
-143.952
11
61.2179
21
-143.809
0
LINE
8
Black
10
61.2179
20
-143.809
11
61.3607
21
-143.666
0
LINE
8
Black
10
61.3607
20
-143.666
11
61.5036
21
-143.381
0
LINE
8
Black
10
61.5036
20
-143.381
11
61.5036
21
-142.666
0
LINE
8
Black
10
61.5036
20
-142.666
11
61.3607
21
-142.381
0
LINE
8
Black
10
61.3607
20
-142.381
11
61.2179
21
-142.238
0
LINE
8
Black
10
61.2179
20
-142.238
11
60.9321
21
-142.095
0
LINE
8
Black
10
60.9321
20
-142.095
11
60.3607
21
-142.095
0
LINE
8
Black
10
60.3607
20
-142.095
11
60.075
21
-142.238
0
LINE
8
Black
10
60.075
20
-142.238
11
59.9321
21
-142.381
0
LINE
8
Black
10
59.9321
20
-142.381
11
59.7893
21
-142.666
0
LINE
8
Black
10
62.7893
20
-143.952
11
62.7893
21
-141.952
0
LINE
8
Black
10
62.7893
20
-142.238
11
62.9321
21
-142.095
0
LINE
8
Black
10
62.9321
20
-142.095
11
63.2179
21
-141.952
0
LINE
8
Black
10
63.2179
20
-141.952
11
63.6464
21
-141.952
0
LINE
8
Black
10
63.6464
20
-141.952
11
63.9321
21
-142.095
0
LINE
8
Black
10
63.9321
20
-142.095
11
64.075
21
-142.381
0
LINE
8
Black
10
64.075
20
-142.381
11
64.075
21
-143.952
0
LINE
8
Black
10
64.075
20
-142.381
11
64.2179
21
-142.095
0
LINE
8
Black
10
64.2179
20
-142.095
11
64.5036
21
-141.952
0
LINE
8
Black
10
64.5036
20
-141.952
11
64.9321
21
-141.952
0
LINE
8
Black
10
64.9321
20
-141.952
11
65.2179
21
-142.095
0
LINE
8
Black
10
65.2179
20
-142.095
11
65.3607
21
-142.381
0
LINE
8
Black
10
65.3607
20
-142.381
11
65.3607
21
-143.952
0
LINE
8
Black
10
66.7893
20
-143.952
11
66.7893
21
-141.952
0
LINE
8
Black
10
66.7893
20
-142.238
11
66.9321
21
-142.095
0
LINE
8
Black
10
66.9321
20
-142.095
11
67.2179
21
-141.952
0
LINE
8
Black
10
67.2179
20
-141.952
11
67.6464
21
-141.952
0
LINE
8
Black
10
67.6464
20
-141.952
11
67.9321
21
-142.095
0
LINE
8
Black
10
67.9321
20
-142.095
11
68.075
21
-142.381
0
LINE
8
Black
10
68.075
20
-142.381
11
68.075
21
-143.952
0
LINE
8
Black
10
68.075
20
-142.381
11
68.2179
21
-142.095
0
LINE
8
Black
10
68.2179
20
-142.095
11
68.5036
21
-141.952
0
LINE
8
Black
10
68.5036
20
-141.952
11
68.9321
21
-141.952
0
LINE
8
Black
10
68.9321
20
-141.952
11
69.2179
21
-142.095
0
LINE
8
Black
10
69.2179
20
-142.095
11
69.3607
21
-142.381
0
LINE
8
Black
10
69.3607
20
-142.381
11
69.3607
21
-143.952
0
LINE
8
Black
10
75.2179
20
-140.809
11
72.6464
21
-144.666
0
LINE
8
Black
10
79.075
20
-140.952
11
79.3607
21
-140.952
0
LINE
8
Black
10
79.3607
20
-140.952
11
79.6464
21
-141.095
0
LINE
8
Black
10
79.6464
20
-141.095
11
79.7893
21
-141.238
0
LINE
8
Black
10
79.7893
20
-141.238
11
79.9321
21
-141.524
0
LINE
8
Black
10
79.9321
20
-141.524
11
80.075
21
-142.095
0
LINE
8
Black
10
80.075
20
-142.095
11
80.075
21
-142.809
0
LINE
8
Black
10
80.075
20
-142.809
11
79.9321
21
-143.381
0
LINE
8
Black
10
79.9321
20
-143.381
11
79.7893
21
-143.666
0
LINE
8
Black
10
79.7893
20
-143.666
11
79.6464
21
-143.809
0
LINE
8
Black
10
79.6464
20
-143.809
11
79.3607
21
-143.952
0
LINE
8
Black
10
79.3607
20
-143.952
11
79.075
21
-143.952
0
LINE
8
Black
10
79.075
20
-143.952
11
78.7893
21
-143.809
0
LINE
8
Black
10
78.7893
20
-143.809
11
78.6464
21
-143.666
0
LINE
8
Black
10
78.6464
20
-143.666
11
78.5036
21
-143.381
0
LINE
8
Black
10
78.5036
20
-143.381
11
78.3607
21
-142.809
0
LINE
8
Black
10
78.3607
20
-142.809
11
78.3607
21
-142.095
0
LINE
8
Black
10
78.3607
20
-142.095
11
78.5036
21
-141.524
0
LINE
8
Black
10
78.5036
20
-141.524
11
78.6464
21
-141.238
0
LINE
8
Black
10
78.6464
20
-141.238
11
78.7893
21
-141.095
0
LINE
8
Black
10
78.7893
20
-141.095
11
79.075
21
-140.952
0
LINE
8
Black
10
81.3607
20
-143.666
11
81.5036
21
-143.809
0
LINE
8
Black
10
81.5036
20
-143.809
11
81.3607
21
-143.952
0
LINE
8
Black
10
81.3607
20
-143.952
11
81.2179
21
-143.809
0
LINE
8
Black
10
81.2179
20
-143.809
11
81.3607
21
-143.666
0
LINE
8
Black
10
81.3607
20
-143.666
11
81.3607
21
-143.952
0
LINE
8
Black
10
83.3607
20
-140.952
11
83.6464
21
-140.952
0
LINE
8
Black
10
83.6464
20
-140.952
11
83.9321
21
-141.095
0
LINE
8
Black
10
83.9321
20
-141.095
11
84.075
21
-141.238
0
LINE
8
Black
10
84.075
20
-141.238
11
84.2179
21
-141.524
0
LINE
8
Black
10
84.2179
20
-141.524
11
84.3607
21
-142.095
0
LINE
8
Black
10
84.3607
20
-142.095
11
84.3607
21
-142.809
0
LINE
8
Black
10
84.3607
20
-142.809
11
84.2179
21
-143.381
0
LINE
8
Black
10
84.2179
20
-143.381
11
84.075
21
-143.666
0
LINE
8
Black
10
84.075
20
-143.666
11
83.9321
21
-143.809
0
LINE
8
Black
10
83.9321
20
-143.809
11
83.6464
21
-143.952
0
LINE
8
Black
10
83.6464
20
-143.952
11
83.3607
21
-143.952
0
LINE
8
Black
10
83.3607
20
-143.952
11
83.075
21
-143.809
0
LINE
8
Black
10
83.075
20
-143.809
11
82.9321
21
-143.666
0
LINE
8
Black
10
82.9321
20
-143.666
11
82.7893
21
-143.381
0
LINE
8
Black
10
82.7893
20
-143.381
11
82.6464
21
-142.809
0
LINE
8
Black
10
82.6464
20
-142.809
11
82.6464
21
-142.095
0
LINE
8
Black
10
82.6464
20
-142.095
11
82.7893
21
-141.524
0
LINE
8
Black
10
82.7893
20
-141.524
11
82.9321
21
-141.238
0
LINE
8
Black
10
82.9321
20
-141.238
11
83.075
21
-141.095
0
LINE
8
Black
10
83.075
20
-141.095
11
83.3607
21
-140.952
0
LINE
8
Black
10
85.3607
20
-140.952
11
87.2179
21
-140.952
0
LINE
8
Black
10
87.2179
20
-140.952
11
86.2179
21
-142.095
0
LINE
8
Black
10
86.2179
20
-142.095
11
86.6464
21
-142.095
0
LINE
8
Black
10
86.6464
20
-142.095
11
86.9321
21
-142.238
0
LINE
8
Black
10
86.9321
20
-142.238
11
87.075
21
-142.381
0
LINE
8
Black
10
87.075
20
-142.381
11
87.2179
21
-142.666
0
LINE
8
Black
10
87.2179
20
-142.666
11
87.2179
21
-143.381
0
LINE
8
Black
10
87.2179
20
-143.381
11
87.075
21
-143.666
0
LINE
8
Black
10
87.075
20
-143.666
11
86.9321
21
-143.809
0
LINE
8
Black
10
86.9321
20
-143.809
11
86.6464
21
-143.952
0
LINE
8
Black
10
86.6464
20
-143.952
11
85.7893
21
-143.952
0
LINE
8
Black
10
85.7893
20
-143.952
11
85.5036
21
-143.809
0
LINE
8
Black
10
85.5036
20
-143.809
11
85.3607
21
-143.666
0
LINE
8
Black
10
89.075
20
-140.952
11
89.3607
21
-140.952
0
LINE
8
Black
10
89.3607
20
-140.952
11
89.6464
21
-141.095
0
LINE
8
Black
10
89.6464
20
-141.095
11
89.7893
21
-141.238
0
LINE
8
Black
10
89.7893
20
-141.238
11
89.9321
21
-141.524
0
LINE
8
Black
10
89.9321
20
-141.524
11
90.075
21
-142.095
0
LINE
8
Black
10
90.075
20
-142.095
11
90.075
21
-142.809
0
LINE
8
Black
10
90.075
20
-142.809
11
89.9321
21
-143.381
0
LINE
8
Black
10
89.9321
20
-143.381
11
89.7893
21
-143.666
0
LINE
8
Black
10
89.7893
20
-143.666
11
89.6464
21
-143.809
0
LINE
8
Black
10
89.6464
20
-143.809
11
89.3607
21
-143.952
0
LINE
8
Black
10
89.3607
20
-143.952
11
89.075
21
-143.952
0
LINE
8
Black
10
89.075
20
-143.952
11
88.7893
21
-143.809
0
LINE
8
Black
10
88.7893
20
-143.809
11
88.6464
21
-143.666
0
LINE
8
Black
10
88.6464
20
-143.666
11
88.5036
21
-143.381
0
LINE
8
Black
10
88.5036
20
-143.381
11
88.3607
21
-142.809
0
LINE
8
Black
10
88.3607
20
-142.809
11
88.3607
21
-142.095
0
LINE
8
Black
10
88.3607
20
-142.095
11
88.5036
21
-141.524
0
LINE
8
Black
10
88.5036
20
-141.524
11
88.6464
21
-141.238
0
LINE
8
Black
10
88.6464
20
-141.238
11
88.7893
21
-141.095
0
LINE
8
Black
10
88.7893
20
-141.095
11
89.075
21
-140.952
0
LINE
8
Black
10
91.2179
20
-140.952
11
91.2179
21
-141.524
0
LINE
8
Black
10
92.3607
20
-140.952
11
92.3607
21
-141.524
0
LINE
8
Black
10
96.7893
20
-145.095
11
96.6464
21
-144.952
0
LINE
8
Black
10
96.6464
20
-144.952
11
96.3607
21
-144.524
0
LINE
8
Black
10
96.3607
20
-144.524
11
96.2179
21
-144.238
0
LINE
8
Black
10
96.2179
20
-144.238
11
96.075
21
-143.809
0
LINE
8
Black
10
96.075
20
-143.809
11
95.9321
21
-143.095
0
LINE
8
Black
10
95.9321
20
-143.095
11
95.9321
21
-142.524
0
LINE
8
Black
10
95.9321
20
-142.524
11
96.075
21
-141.809
0
LINE
8
Black
10
96.075
20
-141.809
11
96.2179
21
-141.381
0
LINE
8
Black
10
96.2179
20
-141.381
11
96.3607
21
-141.095
0
LINE
8
Black
10
96.3607
20
-141.095
11
96.6464
21
-140.666
0
LINE
8
Black
10
96.6464
20
-140.666
11
96.7893
21
-140.524
0
LINE
8
Black
10
99.2179
20
-141.952
11
99.2179
21
-143.952
0
LINE
8
Black
10
98.5036
20
-140.809
11
97.7893
21
-142.952
0
LINE
8
Black
10
97.7893
20
-142.952
11
99.6464
21
-142.952
0
LINE
8
Black
10
103.075
20
-143.952
11
103.075
21
-140.952
0
LINE
8
Black
10
104.361
20
-143.952
11
104.361
21
-142.381
0
LINE
8
Black
10
104.361
20
-142.381
11
104.218
21
-142.095
0
LINE
8
Black
10
104.218
20
-142.095
11
103.932
21
-141.952
0
LINE
8
Black
10
103.932
20
-141.952
11
103.504
21
-141.952
0
LINE
8
Black
10
103.504
20
-141.952
11
103.218
21
-142.095
0
LINE
8
Black
10
103.218
20
-142.095
11
103.075
21
-142.238
0
LINE
8
Black
10
106.218
20
-143.952
11
105.932
21
-143.809
0
LINE
8
Black
10
105.932
20
-143.809
11
105.789
21
-143.666
0
LINE
8
Black
10
105.789
20
-143.666
11
105.646
21
-143.381
0
LINE
8
Black
10
105.646
20
-143.381
11
105.646
21
-142.524
0
LINE
8
Black
10
105.646
20
-142.524
11
105.789
21
-142.238
0
LINE
8
Black
10
105.789
20
-142.238
11
105.932
21
-142.095
0
LINE
8
Black
10
105.932
20
-142.095
11
106.218
21
-141.952
0
LINE
8
Black
10
106.218
20
-141.952
11
106.646
21
-141.952
0
LINE
8
Black
10
106.646
20
-141.952
11
106.932
21
-142.095
0
LINE
8
Black
10
106.932
20
-142.095
11
107.075
21
-142.238
0
LINE
8
Black
10
107.075
20
-142.238
11
107.218
21
-142.524
0
LINE
8
Black
10
107.218
20
-142.524
11
107.218
21
-143.381
0
LINE
8
Black
10
107.218
20
-143.381
11
107.075
21
-143.666
0
LINE
8
Black
10
107.075
20
-143.666
11
106.932
21
-143.809
0
LINE
8
Black
10
106.932
20
-143.809
11
106.646
21
-143.952
0
LINE
8
Black
10
106.646
20
-143.952
11
106.218
21
-143.952
0
LINE
8
Black
10
108.932
20
-143.952
11
108.646
21
-143.809
0
LINE
8
Black
10
108.646
20
-143.809
11
108.504
21
-143.524
0
LINE
8
Black
10
108.504
20
-143.524
11
108.504
21
-140.952
0
LINE
8
Black
10
111.218
20
-143.809
11
110.932
21
-143.952
0
LINE
8
Black
10
110.932
20
-143.952
11
110.361
21
-143.952
0
LINE
8
Black
10
110.361
20
-143.952
11
110.075
21
-143.809
0
LINE
8
Black
10
110.075
20
-143.809
11
109.932
21
-143.524
0
LINE
8
Black
10
109.932
20
-143.524
11
109.932
21
-142.381
0
LINE
8
Black
10
109.932
20
-142.381
11
110.075
21
-142.095
0
LINE
8
Black
10
110.075
20
-142.095
11
110.361
21
-141.952
0
LINE
8
Black
10
110.361
20
-141.952
11
110.932
21
-141.952
0
LINE
8
Black
10
110.932
20
-141.952
11
111.218
21
-142.095
0
LINE
8
Black
10
111.218
20
-142.095
11
111.361
21
-142.381
0
LINE
8
Black
10
111.361
20
-142.381
11
111.361
21
-142.666
0
LINE
8
Black
10
111.361
20
-142.666
11
109.932
21
-142.952
0
LINE
8
Black
10
112.504
20
-143.809
11
112.789
21
-143.952
0
LINE
8
Black
10
112.789
20
-143.952
11
113.361
21
-143.952
0
LINE
8
Black
10
113.361
20
-143.952
11
113.646
21
-143.809
0
LINE
8
Black
10
113.646
20
-143.809
11
113.789
21
-143.524
0
LINE
8
Black
10
113.789
20
-143.524
11
113.789
21
-143.381
0
LINE
8
Black
10
113.789
20
-143.381
11
113.646
21
-143.095
0
LINE
8
Black
10
113.646
20
-143.095
11
113.361
21
-142.952
0
LINE
8
Black
10
113.361
20
-142.952
11
112.932
21
-142.952
0
LINE
8
Black
10
112.932
20
-142.952
11
112.646
21
-142.809
0
LINE
8
Black
10
112.646
20
-142.809
11
112.504
21
-142.524
0
LINE
8
Black
10
112.504
20
-142.524
11
112.504
21
-142.381
0
LINE
8
Black
10
112.504
20
-142.381
11
112.646
21
-142.095
0
LINE
8
Black
10
112.646
20
-142.095
11
112.932
21
-141.952
0
LINE
8
Black
10
112.932
20
-141.952
11
113.361
21
-141.952
0
LINE
8
Black
10
113.361
20
-141.952
11
113.646
21
-142.095
0
LINE
8
Black
10
114.789
20
-145.095
11
114.932
21
-144.952
0
LINE
8
Black
10
114.932
20
-144.952
11
115.218
21
-144.524
0
LINE
8
Black
10
115.218
20
-144.524
11
115.361
21
-144.238
0
LINE
8
Black
10
115.361
20
-144.238
11
115.504
21
-143.809
0
LINE
8
Black
10
115.504
20
-143.809
11
115.646
21
-143.095
0
LINE
8
Black
10
115.646
20
-143.095
11
115.646
21
-142.524
0
LINE
8
Black
10
115.646
20
-142.524
11
115.504
21
-141.809
0
LINE
8
Black
10
115.504
20
-141.809
11
115.361
21
-141.381
0
LINE
8
Black
10
115.361
20
-141.381
11
115.218
21
-141.095
0
LINE
8
Black
10
115.218
20
-141.095
11
114.932
21
-140.666
0
LINE
8
Black
10
114.932
20
-140.666
11
114.789
21
-140.524
0
LINE
8
Black
10
49.8078
20
-146.838
11
49.8078
21
-146.272
0
LINE
8
Black
10
49.8078
20
-146.272
11
49.2422
21
-146.272
0
LINE
8
Black
10
49.2422
20
-146.272
11
49.2422
21
-146.838
0
LINE
8
Black
10
49.2422
20
-146.838
11
49.8078
21
-146.838
0
LINE
8
Black
10
53.3607
20
-144.912
11
53.6464
21
-144.912
0
LINE
8
Black
10
53.6464
20
-144.912
11
53.9321
21
-145.055
0
LINE
8
Black
10
53.9321
20
-145.055
11
54.075
21
-145.198
0
LINE
8
Black
10
54.075
20
-145.198
11
54.2179
21
-145.484
0
LINE
8
Black
10
54.2179
20
-145.484
11
54.3607
21
-146.055
0
LINE
8
Black
10
54.3607
20
-146.055
11
54.3607
21
-146.769
0
LINE
8
Black
10
54.3607
20
-146.769
11
54.2179
21
-147.341
0
LINE
8
Black
10
54.2179
20
-147.341
11
54.075
21
-147.626
0
LINE
8
Black
10
54.075
20
-147.626
11
53.9321
21
-147.769
0
LINE
8
Black
10
53.9321
20
-147.769
11
53.6464
21
-147.912
0
LINE
8
Black
10
53.6464
20
-147.912
11
53.3607
21
-147.912
0
LINE
8
Black
10
53.3607
20
-147.912
11
53.075
21
-147.769
0
LINE
8
Black
10
53.075
20
-147.769
11
52.9321
21
-147.626
0
LINE
8
Black
10
52.9321
20
-147.626
11
52.7893
21
-147.341
0
LINE
8
Black
10
52.7893
20
-147.341
11
52.6464
21
-146.769
0
LINE
8
Black
10
52.6464
20
-146.769
11
52.6464
21
-146.055
0
LINE
8
Black
10
52.6464
20
-146.055
11
52.7893
21
-145.484
0
LINE
8
Black
10
52.7893
20
-145.484
11
52.9321
21
-145.198
0
LINE
8
Black
10
52.9321
20
-145.198
11
53.075
21
-145.055
0
LINE
8
Black
10
53.075
20
-145.055
11
53.3607
21
-144.912
0
LINE
8
Black
10
55.6464
20
-147.626
11
55.7893
21
-147.769
0
LINE
8
Black
10
55.7893
20
-147.769
11
55.6464
21
-147.912
0
LINE
8
Black
10
55.6464
20
-147.912
11
55.5036
21
-147.769
0
LINE
8
Black
10
55.5036
20
-147.769
11
55.6464
21
-147.626
0
LINE
8
Black
10
55.6464
20
-147.626
11
55.6464
21
-147.912
0
LINE
8
Black
10
57.5036
20
-146.198
11
57.2179
21
-146.055
0
LINE
8
Black
10
57.2179
20
-146.055
11
57.075
21
-145.912
0
LINE
8
Black
10
57.075
20
-145.912
11
56.9321
21
-145.626
0
LINE
8
Black
10
56.9321
20
-145.626
11
56.9321
21
-145.484
0
LINE
8
Black
10
56.9321
20
-145.484
11
57.075
21
-145.198
0
LINE
8
Black
10
57.075
20
-145.198
11
57.2179
21
-145.055
0
LINE
8
Black
10
57.2179
20
-145.055
11
57.5036
21
-144.912
0
LINE
8
Black
10
57.5036
20
-144.912
11
58.075
21
-144.912
0
LINE
8
Black
10
58.075
20
-144.912
11
58.3607
21
-145.055
0
LINE
8
Black
10
58.3607
20
-145.055
11
58.5036
21
-145.198
0
LINE
8
Black
10
58.5036
20
-145.198
11
58.6464
21
-145.484
0
LINE
8
Black
10
58.6464
20
-145.484
11
58.6464
21
-145.626
0
LINE
8
Black
10
58.6464
20
-145.626
11
58.5036
21
-145.912
0
LINE
8
Black
10
58.5036
20
-145.912
11
58.3607
21
-146.055
0
LINE
8
Black
10
58.3607
20
-146.055
11
58.075
21
-146.198
0
LINE
8
Black
10
58.075
20
-146.198
11
57.5036
21
-146.198
0
LINE
8
Black
10
57.5036
20
-146.198
11
57.2179
21
-146.341
0
LINE
8
Black
10
57.2179
20
-146.341
11
57.075
21
-146.484
0
LINE
8
Black
10
57.075
20
-146.484
11
56.9321
21
-146.769
0
LINE
8
Black
10
56.9321
20
-146.769
11
56.9321
21
-147.341
0
LINE
8
Black
10
56.9321
20
-147.341
11
57.075
21
-147.626
0
LINE
8
Black
10
57.075
20
-147.626
11
57.2179
21
-147.769
0
LINE
8
Black
10
57.2179
20
-147.769
11
57.5036
21
-147.912
0
LINE
8
Black
10
57.5036
20
-147.912
11
58.075
21
-147.912
0
LINE
8
Black
10
58.075
20
-147.912
11
58.3607
21
-147.769
0
LINE
8
Black
10
58.3607
20
-147.769
11
58.5036
21
-147.626
0
LINE
8
Black
10
58.5036
20
-147.626
11
58.6464
21
-147.341
0
LINE
8
Black
10
58.6464
20
-147.341
11
58.6464
21
-146.769
0
LINE
8
Black
10
58.6464
20
-146.769
11
58.5036
21
-146.484
0
LINE
8
Black
10
58.5036
20
-146.484
11
58.3607
21
-146.341
0
LINE
8
Black
10
58.3607
20
-146.341
11
58.075
21
-146.198
0
LINE
8
Black
10
60.5036
20
-144.912
11
60.7893
21
-144.912
0
LINE
8
Black
10
60.7893
20
-144.912
11
61.075
21
-145.055
0
LINE
8
Black
10
61.075
20
-145.055
11
61.2179
21
-145.198
0
LINE
8
Black
10
61.2179
20
-145.198
11
61.3607
21
-145.484
0
LINE
8
Black
10
61.3607
20
-145.484
11
61.5036
21
-146.055
0
LINE
8
Black
10
61.5036
20
-146.055
11
61.5036
21
-146.769
0
LINE
8
Black
10
61.5036
20
-146.769
11
61.3607
21
-147.341
0
LINE
8
Black
10
61.3607
20
-147.341
11
61.2179
21
-147.626
0
LINE
8
Black
10
61.2179
20
-147.626
11
61.075
21
-147.769
0
LINE
8
Black
10
61.075
20
-147.769
11
60.7893
21
-147.912
0
LINE
8
Black
10
60.7893
20
-147.912
11
60.5036
21
-147.912
0
LINE
8
Black
10
60.5036
20
-147.912
11
60.2179
21
-147.769
0
LINE
8
Black
10
60.2179
20
-147.769
11
60.075
21
-147.626
0
LINE
8
Black
10
60.075
20
-147.626
11
59.9321
21
-147.341
0
LINE
8
Black
10
59.9321
20
-147.341
11
59.7893
21
-146.769
0
LINE
8
Black
10
59.7893
20
-146.769
11
59.7893
21
-146.055
0
LINE
8
Black
10
59.7893
20
-146.055
11
59.9321
21
-145.484
0
LINE
8
Black
10
59.9321
20
-145.484
11
60.075
21
-145.198
0
LINE
8
Black
10
60.075
20
-145.198
11
60.2179
21
-145.055
0
LINE
8
Black
10
60.2179
20
-145.055
11
60.5036
21
-144.912
0
LINE
8
Black
10
62.7893
20
-147.912
11
62.7893
21
-145.912
0
LINE
8
Black
10
62.7893
20
-146.198
11
62.9321
21
-146.055
0
LINE
8
Black
10
62.9321
20
-146.055
11
63.2179
21
-145.912
0
LINE
8
Black
10
63.2179
20
-145.912
11
63.6464
21
-145.912
0
LINE
8
Black
10
63.6464
20
-145.912
11
63.9321
21
-146.055
0
LINE
8
Black
10
63.9321
20
-146.055
11
64.075
21
-146.341
0
LINE
8
Black
10
64.075
20
-146.341
11
64.075
21
-147.912
0
LINE
8
Black
10
64.075
20
-146.341
11
64.2179
21
-146.055
0
LINE
8
Black
10
64.2179
20
-146.055
11
64.5036
21
-145.912
0
LINE
8
Black
10
64.5036
20
-145.912
11
64.9321
21
-145.912
0
LINE
8
Black
10
64.9321
20
-145.912
11
65.2179
21
-146.055
0
LINE
8
Black
10
65.2179
20
-146.055
11
65.3607
21
-146.341
0
LINE
8
Black
10
65.3607
20
-146.341
11
65.3607
21
-147.912
0
LINE
8
Black
10
66.7893
20
-147.912
11
66.7893
21
-145.912
0
LINE
8
Black
10
66.7893
20
-146.198
11
66.9321
21
-146.055
0
LINE
8
Black
10
66.9321
20
-146.055
11
67.2179
21
-145.912
0
LINE
8
Black
10
67.2179
20
-145.912
11
67.6464
21
-145.912
0
LINE
8
Black
10
67.6464
20
-145.912
11
67.9321
21
-146.055
0
LINE
8
Black
10
67.9321
20
-146.055
11
68.075
21
-146.341
0
LINE
8
Black
10
68.075
20
-146.341
11
68.075
21
-147.912
0
LINE
8
Black
10
68.075
20
-146.341
11
68.2179
21
-146.055
0
LINE
8
Black
10
68.2179
20
-146.055
11
68.5036
21
-145.912
0
LINE
8
Black
10
68.5036
20
-145.912
11
68.9321
21
-145.912
0
LINE
8
Black
10
68.9321
20
-145.912
11
69.2179
21
-146.055
0
LINE
8
Black
10
69.2179
20
-146.055
11
69.3607
21
-146.341
0
LINE
8
Black
10
69.3607
20
-146.341
11
69.3607
21
-147.912
0
LINE
8
Black
10
75.2179
20
-144.769
11
72.6464
21
-148.626
0
LINE
8
Black
10
79.075
20
-144.912
11
79.3607
21
-144.912
0
LINE
8
Black
10
79.3607
20
-144.912
11
79.6464
21
-145.055
0
LINE
8
Black
10
79.6464
20
-145.055
11
79.7893
21
-145.198
0
LINE
8
Black
10
79.7893
20
-145.198
11
79.9321
21
-145.484
0
LINE
8
Black
10
79.9321
20
-145.484
11
80.075
21
-146.055
0
LINE
8
Black
10
80.075
20
-146.055
11
80.075
21
-146.769
0
LINE
8
Black
10
80.075
20
-146.769
11
79.9321
21
-147.341
0
LINE
8
Black
10
79.9321
20
-147.341
11
79.7893
21
-147.626
0
LINE
8
Black
10
79.7893
20
-147.626
11
79.6464
21
-147.769
0
LINE
8
Black
10
79.6464
20
-147.769
11
79.3607
21
-147.912
0
LINE
8
Black
10
79.3607
20
-147.912
11
79.075
21
-147.912
0
LINE
8
Black
10
79.075
20
-147.912
11
78.7893
21
-147.769
0
LINE
8
Black
10
78.7893
20
-147.769
11
78.6464
21
-147.626
0
LINE
8
Black
10
78.6464
20
-147.626
11
78.5036
21
-147.341
0
LINE
8
Black
10
78.5036
20
-147.341
11
78.3607
21
-146.769
0
LINE
8
Black
10
78.3607
20
-146.769
11
78.3607
21
-146.055
0
LINE
8
Black
10
78.3607
20
-146.055
11
78.5036
21
-145.484
0
LINE
8
Black
10
78.5036
20
-145.484
11
78.6464
21
-145.198
0
LINE
8
Black
10
78.6464
20
-145.198
11
78.7893
21
-145.055
0
LINE
8
Black
10
78.7893
20
-145.055
11
79.075
21
-144.912
0
LINE
8
Black
10
81.3607
20
-147.626
11
81.5036
21
-147.769
0
LINE
8
Black
10
81.5036
20
-147.769
11
81.3607
21
-147.912
0
LINE
8
Black
10
81.3607
20
-147.912
11
81.2179
21
-147.769
0
LINE
8
Black
10
81.2179
20
-147.769
11
81.3607
21
-147.626
0
LINE
8
Black
10
81.3607
20
-147.626
11
81.3607
21
-147.912
0
LINE
8
Black
10
83.3607
20
-144.912
11
83.6464
21
-144.912
0
LINE
8
Black
10
83.6464
20
-144.912
11
83.9321
21
-145.055
0
LINE
8
Black
10
83.9321
20
-145.055
11
84.075
21
-145.198
0
LINE
8
Black
10
84.075
20
-145.198
11
84.2179
21
-145.484
0
LINE
8
Black
10
84.2179
20
-145.484
11
84.3607
21
-146.055
0
LINE
8
Black
10
84.3607
20
-146.055
11
84.3607
21
-146.769
0
LINE
8
Black
10
84.3607
20
-146.769
11
84.2179
21
-147.341
0
LINE
8
Black
10
84.2179
20
-147.341
11
84.075
21
-147.626
0
LINE
8
Black
10
84.075
20
-147.626
11
83.9321
21
-147.769
0
LINE
8
Black
10
83.9321
20
-147.769
11
83.6464
21
-147.912
0
LINE
8
Black
10
83.6464
20
-147.912
11
83.3607
21
-147.912
0
LINE
8
Black
10
83.3607
20
-147.912
11
83.075
21
-147.769
0
LINE
8
Black
10
83.075
20
-147.769
11
82.9321
21
-147.626
0
LINE
8
Black
10
82.9321
20
-147.626
11
82.7893
21
-147.341
0
LINE
8
Black
10
82.7893
20
-147.341
11
82.6464
21
-146.769
0
LINE
8
Black
10
82.6464
20
-146.769
11
82.6464
21
-146.055
0
LINE
8
Black
10
82.6464
20
-146.055
11
82.7893
21
-145.484
0
LINE
8
Black
10
82.7893
20
-145.484
11
82.9321
21
-145.198
0
LINE
8
Black
10
82.9321
20
-145.198
11
83.075
21
-145.055
0
LINE
8
Black
10
83.075
20
-145.055
11
83.3607
21
-144.912
0
LINE
8
Black
10
85.3607
20
-144.912
11
87.2179
21
-144.912
0
LINE
8
Black
10
87.2179
20
-144.912
11
86.2179
21
-146.055
0
LINE
8
Black
10
86.2179
20
-146.055
11
86.6464
21
-146.055
0
LINE
8
Black
10
86.6464
20
-146.055
11
86.9321
21
-146.198
0
LINE
8
Black
10
86.9321
20
-146.198
11
87.075
21
-146.341
0
LINE
8
Black
10
87.075
20
-146.341
11
87.2179
21
-146.626
0
LINE
8
Black
10
87.2179
20
-146.626
11
87.2179
21
-147.341
0
LINE
8
Black
10
87.2179
20
-147.341
11
87.075
21
-147.626
0
LINE
8
Black
10
87.075
20
-147.626
11
86.9321
21
-147.769
0
LINE
8
Black
10
86.9321
20
-147.769
11
86.6464
21
-147.912
0
LINE
8
Black
10
86.6464
20
-147.912
11
85.7893
21
-147.912
0
LINE
8
Black
10
85.7893
20
-147.912
11
85.5036
21
-147.769
0
LINE
8
Black
10
85.5036
20
-147.769
11
85.3607
21
-147.626
0
LINE
8
Black
10
90.075
20
-147.912
11
88.3607
21
-147.912
0
LINE
8
Black
10
89.2179
20
-147.912
11
89.2179
21
-144.912
0
LINE
8
Black
10
89.2179
20
-144.912
11
88.9321
21
-145.341
0
LINE
8
Black
10
88.9321
20
-145.341
11
88.6464
21
-145.626
0
LINE
8
Black
10
88.6464
20
-145.626
11
88.3607
21
-145.769
0
LINE
8
Black
10
91.2179
20
-144.912
11
91.2179
21
-145.484
0
LINE
8
Black
10
92.3607
20
-144.912
11
92.3607
21
-145.484
0
LINE
8
Black
10
96.7893
20
-149.055
11
96.6464
21
-148.912
0
LINE
8
Black
10
96.6464
20
-148.912
11
96.3607
21
-148.484
0
LINE
8
Black
10
96.3607
20
-148.484
11
96.2179
21
-148.198
0
LINE
8
Black
10
96.2179
20
-148.198
11
96.075
21
-147.769
0
LINE
8
Black
10
96.075
20
-147.769
11
95.9321
21
-147.055
0
LINE
8
Black
10
95.9321
20
-147.055
11
95.9321
21
-146.484
0
LINE
8
Black
10
95.9321
20
-146.484
11
96.075
21
-145.769
0
LINE
8
Black
10
96.075
20
-145.769
11
96.2179
21
-145.341
0
LINE
8
Black
10
96.2179
20
-145.341
11
96.3607
21
-145.055
0
LINE
8
Black
10
96.3607
20
-145.055
11
96.6464
21
-144.626
0
LINE
8
Black
10
96.6464
20
-144.626
11
96.7893
21
-144.484
0
LINE
8
Black
10
99.2179
20
-144.912
11
98.6464
21
-144.912
0
LINE
8
Black
10
98.6464
20
-144.912
11
98.3607
21
-145.055
0
LINE
8
Black
10
98.3607
20
-145.055
11
98.2179
21
-145.198
0
LINE
8
Black
10
98.2179
20
-145.198
11
97.9321
21
-145.626
0
LINE
8
Black
10
97.9321
20
-145.626
11
97.7893
21
-146.198
0
LINE
8
Black
10
97.7893
20
-146.198
11
97.7893
21
-147.341
0
LINE
8
Black
10
97.7893
20
-147.341
11
97.9321
21
-147.626
0
LINE
8
Black
10
97.9321
20
-147.626
11
98.075
21
-147.769
0
LINE
8
Black
10
98.075
20
-147.769
11
98.3607
21
-147.912
0
LINE
8
Black
10
98.3607
20
-147.912
11
98.9321
21
-147.912
0
LINE
8
Black
10
98.9321
20
-147.912
11
99.2179
21
-147.769
0
LINE
8
Black
10
99.2179
20
-147.769
11
99.3607
21
-147.626
0
LINE
8
Black
10
99.3607
20
-147.626
11
99.5036
21
-147.341
0
LINE
8
Black
10
99.5036
20
-147.341
11
99.5036
21
-146.626
0
LINE
8
Black
10
99.5036
20
-146.626
11
99.3607
21
-146.341
0
LINE
8
Black
10
99.3607
20
-146.341
11
99.2179
21
-146.198
0
LINE
8
Black
10
99.2179
20
-146.198
11
98.9321
21
-146.055
0
LINE
8
Black
10
98.9321
20
-146.055
11
98.3607
21
-146.055
0
LINE
8
Black
10
98.3607
20
-146.055
11
98.075
21
-146.198
0
LINE
8
Black
10
98.075
20
-146.198
11
97.9321
21
-146.341
0
LINE
8
Black
10
97.9321
20
-146.341
11
97.7893
21
-146.626
0
LINE
8
Black
10
103.075
20
-147.912
11
103.075
21
-144.912
0
LINE
8
Black
10
104.361
20
-147.912
11
104.361
21
-146.341
0
LINE
8
Black
10
104.361
20
-146.341
11
104.218
21
-146.055
0
LINE
8
Black
10
104.218
20
-146.055
11
103.932
21
-145.912
0
LINE
8
Black
10
103.932
20
-145.912
11
103.504
21
-145.912
0
LINE
8
Black
10
103.504
20
-145.912
11
103.218
21
-146.055
0
LINE
8
Black
10
103.218
20
-146.055
11
103.075
21
-146.198
0
LINE
8
Black
10
106.218
20
-147.912
11
105.932
21
-147.769
0
LINE
8
Black
10
105.932
20
-147.769
11
105.789
21
-147.626
0
LINE
8
Black
10
105.789
20
-147.626
11
105.646
21
-147.341
0
LINE
8
Black
10
105.646
20
-147.341
11
105.646
21
-146.484
0
LINE
8
Black
10
105.646
20
-146.484
11
105.789
21
-146.198
0
LINE
8
Black
10
105.789
20
-146.198
11
105.932
21
-146.055
0
LINE
8
Black
10
105.932
20
-146.055
11
106.218
21
-145.912
0
LINE
8
Black
10
106.218
20
-145.912
11
106.646
21
-145.912
0
LINE
8
Black
10
106.646
20
-145.912
11
106.932
21
-146.055
0
LINE
8
Black
10
106.932
20
-146.055
11
107.075
21
-146.198
0
LINE
8
Black
10
107.075
20
-146.198
11
107.218
21
-146.484
0
LINE
8
Black
10
107.218
20
-146.484
11
107.218
21
-147.341
0
LINE
8
Black
10
107.218
20
-147.341
11
107.075
21
-147.626
0
LINE
8
Black
10
107.075
20
-147.626
11
106.932
21
-147.769
0
LINE
8
Black
10
106.932
20
-147.769
11
106.646
21
-147.912
0
LINE
8
Black
10
106.646
20
-147.912
11
106.218
21
-147.912
0
LINE
8
Black
10
108.932
20
-147.912
11
108.646
21
-147.769
0
LINE
8
Black
10
108.646
20
-147.769
11
108.504
21
-147.484
0
LINE
8
Black
10
108.504
20
-147.484
11
108.504
21
-144.912
0
LINE
8
Black
10
111.218
20
-147.769
11
110.932
21
-147.912
0
LINE
8
Black
10
110.932
20
-147.912
11
110.361
21
-147.912
0
LINE
8
Black
10
110.361
20
-147.912
11
110.075
21
-147.769
0
LINE
8
Black
10
110.075
20
-147.769
11
109.932
21
-147.484
0
LINE
8
Black
10
109.932
20
-147.484
11
109.932
21
-146.341
0
LINE
8
Black
10
109.932
20
-146.341
11
110.075
21
-146.055
0
LINE
8
Black
10
110.075
20
-146.055
11
110.361
21
-145.912
0
LINE
8
Black
10
110.361
20
-145.912
11
110.932
21
-145.912
0
LINE
8
Black
10
110.932
20
-145.912
11
111.218
21
-146.055
0
LINE
8
Black
10
111.218
20
-146.055
11
111.361
21
-146.341
0
LINE
8
Black
10
111.361
20
-146.341
11
111.361
21
-146.626
0
LINE
8
Black
10
111.361
20
-146.626
11
109.932
21
-146.912
0
LINE
8
Black
10
112.504
20
-147.769
11
112.789
21
-147.912
0
LINE
8
Black
10
112.789
20
-147.912
11
113.361
21
-147.912
0
LINE
8
Black
10
113.361
20
-147.912
11
113.646
21
-147.769
0
LINE
8
Black
10
113.646
20
-147.769
11
113.789
21
-147.484
0
LINE
8
Black
10
113.789
20
-147.484
11
113.789
21
-147.341
0
LINE
8
Black
10
113.789
20
-147.341
11
113.646
21
-147.055
0
LINE
8
Black
10
113.646
20
-147.055
11
113.361
21
-146.912
0
LINE
8
Black
10
113.361
20
-146.912
11
112.932
21
-146.912
0
LINE
8
Black
10
112.932
20
-146.912
11
112.646
21
-146.769
0
LINE
8
Black
10
112.646
20
-146.769
11
112.504
21
-146.484
0
LINE
8
Black
10
112.504
20
-146.484
11
112.504
21
-146.341
0
LINE
8
Black
10
112.504
20
-146.341
11
112.646
21
-146.055
0
LINE
8
Black
10
112.646
20
-146.055
11
112.932
21
-145.912
0
LINE
8
Black
10
112.932
20
-145.912
11
113.361
21
-145.912
0
LINE
8
Black
10
113.361
20
-145.912
11
113.646
21
-146.055
0
LINE
8
Black
10
117.361
20
-146.769
11
119.646
21
-146.769
0
LINE
8
Black
10
118.504
20
-147.912
11
118.504
21
-145.626
0
LINE
8
Black
10
123.075
20
-144.912
11
124.932
21
-144.912
0
LINE
8
Black
10
124.932
20
-144.912
11
123.932
21
-146.055
0
LINE
8
Black
10
123.932
20
-146.055
11
124.361
21
-146.055
0
LINE
8
Black
10
124.361
20
-146.055
11
124.646
21
-146.198
0
LINE
8
Black
10
124.646
20
-146.198
11
124.789
21
-146.341
0
LINE
8
Black
10
124.789
20
-146.341
11
124.932
21
-146.626
0
LINE
8
Black
10
124.932
20
-146.626
11
124.932
21
-147.341
0
LINE
8
Black
10
124.932
20
-147.341
11
124.789
21
-147.626
0
LINE
8
Black
10
124.789
20
-147.626
11
124.646
21
-147.769
0
LINE
8
Black
10
124.646
20
-147.769
11
124.361
21
-147.912
0
LINE
8
Black
10
124.361
20
-147.912
11
123.504
21
-147.912
0
LINE
8
Black
10
123.504
20
-147.912
11
123.218
21
-147.769
0
LINE
8
Black
10
123.218
20
-147.769
11
123.075
21
-147.626
0
LINE
8
Black
10
128.361
20
-147.769
11
128.646
21
-147.912
0
LINE
8
Black
10
128.646
20
-147.912
11
129.218
21
-147.912
0
LINE
8
Black
10
129.218
20
-147.912
11
129.504
21
-147.769
0
LINE
8
Black
10
129.504
20
-147.769
11
129.646
21
-147.484
0
LINE
8
Black
10
129.646
20
-147.484
11
129.646
21
-147.341
0
LINE
8
Black
10
129.646
20
-147.341
11
129.504
21
-147.055
0
LINE
8
Black
10
129.504
20
-147.055
11
129.218
21
-146.912
0
LINE
8
Black
10
129.218
20
-146.912
11
128.789
21
-146.912
0
LINE
8
Black
10
128.789
20
-146.912
11
128.504
21
-146.769
0
LINE
8
Black
10
128.504
20
-146.769
11
128.361
21
-146.484
0
LINE
8
Black
10
128.361
20
-146.484
11
128.361
21
-146.341
0
LINE
8
Black
10
128.361
20
-146.341
11
128.504
21
-146.055
0
LINE
8
Black
10
128.504
20
-146.055
11
128.789
21
-145.912
0
LINE
8
Black
10
128.789
20
-145.912
11
129.218
21
-145.912
0
LINE
8
Black
10
129.218
20
-145.912
11
129.504
21
-146.055
0
LINE
8
Black
10
131.361
20
-147.912
11
131.075
21
-147.769
0
LINE
8
Black
10
131.075
20
-147.769
11
130.932
21
-147.484
0
LINE
8
Black
10
130.932
20
-147.484
11
130.932
21
-144.912
0
LINE
8
Black
10
132.932
20
-147.912
11
132.646
21
-147.769
0
LINE
8
Black
10
132.646
20
-147.769
11
132.504
21
-147.626
0
LINE
8
Black
10
132.504
20
-147.626
11
132.361
21
-147.341
0
LINE
8
Black
10
132.361
20
-147.341
11
132.361
21
-146.484
0
LINE
8
Black
10
132.361
20
-146.484
11
132.504
21
-146.198
0
LINE
8
Black
10
132.504
20
-146.198
11
132.646
21
-146.055
0
LINE
8
Black
10
132.646
20
-146.055
11
132.932
21
-145.912
0
LINE
8
Black
10
132.932
20
-145.912
11
133.361
21
-145.912
0
LINE
8
Black
10
133.361
20
-145.912
11
133.646
21
-146.055
0
LINE
8
Black
10
133.646
20
-146.055
11
133.789
21
-146.198
0
LINE
8
Black
10
133.789
20
-146.198
11
133.932
21
-146.484
0
LINE
8
Black
10
133.932
20
-146.484
11
133.932
21
-147.341
0
LINE
8
Black
10
133.932
20
-147.341
11
133.789
21
-147.626
0
LINE
8
Black
10
133.789
20
-147.626
11
133.646
21
-147.769
0
LINE
8
Black
10
133.646
20
-147.769
11
133.361
21
-147.912
0
LINE
8
Black
10
133.361
20
-147.912
11
132.932
21
-147.912
0
LINE
8
Black
10
134.789
20
-145.912
11
135.932
21
-145.912
0
LINE
8
Black
10
135.218
20
-144.912
11
135.218
21
-147.484
0
LINE
8
Black
10
135.218
20
-147.484
11
135.361
21
-147.769
0
LINE
8
Black
10
135.361
20
-147.769
11
135.646
21
-147.912
0
LINE
8
Black
10
135.646
20
-147.912
11
135.932
21
-147.912
0
LINE
8
Black
10
136.789
20
-147.769
11
137.075
21
-147.912
0
LINE
8
Black
10
137.075
20
-147.912
11
137.646
21
-147.912
0
LINE
8
Black
10
137.646
20
-147.912
11
137.932
21
-147.769
0
LINE
8
Black
10
137.932
20
-147.769
11
138.075
21
-147.484
0
LINE
8
Black
10
138.075
20
-147.484
11
138.075
21
-147.341
0
LINE
8
Black
10
138.075
20
-147.341
11
137.932
21
-147.055
0
LINE
8
Black
10
137.932
20
-147.055
11
137.646
21
-146.912
0
LINE
8
Black
10
137.646
20
-146.912
11
137.218
21
-146.912
0
LINE
8
Black
10
137.218
20
-146.912
11
136.932
21
-146.769
0
LINE
8
Black
10
136.932
20
-146.769
11
136.789
21
-146.484
0
LINE
8
Black
10
136.789
20
-146.484
11
136.789
21
-146.341
0
LINE
8
Black
10
136.789
20
-146.341
11
136.932
21
-146.055
0
LINE
8
Black
10
136.932
20
-146.055
11
137.218
21
-145.912
0
LINE
8
Black
10
137.218
20
-145.912
11
137.646
21
-145.912
0
LINE
8
Black
10
137.646
20
-145.912
11
137.932
21
-146.055
0
LINE
8
Black
10
139.075
20
-149.055
11
139.218
21
-148.912
0
LINE
8
Black
10
139.218
20
-148.912
11
139.504
21
-148.484
0
LINE
8
Black
10
139.504
20
-148.484
11
139.646
21
-148.198
0
LINE
8
Black
10
139.646
20
-148.198
11
139.789
21
-147.769
0
LINE
8
Black
10
139.789
20
-147.769
11
139.932
21
-147.055
0
LINE
8
Black
10
139.932
20
-147.055
11
139.932
21
-146.484
0
LINE
8
Black
10
139.932
20
-146.484
11
139.789
21
-145.769
0
LINE
8
Black
10
139.789
20
-145.769
11
139.646
21
-145.341
0
LINE
8
Black
10
139.646
20
-145.341
11
139.504
21
-145.055
0
LINE
8
Black
10
139.504
20
-145.055
11
139.218
21
-144.626
0
LINE
8
Black
10
139.218
20
-144.626
11
139.075
21
-144.484
0
LINE
8
Black
10
49.5249
20
-150.915
11
49.925
21
-150.515
0
LINE
8
Black
10
49.925
20
-150.515
11
49.5249
21
-150.115
0
LINE
8
Black
10
49.5249
20
-150.115
11
49.1249
21
-150.515
0
LINE
8
Black
10
49.1249
20
-150.515
11
49.5249
21
-150.915
0
LINE
8
Black
10
53.3607
20
-148.872
11
53.6464
21
-148.872
0
LINE
8
Black
10
53.6464
20
-148.872
11
53.9321
21
-149.015
0
LINE
8
Black
10
53.9321
20
-149.015
11
54.075
21
-149.158
0
LINE
8
Black
10
54.075
20
-149.158
11
54.2179
21
-149.444
0
LINE
8
Black
10
54.2179
20
-149.444
11
54.3607
21
-150.015
0
LINE
8
Black
10
54.3607
20
-150.015
11
54.3607
21
-150.729
0
LINE
8
Black
10
54.3607
20
-150.729
11
54.2179
21
-151.301
0
LINE
8
Black
10
54.2179
20
-151.301
11
54.075
21
-151.586
0
LINE
8
Black
10
54.075
20
-151.586
11
53.9321
21
-151.729
0
LINE
8
Black
10
53.9321
20
-151.729
11
53.6464
21
-151.872
0
LINE
8
Black
10
53.6464
20
-151.872
11
53.3607
21
-151.872
0
LINE
8
Black
10
53.3607
20
-151.872
11
53.075
21
-151.729
0
LINE
8
Black
10
53.075
20
-151.729
11
52.9321
21
-151.586
0
LINE
8
Black
10
52.9321
20
-151.586
11
52.7893
21
-151.301
0
LINE
8
Black
10
52.7893
20
-151.301
11
52.6464
21
-150.729
0
LINE
8
Black
10
52.6464
20
-150.729
11
52.6464
21
-150.015
0
LINE
8
Black
10
52.6464
20
-150.015
11
52.7893
21
-149.444
0
LINE
8
Black
10
52.7893
20
-149.444
11
52.9321
21
-149.158
0
LINE
8
Black
10
52.9321
20
-149.158
11
53.075
21
-149.015
0
LINE
8
Black
10
53.075
20
-149.015
11
53.3607
21
-148.872
0
LINE
8
Black
10
55.6464
20
-151.586
11
55.7893
21
-151.729
0
LINE
8
Black
10
55.7893
20
-151.729
11
55.6464
21
-151.872
0
LINE
8
Black
10
55.6464
20
-151.872
11
55.5036
21
-151.729
0
LINE
8
Black
10
55.5036
20
-151.729
11
55.6464
21
-151.586
0
LINE
8
Black
10
55.6464
20
-151.586
11
55.6464
21
-151.872
0
LINE
8
Black
10
57.5036
20
-150.158
11
57.2179
21
-150.015
0
LINE
8
Black
10
57.2179
20
-150.015
11
57.075
21
-149.872
0
LINE
8
Black
10
57.075
20
-149.872
11
56.9321
21
-149.586
0
LINE
8
Black
10
56.9321
20
-149.586
11
56.9321
21
-149.444
0
LINE
8
Black
10
56.9321
20
-149.444
11
57.075
21
-149.158
0
LINE
8
Black
10
57.075
20
-149.158
11
57.2179
21
-149.015
0
LINE
8
Black
10
57.2179
20
-149.015
11
57.5036
21
-148.872
0
LINE
8
Black
10
57.5036
20
-148.872
11
58.075
21
-148.872
0
LINE
8
Black
10
58.075
20
-148.872
11
58.3607
21
-149.015
0
LINE
8
Black
10
58.3607
20
-149.015
11
58.5036
21
-149.158
0
LINE
8
Black
10
58.5036
20
-149.158
11
58.6464
21
-149.444
0
LINE
8
Black
10
58.6464
20
-149.444
11
58.6464
21
-149.586
0
LINE
8
Black
10
58.6464
20
-149.586
11
58.5036
21
-149.872
0
LINE
8
Black
10
58.5036
20
-149.872
11
58.3607
21
-150.015
0
LINE
8
Black
10
58.3607
20
-150.015
11
58.075
21
-150.158
0
LINE
8
Black
10
58.075
20
-150.158
11
57.5036
21
-150.158
0
LINE
8
Black
10
57.5036
20
-150.158
11
57.2179
21
-150.301
0
LINE
8
Black
10
57.2179
20
-150.301
11
57.075
21
-150.444
0
LINE
8
Black
10
57.075
20
-150.444
11
56.9321
21
-150.729
0
LINE
8
Black
10
56.9321
20
-150.729
11
56.9321
21
-151.301
0
LINE
8
Black
10
56.9321
20
-151.301
11
57.075
21
-151.586
0
LINE
8
Black
10
57.075
20
-151.586
11
57.2179
21
-151.729
0
LINE
8
Black
10
57.2179
20
-151.729
11
57.5036
21
-151.872
0
LINE
8
Black
10
57.5036
20
-151.872
11
58.075
21
-151.872
0
LINE
8
Black
10
58.075
20
-151.872
11
58.3607
21
-151.729
0
LINE
8
Black
10
58.3607
20
-151.729
11
58.5036
21
-151.586
0
LINE
8
Black
10
58.5036
20
-151.586
11
58.6464
21
-151.301
0
LINE
8
Black
10
58.6464
20
-151.301
11
58.6464
21
-150.729
0
LINE
8
Black
10
58.6464
20
-150.729
11
58.5036
21
-150.444
0
LINE
8
Black
10
58.5036
20
-150.444
11
58.3607
21
-150.301
0
LINE
8
Black
10
58.3607
20
-150.301
11
58.075
21
-150.158
0
LINE
8
Black
10
60.5036
20
-148.872
11
60.7893
21
-148.872
0
LINE
8
Black
10
60.7893
20
-148.872
11
61.075
21
-149.015
0
LINE
8
Black
10
61.075
20
-149.015
11
61.2179
21
-149.158
0
LINE
8
Black
10
61.2179
20
-149.158
11
61.3607
21
-149.444
0
LINE
8
Black
10
61.3607
20
-149.444
11
61.5036
21
-150.015
0
LINE
8
Black
10
61.5036
20
-150.015
11
61.5036
21
-150.729
0
LINE
8
Black
10
61.5036
20
-150.729
11
61.3607
21
-151.301
0
LINE
8
Black
10
61.3607
20
-151.301
11
61.2179
21
-151.586
0
LINE
8
Black
10
61.2179
20
-151.586
11
61.075
21
-151.729
0
LINE
8
Black
10
61.075
20
-151.729
11
60.7893
21
-151.872
0
LINE
8
Black
10
60.7893
20
-151.872
11
60.5036
21
-151.872
0
LINE
8
Black
10
60.5036
20
-151.872
11
60.2179
21
-151.729
0
LINE
8
Black
10
60.2179
20
-151.729
11
60.075
21
-151.586
0
LINE
8
Black
10
60.075
20
-151.586
11
59.9321
21
-151.301
0
LINE
8
Black
10
59.9321
20
-151.301
11
59.7893
21
-150.729
0
LINE
8
Black
10
59.7893
20
-150.729
11
59.7893
21
-150.015
0
LINE
8
Black
10
59.7893
20
-150.015
11
59.9321
21
-149.444
0
LINE
8
Black
10
59.9321
20
-149.444
11
60.075
21
-149.158
0
LINE
8
Black
10
60.075
20
-149.158
11
60.2179
21
-149.015
0
LINE
8
Black
10
60.2179
20
-149.015
11
60.5036
21
-148.872
0
LINE
8
Black
10
62.7893
20
-151.872
11
62.7893
21
-149.872
0
LINE
8
Black
10
62.7893
20
-150.158
11
62.9321
21
-150.015
0
LINE
8
Black
10
62.9321
20
-150.015
11
63.2179
21
-149.872
0
LINE
8
Black
10
63.2179
20
-149.872
11
63.6464
21
-149.872
0
LINE
8
Black
10
63.6464
20
-149.872
11
63.9321
21
-150.015
0
LINE
8
Black
10
63.9321
20
-150.015
11
64.075
21
-150.301
0
LINE
8
Black
10
64.075
20
-150.301
11
64.075
21
-151.872
0
LINE
8
Black
10
64.075
20
-150.301
11
64.2179
21
-150.015
0
LINE
8
Black
10
64.2179
20
-150.015
11
64.5036
21
-149.872
0
LINE
8
Black
10
64.5036
20
-149.872
11
64.9321
21
-149.872
0
LINE
8
Black
10
64.9321
20
-149.872
11
65.2179
21
-150.015
0
LINE
8
Black
10
65.2179
20
-150.015
11
65.3607
21
-150.301
0
LINE
8
Black
10
65.3607
20
-150.301
11
65.3607
21
-151.872
0
LINE
8
Black
10
66.7893
20
-151.872
11
66.7893
21
-149.872
0
LINE
8
Black
10
66.7893
20
-150.158
11
66.9321
21
-150.015
0
LINE
8
Black
10
66.9321
20
-150.015
11
67.2179
21
-149.872
0
LINE
8
Black
10
67.2179
20
-149.872
11
67.6464
21
-149.872
0
LINE
8
Black
10
67.6464
20
-149.872
11
67.9321
21
-150.015
0
LINE
8
Black
10
67.9321
20
-150.015
11
68.075
21
-150.301
0
LINE
8
Black
10
68.075
20
-150.301
11
68.075
21
-151.872
0
LINE
8
Black
10
68.075
20
-150.301
11
68.2179
21
-150.015
0
LINE
8
Black
10
68.2179
20
-150.015
11
68.5036
21
-149.872
0
LINE
8
Black
10
68.5036
20
-149.872
11
68.9321
21
-149.872
0
LINE
8
Black
10
68.9321
20
-149.872
11
69.2179
21
-150.015
0
LINE
8
Black
10
69.2179
20
-150.015
11
69.3607
21
-150.301
0
LINE
8
Black
10
69.3607
20
-150.301
11
69.3607
21
-151.872
0
LINE
8
Black
10
75.2179
20
-148.729
11
72.6464
21
-152.586
0
LINE
8
Black
10
79.075
20
-148.872
11
79.3607
21
-148.872
0
LINE
8
Black
10
79.3607
20
-148.872
11
79.6464
21
-149.015
0
LINE
8
Black
10
79.6464
20
-149.015
11
79.7893
21
-149.158
0
LINE
8
Black
10
79.7893
20
-149.158
11
79.9321
21
-149.444
0
LINE
8
Black
10
79.9321
20
-149.444
11
80.075
21
-150.015
0
LINE
8
Black
10
80.075
20
-150.015
11
80.075
21
-150.729
0
LINE
8
Black
10
80.075
20
-150.729
11
79.9321
21
-151.301
0
LINE
8
Black
10
79.9321
20
-151.301
11
79.7893
21
-151.586
0
LINE
8
Black
10
79.7893
20
-151.586
11
79.6464
21
-151.729
0
LINE
8
Black
10
79.6464
20
-151.729
11
79.3607
21
-151.872
0
LINE
8
Black
10
79.3607
20
-151.872
11
79.075
21
-151.872
0
LINE
8
Black
10
79.075
20
-151.872
11
78.7893
21
-151.729
0
LINE
8
Black
10
78.7893
20
-151.729
11
78.6464
21
-151.586
0
LINE
8
Black
10
78.6464
20
-151.586
11
78.5036
21
-151.301
0
LINE
8
Black
10
78.5036
20
-151.301
11
78.3607
21
-150.729
0
LINE
8
Black
10
78.3607
20
-150.729
11
78.3607
21
-150.015
0
LINE
8
Black
10
78.3607
20
-150.015
11
78.5036
21
-149.444
0
LINE
8
Black
10
78.5036
20
-149.444
11
78.6464
21
-149.158
0
LINE
8
Black
10
78.6464
20
-149.158
11
78.7893
21
-149.015
0
LINE
8
Black
10
78.7893
20
-149.015
11
79.075
21
-148.872
0
LINE
8
Black
10
81.3607
20
-151.586
11
81.5036
21
-151.729
0
LINE
8
Black
10
81.5036
20
-151.729
11
81.3607
21
-151.872
0
LINE
8
Black
10
81.3607
20
-151.872
11
81.2179
21
-151.729
0
LINE
8
Black
10
81.2179
20
-151.729
11
81.3607
21
-151.586
0
LINE
8
Black
10
81.3607
20
-151.586
11
81.3607
21
-151.872
0
LINE
8
Black
10
83.3607
20
-148.872
11
83.6464
21
-148.872
0
LINE
8
Black
10
83.6464
20
-148.872
11
83.9321
21
-149.015
0
LINE
8
Black
10
83.9321
20
-149.015
11
84.075
21
-149.158
0
LINE
8
Black
10
84.075
20
-149.158
11
84.2179
21
-149.444
0
LINE
8
Black
10
84.2179
20
-149.444
11
84.3607
21
-150.015
0
LINE
8
Black
10
84.3607
20
-150.015
11
84.3607
21
-150.729
0
LINE
8
Black
10
84.3607
20
-150.729
11
84.2179
21
-151.301
0
LINE
8
Black
10
84.2179
20
-151.301
11
84.075
21
-151.586
0
LINE
8
Black
10
84.075
20
-151.586
11
83.9321
21
-151.729
0
LINE
8
Black
10
83.9321
20
-151.729
11
83.6464
21
-151.872
0
LINE
8
Black
10
83.6464
20
-151.872
11
83.3607
21
-151.872
0
LINE
8
Black
10
83.3607
20
-151.872
11
83.075
21
-151.729
0
LINE
8
Black
10
83.075
20
-151.729
11
82.9321
21
-151.586
0
LINE
8
Black
10
82.9321
20
-151.586
11
82.7893
21
-151.301
0
LINE
8
Black
10
82.7893
20
-151.301
11
82.6464
21
-150.729
0
LINE
8
Black
10
82.6464
20
-150.729
11
82.6464
21
-150.015
0
LINE
8
Black
10
82.6464
20
-150.015
11
82.7893
21
-149.444
0
LINE
8
Black
10
82.7893
20
-149.444
11
82.9321
21
-149.158
0
LINE
8
Black
10
82.9321
20
-149.158
11
83.075
21
-149.015
0
LINE
8
Black
10
83.075
20
-149.015
11
83.3607
21
-148.872
0
LINE
8
Black
10
85.3607
20
-148.872
11
87.2179
21
-148.872
0
LINE
8
Black
10
87.2179
20
-148.872
11
86.2179
21
-150.015
0
LINE
8
Black
10
86.2179
20
-150.015
11
86.6464
21
-150.015
0
LINE
8
Black
10
86.6464
20
-150.015
11
86.9321
21
-150.158
0
LINE
8
Black
10
86.9321
20
-150.158
11
87.075
21
-150.301
0
LINE
8
Black
10
87.075
20
-150.301
11
87.2179
21
-150.586
0
LINE
8
Black
10
87.2179
20
-150.586
11
87.2179
21
-151.301
0
LINE
8
Black
10
87.2179
20
-151.301
11
87.075
21
-151.586
0
LINE
8
Black
10
87.075
20
-151.586
11
86.9321
21
-151.729
0
LINE
8
Black
10
86.9321
20
-151.729
11
86.6464
21
-151.872
0
LINE
8
Black
10
86.6464
20
-151.872
11
85.7893
21
-151.872
0
LINE
8
Black
10
85.7893
20
-151.872
11
85.5036
21
-151.729
0
LINE
8
Black
10
85.5036
20
-151.729
11
85.3607
21
-151.586
0
LINE
8
Black
10
88.3607
20
-149.158
11
88.5036
21
-149.015
0
LINE
8
Black
10
88.5036
20
-149.015
11
88.7893
21
-148.872
0
LINE
8
Black
10
88.7893
20
-148.872
11
89.5036
21
-148.872
0
LINE
8
Black
10
89.5036
20
-148.872
11
89.7893
21
-149.015
0
LINE
8
Black
10
89.7893
20
-149.015
11
89.9321
21
-149.158
0
LINE
8
Black
10
89.9321
20
-149.158
11
90.075
21
-149.444
0
LINE
8
Black
10
90.075
20
-149.444
11
90.075
21
-149.729
0
LINE
8
Black
10
90.075
20
-149.729
11
89.9321
21
-150.158
0
LINE
8
Black
10
89.9321
20
-150.158
11
88.2179
21
-151.872
0
LINE
8
Black
10
88.2179
20
-151.872
11
90.075
21
-151.872
0
LINE
8
Black
10
91.2179
20
-148.872
11
91.2179
21
-149.444
0
LINE
8
Black
10
92.3607
20
-148.872
11
92.3607
21
-149.444
0
LINE
8
Black
10
96.7893
20
-153.015
11
96.6464
21
-152.872
0
LINE
8
Black
10
96.6464
20
-152.872
11
96.3607
21
-152.444
0
LINE
8
Black
10
96.3607
20
-152.444
11
96.2179
21
-152.158
0
LINE
8
Black
10
96.2179
20
-152.158
11
96.075
21
-151.729
0
LINE
8
Black
10
96.075
20
-151.729
11
95.9321
21
-151.015
0
LINE
8
Black
10
95.9321
20
-151.015
11
95.9321
21
-150.444
0
LINE
8
Black
10
95.9321
20
-150.444
11
96.075
21
-149.729
0
LINE
8
Black
10
96.075
20
-149.729
11
96.2179
21
-149.301
0
LINE
8
Black
10
96.2179
20
-149.301
11
96.3607
21
-149.015
0
LINE
8
Black
10
96.3607
20
-149.015
11
96.6464
21
-148.586
0
LINE
8
Black
10
96.6464
20
-148.586
11
96.7893
21
-148.444
0
LINE
8
Black
10
97.7893
20
-149.158
11
97.9321
21
-149.015
0
LINE
8
Black
10
97.9321
20
-149.015
11
98.2179
21
-148.872
0
LINE
8
Black
10
98.2179
20
-148.872
11
98.9321
21
-148.872
0
LINE
8
Black
10
98.9321
20
-148.872
11
99.2179
21
-149.015
0
LINE
8
Black
10
99.2179
20
-149.015
11
99.3607
21
-149.158
0
LINE
8
Black
10
99.3607
20
-149.158
11
99.5036
21
-149.444
0
LINE
8
Black
10
99.5036
20
-149.444
11
99.5036
21
-149.729
0
LINE
8
Black
10
99.5036
20
-149.729
11
99.3607
21
-150.158
0
LINE
8
Black
10
99.3607
20
-150.158
11
97.6464
21
-151.872
0
LINE
8
Black
10
97.6464
20
-151.872
11
99.5036
21
-151.872
0
LINE
8
Black
10
103.075
20
-151.872
11
103.075
21
-148.872
0
LINE
8
Black
10
104.361
20
-151.872
11
104.361
21
-150.301
0
LINE
8
Black
10
104.361
20
-150.301
11
104.218
21
-150.015
0
LINE
8
Black
10
104.218
20
-150.015
11
103.932
21
-149.872
0
LINE
8
Black
10
103.932
20
-149.872
11
103.504
21
-149.872
0
LINE
8
Black
10
103.504
20
-149.872
11
103.218
21
-150.015
0
LINE
8
Black
10
103.218
20
-150.015
11
103.075
21
-150.158
0
LINE
8
Black
10
106.218
20
-151.872
11
105.932
21
-151.729
0
LINE
8
Black
10
105.932
20
-151.729
11
105.789
21
-151.586
0
LINE
8
Black
10
105.789
20
-151.586
11
105.646
21
-151.301
0
LINE
8
Black
10
105.646
20
-151.301
11
105.646
21
-150.444
0
LINE
8
Black
10
105.646
20
-150.444
11
105.789
21
-150.158
0
LINE
8
Black
10
105.789
20
-150.158
11
105.932
21
-150.015
0
LINE
8
Black
10
105.932
20
-150.015
11
106.218
21
-149.872
0
LINE
8
Black
10
106.218
20
-149.872
11
106.646
21
-149.872
0
LINE
8
Black
10
106.646
20
-149.872
11
106.932
21
-150.015
0
LINE
8
Black
10
106.932
20
-150.015
11
107.075
21
-150.158
0
LINE
8
Black
10
107.075
20
-150.158
11
107.218
21
-150.444
0
LINE
8
Black
10
107.218
20
-150.444
11
107.218
21
-151.301
0
LINE
8
Black
10
107.218
20
-151.301
11
107.075
21
-151.586
0
LINE
8
Black
10
107.075
20
-151.586
11
106.932
21
-151.729
0
LINE
8
Black
10
106.932
20
-151.729
11
106.646
21
-151.872
0
LINE
8
Black
10
106.646
20
-151.872
11
106.218
21
-151.872
0
LINE
8
Black
10
108.932
20
-151.872
11
108.646
21
-151.729
0
LINE
8
Black
10
108.646
20
-151.729
11
108.504
21
-151.444
0
LINE
8
Black
10
108.504
20
-151.444
11
108.504
21
-148.872
0
LINE
8
Black
10
111.218
20
-151.729
11
110.932
21
-151.872
0
LINE
8
Black
10
110.932
20
-151.872
11
110.361
21
-151.872
0
LINE
8
Black
10
110.361
20
-151.872
11
110.075
21
-151.729
0
LINE
8
Black
10
110.075
20
-151.729
11
109.932
21
-151.444
0
LINE
8
Black
10
109.932
20
-151.444
11
109.932
21
-150.301
0
LINE
8
Black
10
109.932
20
-150.301
11
110.075
21
-150.015
0
LINE
8
Black
10
110.075
20
-150.015
11
110.361
21
-149.872
0
LINE
8
Black
10
110.361
20
-149.872
11
110.932
21
-149.872
0
LINE
8
Black
10
110.932
20
-149.872
11
111.218
21
-150.015
0
LINE
8
Black
10
111.218
20
-150.015
11
111.361
21
-150.301
0
LINE
8
Black
10
111.361
20
-150.301
11
111.361
21
-150.586
0
LINE
8
Black
10
111.361
20
-150.586
11
109.932
21
-150.872
0
LINE
8
Black
10
112.504
20
-151.729
11
112.789
21
-151.872
0
LINE
8
Black
10
112.789
20
-151.872
11
113.361
21
-151.872
0
LINE
8
Black
10
113.361
20
-151.872
11
113.646
21
-151.729
0
LINE
8
Black
10
113.646
20
-151.729
11
113.789
21
-151.444
0
LINE
8
Black
10
113.789
20
-151.444
11
113.789
21
-151.301
0
LINE
8
Black
10
113.789
20
-151.301
11
113.646
21
-151.015
0
LINE
8
Black
10
113.646
20
-151.015
11
113.361
21
-150.872
0
LINE
8
Black
10
113.361
20
-150.872
11
112.932
21
-150.872
0
LINE
8
Black
10
112.932
20
-150.872
11
112.646
21
-150.729
0
LINE
8
Black
10
112.646
20
-150.729
11
112.504
21
-150.444
0
LINE
8
Black
10
112.504
20
-150.444
11
112.504
21
-150.301
0
LINE
8
Black
10
112.504
20
-150.301
11
112.646
21
-150.015
0
LINE
8
Black
10
112.646
20
-150.015
11
112.932
21
-149.872
0
LINE
8
Black
10
112.932
20
-149.872
11
113.361
21
-149.872
0
LINE
8
Black
10
113.361
20
-149.872
11
113.646
21
-150.015
0
LINE
8
Black
10
114.789
20
-153.015
11
114.932
21
-152.872
0
LINE
8
Black
10
114.932
20
-152.872
11
115.218
21
-152.444
0
LINE
8
Black
10
115.218
20
-152.444
11
115.361
21
-152.158
0
LINE
8
Black
10
115.361
20
-152.158
11
115.504
21
-151.729
0
LINE
8
Black
10
115.504
20
-151.729
11
115.646
21
-151.015
0
LINE
8
Black
10
115.646
20
-151.015
11
115.646
21
-150.444
0
LINE
8
Black
10
115.646
20
-150.444
11
115.504
21
-149.729
0
LINE
8
Black
10
115.504
20
-149.729
11
115.361
21
-149.301
0
LINE
8
Black
10
115.361
20
-149.301
11
115.218
21
-149.015
0
LINE
8
Black
10
115.218
20
-149.015
11
114.932
21
-148.586
0
LINE
8
Black
10
114.932
20
-148.586
11
114.789
21
-148.444
0
LINE
8
Black
10
49.025
20
-154.025
11
49.925
21
-154.925
0
LINE
8
Black
10
49.925
20
-154.025
11
49.025
21
-154.925
0
CIRCLE
8
Black
10
49.475
20
-154.475
40
0.45
0
LINE
8
Black
10
53.3607
20
-152.832
11
53.6464
21
-152.832
0
LINE
8
Black
10
53.6464
20
-152.832
11
53.9321
21
-152.975
0
LINE
8
Black
10
53.9321
20
-152.975
11
54.075
21
-153.118
0
LINE
8
Black
10
54.075
20
-153.118
11
54.2179
21
-153.404
0
LINE
8
Black
10
54.2179
20
-153.404
11
54.3607
21
-153.975
0
LINE
8
Black
10
54.3607
20
-153.975
11
54.3607
21
-154.689
0
LINE
8
Black
10
54.3607
20
-154.689
11
54.2179
21
-155.261
0
LINE
8
Black
10
54.2179
20
-155.261
11
54.075
21
-155.546
0
LINE
8
Black
10
54.075
20
-155.546
11
53.9321
21
-155.689
0
LINE
8
Black
10
53.9321
20
-155.689
11
53.6464
21
-155.832
0
LINE
8
Black
10
53.6464
20
-155.832
11
53.3607
21
-155.832
0
LINE
8
Black
10
53.3607
20
-155.832
11
53.075
21
-155.689
0
LINE
8
Black
10
53.075
20
-155.689
11
52.9321
21
-155.546
0
LINE
8
Black
10
52.9321
20
-155.546
11
52.7893
21
-155.261
0
LINE
8
Black
10
52.7893
20
-155.261
11
52.6464
21
-154.689
0
LINE
8
Black
10
52.6464
20
-154.689
11
52.6464
21
-153.975
0
LINE
8
Black
10
52.6464
20
-153.975
11
52.7893
21
-153.404
0
LINE
8
Black
10
52.7893
20
-153.404
11
52.9321
21
-153.118
0
LINE
8
Black
10
52.9321
20
-153.118
11
53.075
21
-152.975
0
LINE
8
Black
10
53.075
20
-152.975
11
53.3607
21
-152.832
0
LINE
8
Black
10
55.6464
20
-155.546
11
55.7893
21
-155.689
0
LINE
8
Black
10
55.7893
20
-155.689
11
55.6464
21
-155.832
0
LINE
8
Black
10
55.6464
20
-155.832
11
55.5036
21
-155.689
0
LINE
8
Black
10
55.5036
20
-155.689
11
55.6464
21
-155.546
0
LINE
8
Black
10
55.6464
20
-155.546
11
55.6464
21
-155.832
0
LINE
8
Black
10
57.2179
20
-155.832
11
57.7893
21
-155.832
0
LINE
8
Black
10
57.7893
20
-155.832
11
58.075
21
-155.689
0
LINE
8
Black
10
58.075
20
-155.689
11
58.2179
21
-155.546
0
LINE
8
Black
10
58.2179
20
-155.546
11
58.5036
21
-155.118
0
LINE
8
Black
10
58.5036
20
-155.118
11
58.6464
21
-154.546
0
LINE
8
Black
10
58.6464
20
-154.546
11
58.6464
21
-153.404
0
LINE
8
Black
10
58.6464
20
-153.404
11
58.5036
21
-153.118
0
LINE
8
Black
10
58.5036
20
-153.118
11
58.3607
21
-152.975
0
LINE
8
Black
10
58.3607
20
-152.975
11
58.075
21
-152.832
0
LINE
8
Black
10
58.075
20
-152.832
11
57.5036
21
-152.832
0
LINE
8
Black
10
57.5036
20
-152.832
11
57.2179
21
-152.975
0
LINE
8
Black
10
57.2179
20
-152.975
11
57.075
21
-153.118
0
LINE
8
Black
10
57.075
20
-153.118
11
56.9321
21
-153.404
0
LINE
8
Black
10
56.9321
20
-153.404
11
56.9321
21
-154.118
0
LINE
8
Black
10
56.9321
20
-154.118
11
57.075
21
-154.404
0
LINE
8
Black
10
57.075
20
-154.404
11
57.2179
21
-154.546
0
LINE
8
Black
10
57.2179
20
-154.546
11
57.5036
21
-154.689
0
LINE
8
Black
10
57.5036
20
-154.689
11
58.075
21
-154.689
0
LINE
8
Black
10
58.075
20
-154.689
11
58.3607
21
-154.546
0
LINE
8
Black
10
58.3607
20
-154.546
11
58.5036
21
-154.404
0
LINE
8
Black
10
58.5036
20
-154.404
11
58.6464
21
-154.118
0
LINE
8
Black
10
60.5036
20
-152.832
11
60.7893
21
-152.832
0
LINE
8
Black
10
60.7893
20
-152.832
11
61.075
21
-152.975
0
LINE
8
Black
10
61.075
20
-152.975
11
61.2179
21
-153.118
0
LINE
8
Black
10
61.2179
20
-153.118
11
61.3607
21
-153.404
0
LINE
8
Black
10
61.3607
20
-153.404
11
61.5036
21
-153.975
0
LINE
8
Black
10
61.5036
20
-153.975
11
61.5036
21
-154.689
0
LINE
8
Black
10
61.5036
20
-154.689
11
61.3607
21
-155.261
0
LINE
8
Black
10
61.3607
20
-155.261
11
61.2179
21
-155.546
0
LINE
8
Black
10
61.2179
20
-155.546
11
61.075
21
-155.689
0
LINE
8
Black
10
61.075
20
-155.689
11
60.7893
21
-155.832
0
LINE
8
Black
10
60.7893
20
-155.832
11
60.5036
21
-155.832
0
LINE
8
Black
10
60.5036
20
-155.832
11
60.2179
21
-155.689
0
LINE
8
Black
10
60.2179
20
-155.689
11
60.075
21
-155.546
0
LINE
8
Black
10
60.075
20
-155.546
11
59.9321
21
-155.261
0
LINE
8
Black
10
59.9321
20
-155.261
11
59.7893
21
-154.689
0
LINE
8
Black
10
59.7893
20
-154.689
11
59.7893
21
-153.975
0
LINE
8
Black
10
59.7893
20
-153.975
11
59.9321
21
-153.404
0
LINE
8
Black
10
59.9321
20
-153.404
11
60.075
21
-153.118
0
LINE
8
Black
10
60.075
20
-153.118
11
60.2179
21
-152.975
0
LINE
8
Black
10
60.2179
20
-152.975
11
60.5036
21
-152.832
0
LINE
8
Black
10
62.7893
20
-155.832
11
62.7893
21
-153.832
0
LINE
8
Black
10
62.7893
20
-154.118
11
62.9321
21
-153.975
0
LINE
8
Black
10
62.9321
20
-153.975
11
63.2179
21
-153.832
0
LINE
8
Black
10
63.2179
20
-153.832
11
63.6464
21
-153.832
0
LINE
8
Black
10
63.6464
20
-153.832
11
63.9321
21
-153.975
0
LINE
8
Black
10
63.9321
20
-153.975
11
64.075
21
-154.261
0
LINE
8
Black
10
64.075
20
-154.261
11
64.075
21
-155.832
0
LINE
8
Black
10
64.075
20
-154.261
11
64.2179
21
-153.975
0
LINE
8
Black
10
64.2179
20
-153.975
11
64.5036
21
-153.832
0
LINE
8
Black
10
64.5036
20
-153.832
11
64.9321
21
-153.832
0
LINE
8
Black
10
64.9321
20
-153.832
11
65.2179
21
-153.975
0
LINE
8
Black
10
65.2179
20
-153.975
11
65.3607
21
-154.261
0
LINE
8
Black
10
65.3607
20
-154.261
11
65.3607
21
-155.832
0
LINE
8
Black
10
66.7893
20
-155.832
11
66.7893
21
-153.832
0
LINE
8
Black
10
66.7893
20
-154.118
11
66.9321
21
-153.975
0
LINE
8
Black
10
66.9321
20
-153.975
11
67.2179
21
-153.832
0
LINE
8
Black
10
67.2179
20
-153.832
11
67.6464
21
-153.832
0
LINE
8
Black
10
67.6464
20
-153.832
11
67.9321
21
-153.975
0
LINE
8
Black
10
67.9321
20
-153.975
11
68.075
21
-154.261
0
LINE
8
Black
10
68.075
20
-154.261
11
68.075
21
-155.832
0
LINE
8
Black
10
68.075
20
-154.261
11
68.2179
21
-153.975
0
LINE
8
Black
10
68.2179
20
-153.975
11
68.5036
21
-153.832
0
LINE
8
Black
10
68.5036
20
-153.832
11
68.9321
21
-153.832
0
LINE
8
Black
10
68.9321
20
-153.832
11
69.2179
21
-153.975
0
LINE
8
Black
10
69.2179
20
-153.975
11
69.3607
21
-154.261
0
LINE
8
Black
10
69.3607
20
-154.261
11
69.3607
21
-155.832
0
LINE
8
Black
10
75.2179
20
-152.689
11
72.6464
21
-156.546
0
LINE
8
Black
10
79.075
20
-152.832
11
79.3607
21
-152.832
0
LINE
8
Black
10
79.3607
20
-152.832
11
79.6464
21
-152.975
0
LINE
8
Black
10
79.6464
20
-152.975
11
79.7893
21
-153.118
0
LINE
8
Black
10
79.7893
20
-153.118
11
79.9321
21
-153.404
0
LINE
8
Black
10
79.9321
20
-153.404
11
80.075
21
-153.975
0
LINE
8
Black
10
80.075
20
-153.975
11
80.075
21
-154.689
0
LINE
8
Black
10
80.075
20
-154.689
11
79.9321
21
-155.261
0
LINE
8
Black
10
79.9321
20
-155.261
11
79.7893
21
-155.546
0
LINE
8
Black
10
79.7893
20
-155.546
11
79.6464
21
-155.689
0
LINE
8
Black
10
79.6464
20
-155.689
11
79.3607
21
-155.832
0
LINE
8
Black
10
79.3607
20
-155.832
11
79.075
21
-155.832
0
LINE
8
Black
10
79.075
20
-155.832
11
78.7893
21
-155.689
0
LINE
8
Black
10
78.7893
20
-155.689
11
78.6464
21
-155.546
0
LINE
8
Black
10
78.6464
20
-155.546
11
78.5036
21
-155.261
0
LINE
8
Black
10
78.5036
20
-155.261
11
78.3607
21
-154.689
0
LINE
8
Black
10
78.3607
20
-154.689
11
78.3607
21
-153.975
0
LINE
8
Black
10
78.3607
20
-153.975
11
78.5036
21
-153.404
0
LINE
8
Black
10
78.5036
20
-153.404
11
78.6464
21
-153.118
0
LINE
8
Black
10
78.6464
20
-153.118
11
78.7893
21
-152.975
0
LINE
8
Black
10
78.7893
20
-152.975
11
79.075
21
-152.832
0
LINE
8
Black
10
81.3607
20
-155.546
11
81.5036
21
-155.689
0
LINE
8
Black
10
81.5036
20
-155.689
11
81.3607
21
-155.832
0
LINE
8
Black
10
81.3607
20
-155.832
11
81.2179
21
-155.689
0
LINE
8
Black
10
81.2179
20
-155.689
11
81.3607
21
-155.546
0
LINE
8
Black
10
81.3607
20
-155.546
11
81.3607
21
-155.832
0
LINE
8
Black
10
83.3607
20
-152.832
11
83.6464
21
-152.832
0
LINE
8
Black
10
83.6464
20
-152.832
11
83.9321
21
-152.975
0
LINE
8
Black
10
83.9321
20
-152.975
11
84.075
21
-153.118
0
LINE
8
Black
10
84.075
20
-153.118
11
84.2179
21
-153.404
0
LINE
8
Black
10
84.2179
20
-153.404
11
84.3607
21
-153.975
0
LINE
8
Black
10
84.3607
20
-153.975
11
84.3607
21
-154.689
0
LINE
8
Black
10
84.3607
20
-154.689
11
84.2179
21
-155.261
0
LINE
8
Black
10
84.2179
20
-155.261
11
84.075
21
-155.546
0
LINE
8
Black
10
84.075
20
-155.546
11
83.9321
21
-155.689
0
LINE
8
Black
10
83.9321
20
-155.689
11
83.6464
21
-155.832
0
LINE
8
Black
10
83.6464
20
-155.832
11
83.3607
21
-155.832
0
LINE
8
Black
10
83.3607
20
-155.832
11
83.075
21
-155.689
0
LINE
8
Black
10
83.075
20
-155.689
11
82.9321
21
-155.546
0
LINE
8
Black
10
82.9321
20
-155.546
11
82.7893
21
-155.261
0
LINE
8
Black
10
82.7893
20
-155.261
11
82.6464
21
-154.689
0
LINE
8
Black
10
82.6464
20
-154.689
11
82.6464
21
-153.975
0
LINE
8
Black
10
82.6464
20
-153.975
11
82.7893
21
-153.404
0
LINE
8
Black
10
82.7893
20
-153.404
11
82.9321
21
-153.118
0
LINE
8
Black
10
82.9321
20
-153.118
11
83.075
21
-152.975
0
LINE
8
Black
10
83.075
20
-152.975
11
83.3607
21
-152.832
0
LINE
8
Black
10
85.3607
20
-152.832
11
87.2179
21
-152.832
0
LINE
8
Black
10
87.2179
20
-152.832
11
86.2179
21
-153.975
0
LINE
8
Black
10
86.2179
20
-153.975
11
86.6464
21
-153.975
0
LINE
8
Black
10
86.6464
20
-153.975
11
86.9321
21
-154.118
0
LINE
8
Black
10
86.9321
20
-154.118
11
87.075
21
-154.261
0
LINE
8
Black
10
87.075
20
-154.261
11
87.2179
21
-154.546
0
LINE
8
Black
10
87.2179
20
-154.546
11
87.2179
21
-155.261
0
LINE
8
Black
10
87.2179
20
-155.261
11
87.075
21
-155.546
0
LINE
8
Black
10
87.075
20
-155.546
11
86.9321
21
-155.689
0
LINE
8
Black
10
86.9321
20
-155.689
11
86.6464
21
-155.832
0
LINE
8
Black
10
86.6464
20
-155.832
11
85.7893
21
-155.832
0
LINE
8
Black
10
85.7893
20
-155.832
11
85.5036
21
-155.689
0
LINE
8
Black
10
85.5036
20
-155.689
11
85.3607
21
-155.546
0
LINE
8
Black
10
89.9321
20
-152.832
11
88.5036
21
-152.832
0
LINE
8
Black
10
88.5036
20
-152.832
11
88.3607
21
-154.261
0
LINE
8
Black
10
88.3607
20
-154.261
11
88.5036
21
-154.118
0
LINE
8
Black
10
88.5036
20
-154.118
11
88.7893
21
-153.975
0
LINE
8
Black
10
88.7893
20
-153.975
11
89.5036
21
-153.975
0
LINE
8
Black
10
89.5036
20
-153.975
11
89.7893
21
-154.118
0
LINE
8
Black
10
89.7893
20
-154.118
11
89.9321
21
-154.261
0
LINE
8
Black
10
89.9321
20
-154.261
11
90.075
21
-154.546
0
LINE
8
Black
10
90.075
20
-154.546
11
90.075
21
-155.261
0
LINE
8
Black
10
90.075
20
-155.261
11
89.9321
21
-155.546
0
LINE
8
Black
10
89.9321
20
-155.546
11
89.7893
21
-155.689
0
LINE
8
Black
10
89.7893
20
-155.689
11
89.5036
21
-155.832
0
LINE
8
Black
10
89.5036
20
-155.832
11
88.7893
21
-155.832
0
LINE
8
Black
10
88.7893
20
-155.832
11
88.5036
21
-155.689
0
LINE
8
Black
10
88.5036
20
-155.689
11
88.3607
21
-155.546
0
LINE
8
Black
10
91.2179
20
-152.832
11
91.2179
21
-153.404
0
LINE
8
Black
10
92.3607
20
-152.832
11
92.3607
21
-153.404
0
LINE
8
Black
10
96.7893
20
-156.975
11
96.6464
21
-156.832
0
LINE
8
Black
10
96.6464
20
-156.832
11
96.3607
21
-156.404
0
LINE
8
Black
10
96.3607
20
-156.404
11
96.2179
21
-156.118
0
LINE
8
Black
10
96.2179
20
-156.118
11
96.075
21
-155.689
0
LINE
8
Black
10
96.075
20
-155.689
11
95.9321
21
-154.975
0
LINE
8
Black
10
95.9321
20
-154.975
11
95.9321
21
-154.404
0
LINE
8
Black
10
95.9321
20
-154.404
11
96.075
21
-153.689
0
LINE
8
Black
10
96.075
20
-153.689
11
96.2179
21
-153.261
0
LINE
8
Black
10
96.2179
20
-153.261
11
96.3607
21
-152.975
0
LINE
8
Black
10
96.3607
20
-152.975
11
96.6464
21
-152.546
0
LINE
8
Black
10
96.6464
20
-152.546
11
96.7893
21
-152.404
0
LINE
8
Black
10
99.2179
20
-153.832
11
99.2179
21
-155.832
0
LINE
8
Black
10
98.5036
20
-152.689
11
97.7893
21
-154.832
0
LINE
8
Black
10
97.7893
20
-154.832
11
99.6464
21
-154.832
0
LINE
8
Black
10
103.075
20
-155.832
11
103.075
21
-152.832
0
LINE
8
Black
10
104.361
20
-155.832
11
104.361
21
-154.261
0
LINE
8
Black
10
104.361
20
-154.261
11
104.218
21
-153.975
0
LINE
8
Black
10
104.218
20
-153.975
11
103.932
21
-153.832
0
LINE
8
Black
10
103.932
20
-153.832
11
103.504
21
-153.832
0
LINE
8
Black
10
103.504
20
-153.832
11
103.218
21
-153.975
0
LINE
8
Black
10
103.218
20
-153.975
11
103.075
21
-154.118
0
LINE
8
Black
10
106.218
20
-155.832
11
105.932
21
-155.689
0
LINE
8
Black
10
105.932
20
-155.689
11
105.789
21
-155.546
0
LINE
8
Black
10
105.789
20
-155.546
11
105.646
21
-155.261
0
LINE
8
Black
10
105.646
20
-155.261
11
105.646
21
-154.404
0
LINE
8
Black
10
105.646
20
-154.404
11
105.789
21
-154.118
0
LINE
8
Black
10
105.789
20
-154.118
11
105.932
21
-153.975
0
LINE
8
Black
10
105.932
20
-153.975
11
106.218
21
-153.832
0
LINE
8
Black
10
106.218
20
-153.832
11
106.646
21
-153.832
0
LINE
8
Black
10
106.646
20
-153.832
11
106.932
21
-153.975
0
LINE
8
Black
10
106.932
20
-153.975
11
107.075
21
-154.118
0
LINE
8
Black
10
107.075
20
-154.118
11
107.218
21
-154.404
0
LINE
8
Black
10
107.218
20
-154.404
11
107.218
21
-155.261
0
LINE
8
Black
10
107.218
20
-155.261
11
107.075
21
-155.546
0
LINE
8
Black
10
107.075
20
-155.546
11
106.932
21
-155.689
0
LINE
8
Black
10
106.932
20
-155.689
11
106.646
21
-155.832
0
LINE
8
Black
10
106.646
20
-155.832
11
106.218
21
-155.832
0
LINE
8
Black
10
108.932
20
-155.832
11
108.646
21
-155.689
0
LINE
8
Black
10
108.646
20
-155.689
11
108.504
21
-155.404
0
LINE
8
Black
10
108.504
20
-155.404
11
108.504
21
-152.832
0
LINE
8
Black
10
111.218
20
-155.689
11
110.932
21
-155.832
0
LINE
8
Black
10
110.932
20
-155.832
11
110.361
21
-155.832
0
LINE
8
Black
10
110.361
20
-155.832
11
110.075
21
-155.689
0
LINE
8
Black
10
110.075
20
-155.689
11
109.932
21
-155.404
0
LINE
8
Black
10
109.932
20
-155.404
11
109.932
21
-154.261
0
LINE
8
Black
10
109.932
20
-154.261
11
110.075
21
-153.975
0
LINE
8
Black
10
110.075
20
-153.975
11
110.361
21
-153.832
0
LINE
8
Black
10
110.361
20
-153.832
11
110.932
21
-153.832
0
LINE
8
Black
10
110.932
20
-153.832
11
111.218
21
-153.975
0
LINE
8
Black
10
111.218
20
-153.975
11
111.361
21
-154.261
0
LINE
8
Black
10
111.361
20
-154.261
11
111.361
21
-154.546
0
LINE
8
Black
10
111.361
20
-154.546
11
109.932
21
-154.832
0
LINE
8
Black
10
112.504
20
-155.689
11
112.789
21
-155.832
0
LINE
8
Black
10
112.789
20
-155.832
11
113.361
21
-155.832
0
LINE
8
Black
10
113.361
20
-155.832
11
113.646
21
-155.689
0
LINE
8
Black
10
113.646
20
-155.689
11
113.789
21
-155.404
0
LINE
8
Black
10
113.789
20
-155.404
11
113.789
21
-155.261
0
LINE
8
Black
10
113.789
20
-155.261
11
113.646
21
-154.975
0
LINE
8
Black
10
113.646
20
-154.975
11
113.361
21
-154.832
0
LINE
8
Black
10
113.361
20
-154.832
11
112.932
21
-154.832
0
LINE
8
Black
10
112.932
20
-154.832
11
112.646
21
-154.689
0
LINE
8
Black
10
112.646
20
-154.689
11
112.504
21
-154.404
0
LINE
8
Black
10
112.504
20
-154.404
11
112.504
21
-154.261
0
LINE
8
Black
10
112.504
20
-154.261
11
112.646
21
-153.975
0
LINE
8
Black
10
112.646
20
-153.975
11
112.932
21
-153.832
0
LINE
8
Black
10
112.932
20
-153.832
11
113.361
21
-153.832
0
LINE
8
Black
10
113.361
20
-153.832
11
113.646
21
-153.975
0
LINE
8
Black
10
114.789
20
-156.975
11
114.932
21
-156.832
0
LINE
8
Black
10
114.932
20
-156.832
11
115.218
21
-156.404
0
LINE
8
Black
10
115.218
20
-156.404
11
115.361
21
-156.118
0
LINE
8
Black
10
115.361
20
-156.118
11
115.504
21
-155.689
0
LINE
8
Black
10
115.504
20
-155.689
11
115.646
21
-154.975
0
LINE
8
Black
10
115.646
20
-154.975
11
115.646
21
-154.404
0
LINE
8
Black
10
115.646
20
-154.404
11
115.504
21
-153.689
0
LINE
8
Black
10
115.504
20
-153.689
11
115.361
21
-153.261
0
LINE
8
Black
10
115.361
20
-153.261
11
115.218
21
-152.975
0
LINE
8
Black
10
115.218
20
-152.975
11
114.932
21
-152.546
0
LINE
8
Black
10
114.932
20
-152.546
11
114.789
21
-152.404
0
LINE
8
Black
10
48.925
20
-157.935
11
49.925
21
-158.935
0
LINE
8
Black
10
49.925
20
-157.935
11
48.925
21
-158.935
0
LINE
8
Black
10
49.425
20
-157.935
11
49.425
21
-158.935
0
LINE
8
Black
10
48.925
20
-158.435
11
49.925
21
-158.435
0
LINE
8
Black
10
54.3607
20
-159.792
11
52.6464
21
-159.792
0
LINE
8
Black
10
53.5036
20
-159.792
11
53.5036
21
-156.792
0
LINE
8
Black
10
53.5036
20
-156.792
11
53.2179
21
-157.221
0
LINE
8
Black
10
53.2179
20
-157.221
11
52.9321
21
-157.506
0
LINE
8
Black
10
52.9321
20
-157.506
11
52.6464
21
-157.649
0
LINE
8
Black
10
55.6464
20
-159.506
11
55.7893
21
-159.649
0
LINE
8
Black
10
55.7893
20
-159.649
11
55.6464
21
-159.792
0
LINE
8
Black
10
55.6464
20
-159.792
11
55.5036
21
-159.649
0
LINE
8
Black
10
55.5036
20
-159.649
11
55.6464
21
-159.506
0
LINE
8
Black
10
55.6464
20
-159.506
11
55.6464
21
-159.792
0
LINE
8
Black
10
57.6464
20
-156.792
11
57.9321
21
-156.792
0
LINE
8
Black
10
57.9321
20
-156.792
11
58.2179
21
-156.935
0
LINE
8
Black
10
58.2179
20
-156.935
11
58.3607
21
-157.078
0
LINE
8
Black
10
58.3607
20
-157.078
11
58.5036
21
-157.364
0
LINE
8
Black
10
58.5036
20
-157.364
11
58.6464
21
-157.935
0
LINE
8
Black
10
58.6464
20
-157.935
11
58.6464
21
-158.649
0
LINE
8
Black
10
58.6464
20
-158.649
11
58.5036
21
-159.221
0
LINE
8
Black
10
58.5036
20
-159.221
11
58.3607
21
-159.506
0
LINE
8
Black
10
58.3607
20
-159.506
11
58.2179
21
-159.649
0
LINE
8
Black
10
58.2179
20
-159.649
11
57.9321
21
-159.792
0
LINE
8
Black
10
57.9321
20
-159.792
11
57.6464
21
-159.792
0
LINE
8
Black
10
57.6464
20
-159.792
11
57.3607
21
-159.649
0
LINE
8
Black
10
57.3607
20
-159.649
11
57.2179
21
-159.506
0
LINE
8
Black
10
57.2179
20
-159.506
11
57.075
21
-159.221
0
LINE
8
Black
10
57.075
20
-159.221
11
56.9321
21
-158.649
0
LINE
8
Black
10
56.9321
20
-158.649
11
56.9321
21
-157.935
0
LINE
8
Black
10
56.9321
20
-157.935
11
57.075
21
-157.364
0
LINE
8
Black
10
57.075
20
-157.364
11
57.2179
21
-157.078
0
LINE
8
Black
10
57.2179
20
-157.078
11
57.3607
21
-156.935
0
LINE
8
Black
10
57.3607
20
-156.935
11
57.6464
21
-156.792
0
LINE
8
Black
10
60.5036
20
-156.792
11
60.7893
21
-156.792
0
LINE
8
Black
10
60.7893
20
-156.792
11
61.075
21
-156.935
0
LINE
8
Black
10
61.075
20
-156.935
11
61.2179
21
-157.078
0
LINE
8
Black
10
61.2179
20
-157.078
11
61.3607
21
-157.364
0
LINE
8
Black
10
61.3607
20
-157.364
11
61.5036
21
-157.935
0
LINE
8
Black
10
61.5036
20
-157.935
11
61.5036
21
-158.649
0
LINE
8
Black
10
61.5036
20
-158.649
11
61.3607
21
-159.221
0
LINE
8
Black
10
61.3607
20
-159.221
11
61.2179
21
-159.506
0
LINE
8
Black
10
61.2179
20
-159.506
11
61.075
21
-159.649
0
LINE
8
Black
10
61.075
20
-159.649
11
60.7893
21
-159.792
0
LINE
8
Black
10
60.7893
20
-159.792
11
60.5036
21
-159.792
0
LINE
8
Black
10
60.5036
20
-159.792
11
60.2179
21
-159.649
0
LINE
8
Black
10
60.2179
20
-159.649
11
60.075
21
-159.506
0
LINE
8
Black
10
60.075
20
-159.506
11
59.9321
21
-159.221
0
LINE
8
Black
10
59.9321
20
-159.221
11
59.7893
21
-158.649
0
LINE
8
Black
10
59.7893
20
-158.649
11
59.7893
21
-157.935
0
LINE
8
Black
10
59.7893
20
-157.935
11
59.9321
21
-157.364
0
LINE
8
Black
10
59.9321
20
-157.364
11
60.075
21
-157.078
0
LINE
8
Black
10
60.075
20
-157.078
11
60.2179
21
-156.935
0
LINE
8
Black
10
60.2179
20
-156.935
11
60.5036
21
-156.792
0
LINE
8
Black
10
62.7893
20
-159.792
11
62.7893
21
-157.792
0
LINE
8
Black
10
62.7893
20
-158.078
11
62.9321
21
-157.935
0
LINE
8
Black
10
62.9321
20
-157.935
11
63.2179
21
-157.792
0
LINE
8
Black
10
63.2179
20
-157.792
11
63.6464
21
-157.792
0
LINE
8
Black
10
63.6464
20
-157.792
11
63.9321
21
-157.935
0
LINE
8
Black
10
63.9321
20
-157.935
11
64.075
21
-158.221
0
LINE
8
Black
10
64.075
20
-158.221
11
64.075
21
-159.792
0
LINE
8
Black
10
64.075
20
-158.221
11
64.2179
21
-157.935
0
LINE
8
Black
10
64.2179
20
-157.935
11
64.5036
21
-157.792
0
LINE
8
Black
10
64.5036
20
-157.792
11
64.9321
21
-157.792
0
LINE
8
Black
10
64.9321
20
-157.792
11
65.2179
21
-157.935
0
LINE
8
Black
10
65.2179
20
-157.935
11
65.3607
21
-158.221
0
LINE
8
Black
10
65.3607
20
-158.221
11
65.3607
21
-159.792
0
LINE
8
Black
10
66.7893
20
-159.792
11
66.7893
21
-157.792
0
LINE
8
Black
10
66.7893
20
-158.078
11
66.9321
21
-157.935
0
LINE
8
Black
10
66.9321
20
-157.935
11
67.2179
21
-157.792
0
LINE
8
Black
10
67.2179
20
-157.792
11
67.6464
21
-157.792
0
LINE
8
Black
10
67.6464
20
-157.792
11
67.9321
21
-157.935
0
LINE
8
Black
10
67.9321
20
-157.935
11
68.075
21
-158.221
0
LINE
8
Black
10
68.075
20
-158.221
11
68.075
21
-159.792
0
LINE
8
Black
10
68.075
20
-158.221
11
68.2179
21
-157.935
0
LINE
8
Black
10
68.2179
20
-157.935
11
68.5036
21
-157.792
0
LINE
8
Black
10
68.5036
20
-157.792
11
68.9321
21
-157.792
0
LINE
8
Black
10
68.9321
20
-157.792
11
69.2179
21
-157.935
0
LINE
8
Black
10
69.2179
20
-157.935
11
69.3607
21
-158.221
0
LINE
8
Black
10
69.3607
20
-158.221
11
69.3607
21
-159.792
0
LINE
8
Black
10
75.2179
20
-156.649
11
72.6464
21
-160.506
0
LINE
8
Black
10
79.075
20
-156.792
11
79.3607
21
-156.792
0
LINE
8
Black
10
79.3607
20
-156.792
11
79.6464
21
-156.935
0
LINE
8
Black
10
79.6464
20
-156.935
11
79.7893
21
-157.078
0
LINE
8
Black
10
79.7893
20
-157.078
11
79.9321
21
-157.364
0
LINE
8
Black
10
79.9321
20
-157.364
11
80.075
21
-157.935
0
LINE
8
Black
10
80.075
20
-157.935
11
80.075
21
-158.649
0
LINE
8
Black
10
80.075
20
-158.649
11
79.9321
21
-159.221
0
LINE
8
Black
10
79.9321
20
-159.221
11
79.7893
21
-159.506
0
LINE
8
Black
10
79.7893
20
-159.506
11
79.6464
21
-159.649
0
LINE
8
Black
10
79.6464
20
-159.649
11
79.3607
21
-159.792
0
LINE
8
Black
10
79.3607
20
-159.792
11
79.075
21
-159.792
0
LINE
8
Black
10
79.075
20
-159.792
11
78.7893
21
-159.649
0
LINE
8
Black
10
78.7893
20
-159.649
11
78.6464
21
-159.506
0
LINE
8
Black
10
78.6464
20
-159.506
11
78.5036
21
-159.221
0
LINE
8
Black
10
78.5036
20
-159.221
11
78.3607
21
-158.649
0
LINE
8
Black
10
78.3607
20
-158.649
11
78.3607
21
-157.935
0
LINE
8
Black
10
78.3607
20
-157.935
11
78.5036
21
-157.364
0
LINE
8
Black
10
78.5036
20
-157.364
11
78.6464
21
-157.078
0
LINE
8
Black
10
78.6464
20
-157.078
11
78.7893
21
-156.935
0
LINE
8
Black
10
78.7893
20
-156.935
11
79.075
21
-156.792
0
LINE
8
Black
10
81.3607
20
-159.506
11
81.5036
21
-159.649
0
LINE
8
Black
10
81.5036
20
-159.649
11
81.3607
21
-159.792
0
LINE
8
Black
10
81.3607
20
-159.792
11
81.2179
21
-159.649
0
LINE
8
Black
10
81.2179
20
-159.649
11
81.3607
21
-159.506
0
LINE
8
Black
10
81.3607
20
-159.506
11
81.3607
21
-159.792
0
LINE
8
Black
10
83.3607
20
-156.792
11
83.6464
21
-156.792
0
LINE
8
Black
10
83.6464
20
-156.792
11
83.9321
21
-156.935
0
LINE
8
Black
10
83.9321
20
-156.935
11
84.075
21
-157.078
0
LINE
8
Black
10
84.075
20
-157.078
11
84.2179
21
-157.364
0
LINE
8
Black
10
84.2179
20
-157.364
11
84.3607
21
-157.935
0
LINE
8
Black
10
84.3607
20
-157.935
11
84.3607
21
-158.649
0
LINE
8
Black
10
84.3607
20
-158.649
11
84.2179
21
-159.221
0
LINE
8
Black
10
84.2179
20
-159.221
11
84.075
21
-159.506
0
LINE
8
Black
10
84.075
20
-159.506
11
83.9321
21
-159.649
0
LINE
8
Black
10
83.9321
20
-159.649
11
83.6464
21
-159.792
0
LINE
8
Black
10
83.6464
20
-159.792
11
83.3607
21
-159.792
0
LINE
8
Black
10
83.3607
20
-159.792
11
83.075
21
-159.649
0
LINE
8
Black
10
83.075
20
-159.649
11
82.9321
21
-159.506
0
LINE
8
Black
10
82.9321
20
-159.506
11
82.7893
21
-159.221
0
LINE
8
Black
10
82.7893
20
-159.221
11
82.6464
21
-158.649
0
LINE
8
Black
10
82.6464
20
-158.649
11
82.6464
21
-157.935
0
LINE
8
Black
10
82.6464
20
-157.935
11
82.7893
21
-157.364
0
LINE
8
Black
10
82.7893
20
-157.364
11
82.9321
21
-157.078
0
LINE
8
Black
10
82.9321
20
-157.078
11
83.075
21
-156.935
0
LINE
8
Black
10
83.075
20
-156.935
11
83.3607
21
-156.792
0
LINE
8
Black
10
85.3607
20
-156.792
11
87.2179
21
-156.792
0
LINE
8
Black
10
87.2179
20
-156.792
11
86.2179
21
-157.935
0
LINE
8
Black
10
86.2179
20
-157.935
11
86.6464
21
-157.935
0
LINE
8
Black
10
86.6464
20
-157.935
11
86.9321
21
-158.078
0
LINE
8
Black
10
86.9321
20
-158.078
11
87.075
21
-158.221
0
LINE
8
Black
10
87.075
20
-158.221
11
87.2179
21
-158.506
0
LINE
8
Black
10
87.2179
20
-158.506
11
87.2179
21
-159.221
0
LINE
8
Black
10
87.2179
20
-159.221
11
87.075
21
-159.506
0
LINE
8
Black
10
87.075
20
-159.506
11
86.9321
21
-159.649
0
LINE
8
Black
10
86.9321
20
-159.649
11
86.6464
21
-159.792
0
LINE
8
Black
10
86.6464
20
-159.792
11
85.7893
21
-159.792
0
LINE
8
Black
10
85.7893
20
-159.792
11
85.5036
21
-159.649
0
LINE
8
Black
10
85.5036
20
-159.649
11
85.3607
21
-159.506
0
LINE
8
Black
10
88.6464
20
-159.792
11
89.2179
21
-159.792
0
LINE
8
Black
10
89.2179
20
-159.792
11
89.5036
21
-159.649
0
LINE
8
Black
10
89.5036
20
-159.649
11
89.6464
21
-159.506
0
LINE
8
Black
10
89.6464
20
-159.506
11
89.9321
21
-159.078
0
LINE
8
Black
10
89.9321
20
-159.078
11
90.075
21
-158.506
0
LINE
8
Black
10
90.075
20
-158.506
11
90.075
21
-157.364
0
LINE
8
Black
10
90.075
20
-157.364
11
89.9321
21
-157.078
0
LINE
8
Black
10
89.9321
20
-157.078
11
89.7893
21
-156.935
0
LINE
8
Black
10
89.7893
20
-156.935
11
89.5036
21
-156.792
0
LINE
8
Black
10
89.5036
20
-156.792
11
88.9321
21
-156.792
0
LINE
8
Black
10
88.9321
20
-156.792
11
88.6464
21
-156.935
0
LINE
8
Black
10
88.6464
20
-156.935
11
88.5036
21
-157.078
0
LINE
8
Black
10
88.5036
20
-157.078
11
88.3607
21
-157.364
0
LINE
8
Black
10
88.3607
20
-157.364
11
88.3607
21
-158.078
0
LINE
8
Black
10
88.3607
20
-158.078
11
88.5036
21
-158.364
0
LINE
8
Black
10
88.5036
20
-158.364
11
88.6464
21
-158.506
0
LINE
8
Black
10
88.6464
20
-158.506
11
88.9321
21
-158.649
0
LINE
8
Black
10
88.9321
20
-158.649
11
89.5036
21
-158.649
0
LINE
8
Black
10
89.5036
20
-158.649
11
89.7893
21
-158.506
0
LINE
8
Black
10
89.7893
20
-158.506
11
89.9321
21
-158.364
0
LINE
8
Black
10
89.9321
20
-158.364
11
90.075
21
-158.078
0
LINE
8
Black
10
91.2179
20
-156.792
11
91.2179
21
-157.364
0
LINE
8
Black
10
92.3607
20
-156.792
11
92.3607
21
-157.364
0
LINE
8
Black
10
96.7893
20
-160.935
11
96.6464
21
-160.792
0
LINE
8
Black
10
96.6464
20
-160.792
11
96.3607
21
-160.364
0
LINE
8
Black
10
96.3607
20
-160.364
11
96.2179
21
-160.078
0
LINE
8
Black
10
96.2179
20
-160.078
11
96.075
21
-159.649
0
LINE
8
Black
10
96.075
20
-159.649
11
95.9321
21
-158.935
0
LINE
8
Black
10
95.9321
20
-158.935
11
95.9321
21
-158.364
0
LINE
8
Black
10
95.9321
20
-158.364
11
96.075
21
-157.649
0
LINE
8
Black
10
96.075
20
-157.649
11
96.2179
21
-157.221
0
LINE
8
Black
10
96.2179
20
-157.221
11
96.3607
21
-156.935
0
LINE
8
Black
10
96.3607
20
-156.935
11
96.6464
21
-156.506
0
LINE
8
Black
10
96.6464
20
-156.506
11
96.7893
21
-156.364
0
LINE
8
Black
10
99.2179
20
-156.792
11
98.6464
21
-156.792
0
LINE
8
Black
10
98.6464
20
-156.792
11
98.3607
21
-156.935
0
LINE
8
Black
10
98.3607
20
-156.935
11
98.2179
21
-157.078
0
LINE
8
Black
10
98.2179
20
-157.078
11
97.9321
21
-157.506
0
LINE
8
Black
10
97.9321
20
-157.506
11
97.7893
21
-158.078
0
LINE
8
Black
10
97.7893
20
-158.078
11
97.7893
21
-159.221
0
LINE
8
Black
10
97.7893
20
-159.221
11
97.9321
21
-159.506
0
LINE
8
Black
10
97.9321
20
-159.506
11
98.075
21
-159.649
0
LINE
8
Black
10
98.075
20
-159.649
11
98.3607
21
-159.792
0
LINE
8
Black
10
98.3607
20
-159.792
11
98.9321
21
-159.792
0
LINE
8
Black
10
98.9321
20
-159.792
11
99.2179
21
-159.649
0
LINE
8
Black
10
99.2179
20
-159.649
11
99.3607
21
-159.506
0
LINE
8
Black
10
99.3607
20
-159.506
11
99.5036
21
-159.221
0
LINE
8
Black
10
99.5036
20
-159.221
11
99.5036
21
-158.506
0
LINE
8
Black
10
99.5036
20
-158.506
11
99.3607
21
-158.221
0
LINE
8
Black
10
99.3607
20
-158.221
11
99.2179
21
-158.078
0
LINE
8
Black
10
99.2179
20
-158.078
11
98.9321
21
-157.935
0
LINE
8
Black
10
98.9321
20
-157.935
11
98.3607
21
-157.935
0
LINE
8
Black
10
98.3607
20
-157.935
11
98.075
21
-158.078
0
LINE
8
Black
10
98.075
20
-158.078
11
97.9321
21
-158.221
0
LINE
8
Black
10
97.9321
20
-158.221
11
97.7893
21
-158.506
0
LINE
8
Black
10
103.075
20
-159.792
11
103.075
21
-156.792
0
LINE
8
Black
10
104.361
20
-159.792
11
104.361
21
-158.221
0
LINE
8
Black
10
104.361
20
-158.221
11
104.218
21
-157.935
0
LINE
8
Black
10
104.218
20
-157.935
11
103.932
21
-157.792
0
LINE
8
Black
10
103.932
20
-157.792
11
103.504
21
-157.792
0
LINE
8
Black
10
103.504
20
-157.792
11
103.218
21
-157.935
0
LINE
8
Black
10
103.218
20
-157.935
11
103.075
21
-158.078
0
LINE
8
Black
10
106.218
20
-159.792
11
105.932
21
-159.649
0
LINE
8
Black
10
105.932
20
-159.649
11
105.789
21
-159.506
0
LINE
8
Black
10
105.789
20
-159.506
11
105.646
21
-159.221
0
LINE
8
Black
10
105.646
20
-159.221
11
105.646
21
-158.364
0
LINE
8
Black
10
105.646
20
-158.364
11
105.789
21
-158.078
0
LINE
8
Black
10
105.789
20
-158.078
11
105.932
21
-157.935
0
LINE
8
Black
10
105.932
20
-157.935
11
106.218
21
-157.792
0
LINE
8
Black
10
106.218
20
-157.792
11
106.646
21
-157.792
0
LINE
8
Black
10
106.646
20
-157.792
11
106.932
21
-157.935
0
LINE
8
Black
10
106.932
20
-157.935
11
107.075
21
-158.078
0
LINE
8
Black
10
107.075
20
-158.078
11
107.218
21
-158.364
0
LINE
8
Black
10
107.218
20
-158.364
11
107.218
21
-159.221
0
LINE
8
Black
10
107.218
20
-159.221
11
107.075
21
-159.506
0
LINE
8
Black
10
107.075
20
-159.506
11
106.932
21
-159.649
0
LINE
8
Black
10
106.932
20
-159.649
11
106.646
21
-159.792
0
LINE
8
Black
10
106.646
20
-159.792
11
106.218
21
-159.792
0
LINE
8
Black
10
108.932
20
-159.792
11
108.646
21
-159.649
0
LINE
8
Black
10
108.646
20
-159.649
11
108.504
21
-159.364
0
LINE
8
Black
10
108.504
20
-159.364
11
108.504
21
-156.792
0
LINE
8
Black
10
111.218
20
-159.649
11
110.932
21
-159.792
0
LINE
8
Black
10
110.932
20
-159.792
11
110.361
21
-159.792
0
LINE
8
Black
10
110.361
20
-159.792
11
110.075
21
-159.649
0
LINE
8
Black
10
110.075
20
-159.649
11
109.932
21
-159.364
0
LINE
8
Black
10
109.932
20
-159.364
11
109.932
21
-158.221
0
LINE
8
Black
10
109.932
20
-158.221
11
110.075
21
-157.935
0
LINE
8
Black
10
110.075
20
-157.935
11
110.361
21
-157.792
0
LINE
8
Black
10
110.361
20
-157.792
11
110.932
21
-157.792
0
LINE
8
Black
10
110.932
20
-157.792
11
111.218
21
-157.935
0
LINE
8
Black
10
111.218
20
-157.935
11
111.361
21
-158.221
0
LINE
8
Black
10
111.361
20
-158.221
11
111.361
21
-158.506
0
LINE
8
Black
10
111.361
20
-158.506
11
109.932
21
-158.792
0
LINE
8
Black
10
112.504
20
-159.649
11
112.789
21
-159.792
0
LINE
8
Black
10
112.789
20
-159.792
11
113.361
21
-159.792
0
LINE
8
Black
10
113.361
20
-159.792
11
113.646
21
-159.649
0
LINE
8
Black
10
113.646
20
-159.649
11
113.789
21
-159.364
0
LINE
8
Black
10
113.789
20
-159.364
11
113.789
21
-159.221
0
LINE
8
Black
10
113.789
20
-159.221
11
113.646
21
-158.935
0
LINE
8
Black
10
113.646
20
-158.935
11
113.361
21
-158.792
0
LINE
8
Black
10
113.361
20
-158.792
11
112.932
21
-158.792
0
LINE
8
Black
10
112.932
20
-158.792
11
112.646
21
-158.649
0
LINE
8
Black
10
112.646
20
-158.649
11
112.504
21
-158.364
0
LINE
8
Black
10
112.504
20
-158.364
11
112.504
21
-158.221
0
LINE
8
Black
10
112.504
20
-158.221
11
112.646
21
-157.935
0
LINE
8
Black
10
112.646
20
-157.935
11
112.932
21
-157.792
0
LINE
8
Black
10
112.932
20
-157.792
11
113.361
21
-157.792
0
LINE
8
Black
10
113.361
20
-157.792
11
113.646
21
-157.935
0
LINE
8
Black
10
114.789
20
-160.935
11
114.932
21
-160.792
0
LINE
8
Black
10
114.932
20
-160.792
11
115.218
21
-160.364
0
LINE
8
Black
10
115.218
20
-160.364
11
115.361
21
-160.078
0
LINE
8
Black
10
115.361
20
-160.078
11
115.504
21
-159.649
0
LINE
8
Black
10
115.504
20
-159.649
11
115.646
21
-158.935
0
LINE
8
Black
10
115.646
20
-158.935
11
115.646
21
-158.364
0
LINE
8
Black
10
115.646
20
-158.364
11
115.504
21
-157.649
0
LINE
8
Black
10
115.504
20
-157.649
11
115.361
21
-157.221
0
LINE
8
Black
10
115.361
20
-157.221
11
115.218
21
-156.935
0
LINE
8
Black
10
115.218
20
-156.935
11
114.932
21
-156.506
0
LINE
8
Black
10
114.932
20
-156.506
11
114.789
21
-156.364
0
LINE
8
Black
10
48.909
20
-161.887
11
49.925
21
-162.903
0
LINE
8
Black
10
49.925
20
-161.887
11
48.909
21
-162.903
0
LINE
8
Black
10
49.7762
20
-162.754
11
49.7762
21
-162.036
0
LINE
8
Black
10
49.7762
20
-162.036
11
49.0578
21
-162.036
0
LINE
8
Black
10
49.0578
20
-162.036
11
49.0578
21
-162.754
0
LINE
8
Black
10
49.0578
20
-162.754
11
49.7762
21
-162.754
0
LINE
8
Black
10
54.3607
20
-163.752
11
52.6464
21
-163.752
0
LINE
8
Black
10
53.5036
20
-163.752
11
53.5036
21
-160.752
0
LINE
8
Black
10
53.5036
20
-160.752
11
53.2179
21
-161.181
0
LINE
8
Black
10
53.2179
20
-161.181
11
52.9321
21
-161.466
0
LINE
8
Black
10
52.9321
20
-161.466
11
52.6464
21
-161.609
0
LINE
8
Black
10
55.6464
20
-163.466
11
55.7893
21
-163.609
0
LINE
8
Black
10
55.7893
20
-163.609
11
55.6464
21
-163.752
0
LINE
8
Black
10
55.6464
20
-163.752
11
55.5036
21
-163.609
0
LINE
8
Black
10
55.5036
20
-163.609
11
55.6464
21
-163.466
0
LINE
8
Black
10
55.6464
20
-163.466
11
55.6464
21
-163.752
0
LINE
8
Black
10
57.6464
20
-160.752
11
57.9321
21
-160.752
0
LINE
8
Black
10
57.9321
20
-160.752
11
58.2179
21
-160.895
0
LINE
8
Black
10
58.2179
20
-160.895
11
58.3607
21
-161.038
0
LINE
8
Black
10
58.3607
20
-161.038
11
58.5036
21
-161.324
0
LINE
8
Black
10
58.5036
20
-161.324
11
58.6464
21
-161.895
0
LINE
8
Black
10
58.6464
20
-161.895
11
58.6464
21
-162.609
0
LINE
8
Black
10
58.6464
20
-162.609
11
58.5036
21
-163.181
0
LINE
8
Black
10
58.5036
20
-163.181
11
58.3607
21
-163.466
0
LINE
8
Black
10
58.3607
20
-163.466
11
58.2179
21
-163.609
0
LINE
8
Black
10
58.2179
20
-163.609
11
57.9321
21
-163.752
0
LINE
8
Black
10
57.9321
20
-163.752
11
57.6464
21
-163.752
0
LINE
8
Black
10
57.6464
20
-163.752
11
57.3607
21
-163.609
0
LINE
8
Black
10
57.3607
20
-163.609
11
57.2179
21
-163.466
0
LINE
8
Black
10
57.2179
20
-163.466
11
57.075
21
-163.181
0
LINE
8
Black
10
57.075
20
-163.181
11
56.9321
21
-162.609
0
LINE
8
Black
10
56.9321
20
-162.609
11
56.9321
21
-161.895
0
LINE
8
Black
10
56.9321
20
-161.895
11
57.075
21
-161.324
0
LINE
8
Black
10
57.075
20
-161.324
11
57.2179
21
-161.038
0
LINE
8
Black
10
57.2179
20
-161.038
11
57.3607
21
-160.895
0
LINE
8
Black
10
57.3607
20
-160.895
11
57.6464
21
-160.752
0
LINE
8
Black
10
59.7893
20
-161.038
11
59.9321
21
-160.895
0
LINE
8
Black
10
59.9321
20
-160.895
11
60.2179
21
-160.752
0
LINE
8
Black
10
60.2179
20
-160.752
11
60.9321
21
-160.752
0
LINE
8
Black
10
60.9321
20
-160.752
11
61.2179
21
-160.895
0
LINE
8
Black
10
61.2179
20
-160.895
11
61.3607
21
-161.038
0
LINE
8
Black
10
61.3607
20
-161.038
11
61.5036
21
-161.324
0
LINE
8
Black
10
61.5036
20
-161.324
11
61.5036
21
-161.609
0
LINE
8
Black
10
61.5036
20
-161.609
11
61.3607
21
-162.038
0
LINE
8
Black
10
61.3607
20
-162.038
11
59.6464
21
-163.752
0
LINE
8
Black
10
59.6464
20
-163.752
11
61.5036
21
-163.752
0
LINE
8
Black
10
62.7893
20
-163.752
11
62.7893
21
-161.752
0
LINE
8
Black
10
62.7893
20
-162.038
11
62.9321
21
-161.895
0
LINE
8
Black
10
62.9321
20
-161.895
11
63.2179
21
-161.752
0
LINE
8
Black
10
63.2179
20
-161.752
11
63.6464
21
-161.752
0
LINE
8
Black
10
63.6464
20
-161.752
11
63.9321
21
-161.895
0
LINE
8
Black
10
63.9321
20
-161.895
11
64.075
21
-162.181
0
LINE
8
Black
10
64.075
20
-162.181
11
64.075
21
-163.752
0
LINE
8
Black
10
64.075
20
-162.181
11
64.2179
21
-161.895
0
LINE
8
Black
10
64.2179
20
-161.895
11
64.5036
21
-161.752
0
LINE
8
Black
10
64.5036
20
-161.752
11
64.9321
21
-161.752
0
LINE
8
Black
10
64.9321
20
-161.752
11
65.2179
21
-161.895
0
LINE
8
Black
10
65.2179
20
-161.895
11
65.3607
21
-162.181
0
LINE
8
Black
10
65.3607
20
-162.181
11
65.3607
21
-163.752
0
LINE
8
Black
10
66.7893
20
-163.752
11
66.7893
21
-161.752
0
LINE
8
Black
10
66.7893
20
-162.038
11
66.9321
21
-161.895
0
LINE
8
Black
10
66.9321
20
-161.895
11
67.2179
21
-161.752
0
LINE
8
Black
10
67.2179
20
-161.752
11
67.6464
21
-161.752
0
LINE
8
Black
10
67.6464
20
-161.752
11
67.9321
21
-161.895
0
LINE
8
Black
10
67.9321
20
-161.895
11
68.075
21
-162.181
0
LINE
8
Black
10
68.075
20
-162.181
11
68.075
21
-163.752
0
LINE
8
Black
10
68.075
20
-162.181
11
68.2179
21
-161.895
0
LINE
8
Black
10
68.2179
20
-161.895
11
68.5036
21
-161.752
0
LINE
8
Black
10
68.5036
20
-161.752
11
68.9321
21
-161.752
0
LINE
8
Black
10
68.9321
20
-161.752
11
69.2179
21
-161.895
0
LINE
8
Black
10
69.2179
20
-161.895
11
69.3607
21
-162.181
0
LINE
8
Black
10
69.3607
20
-162.181
11
69.3607
21
-163.752
0
LINE
8
Black
10
75.2179
20
-160.609
11
72.6464
21
-164.466
0
LINE
8
Black
10
79.075
20
-160.752
11
79.3607
21
-160.752
0
LINE
8
Black
10
79.3607
20
-160.752
11
79.6464
21
-160.895
0
LINE
8
Black
10
79.6464
20
-160.895
11
79.7893
21
-161.038
0
LINE
8
Black
10
79.7893
20
-161.038
11
79.9321
21
-161.324
0
LINE
8
Black
10
79.9321
20
-161.324
11
80.075
21
-161.895
0
LINE
8
Black
10
80.075
20
-161.895
11
80.075
21
-162.609
0
LINE
8
Black
10
80.075
20
-162.609
11
79.9321
21
-163.181
0
LINE
8
Black
10
79.9321
20
-163.181
11
79.7893
21
-163.466
0
LINE
8
Black
10
79.7893
20
-163.466
11
79.6464
21
-163.609
0
LINE
8
Black
10
79.6464
20
-163.609
11
79.3607
21
-163.752
0
LINE
8
Black
10
79.3607
20
-163.752
11
79.075
21
-163.752
0
LINE
8
Black
10
79.075
20
-163.752
11
78.7893
21
-163.609
0
LINE
8
Black
10
78.7893
20
-163.609
11
78.6464
21
-163.466
0
LINE
8
Black
10
78.6464
20
-163.466
11
78.5036
21
-163.181
0
LINE
8
Black
10
78.5036
20
-163.181
11
78.3607
21
-162.609
0
LINE
8
Black
10
78.3607
20
-162.609
11
78.3607
21
-161.895
0
LINE
8
Black
10
78.3607
20
-161.895
11
78.5036
21
-161.324
0
LINE
8
Black
10
78.5036
20
-161.324
11
78.6464
21
-161.038
0
LINE
8
Black
10
78.6464
20
-161.038
11
78.7893
21
-160.895
0
LINE
8
Black
10
78.7893
20
-160.895
11
79.075
21
-160.752
0
LINE
8
Black
10
81.3607
20
-163.466
11
81.5036
21
-163.609
0
LINE
8
Black
10
81.5036
20
-163.609
11
81.3607
21
-163.752
0
LINE
8
Black
10
81.3607
20
-163.752
11
81.2179
21
-163.609
0
LINE
8
Black
10
81.2179
20
-163.609
11
81.3607
21
-163.466
0
LINE
8
Black
10
81.3607
20
-163.466
11
81.3607
21
-163.752
0
LINE
8
Black
10
83.3607
20
-160.752
11
83.6464
21
-160.752
0
LINE
8
Black
10
83.6464
20
-160.752
11
83.9321
21
-160.895
0
LINE
8
Black
10
83.9321
20
-160.895
11
84.075
21
-161.038
0
LINE
8
Black
10
84.075
20
-161.038
11
84.2179
21
-161.324
0
LINE
8
Black
10
84.2179
20
-161.324
11
84.3607
21
-161.895
0
LINE
8
Black
10
84.3607
20
-161.895
11
84.3607
21
-162.609
0
LINE
8
Black
10
84.3607
20
-162.609
11
84.2179
21
-163.181
0
LINE
8
Black
10
84.2179
20
-163.181
11
84.075
21
-163.466
0
LINE
8
Black
10
84.075
20
-163.466
11
83.9321
21
-163.609
0
LINE
8
Black
10
83.9321
20
-163.609
11
83.6464
21
-163.752
0
LINE
8
Black
10
83.6464
20
-163.752
11
83.3607
21
-163.752
0
LINE
8
Black
10
83.3607
20
-163.752
11
83.075
21
-163.609
0
LINE
8
Black
10
83.075
20
-163.609
11
82.9321
21
-163.466
0
LINE
8
Black
10
82.9321
20
-163.466
11
82.7893
21
-163.181
0
LINE
8
Black
10
82.7893
20
-163.181
11
82.6464
21
-162.609
0
LINE
8
Black
10
82.6464
20
-162.609
11
82.6464
21
-161.895
0
LINE
8
Black
10
82.6464
20
-161.895
11
82.7893
21
-161.324
0
LINE
8
Black
10
82.7893
20
-161.324
11
82.9321
21
-161.038
0
LINE
8
Black
10
82.9321
20
-161.038
11
83.075
21
-160.895
0
LINE
8
Black
10
83.075
20
-160.895
11
83.3607
21
-160.752
0
LINE
8
Black
10
86.9321
20
-161.752
11
86.9321
21
-163.752
0
LINE
8
Black
10
86.2179
20
-160.609
11
85.5036
21
-162.752
0
LINE
8
Black
10
85.5036
20
-162.752
11
87.3607
21
-162.752
0
LINE
8
Black
10
89.075
20
-160.752
11
89.3607
21
-160.752
0
LINE
8
Black
10
89.3607
20
-160.752
11
89.6464
21
-160.895
0
LINE
8
Black
10
89.6464
20
-160.895
11
89.7893
21
-161.038
0
LINE
8
Black
10
89.7893
20
-161.038
11
89.9321
21
-161.324
0
LINE
8
Black
10
89.9321
20
-161.324
11
90.075
21
-161.895
0
LINE
8
Black
10
90.075
20
-161.895
11
90.075
21
-162.609
0
LINE
8
Black
10
90.075
20
-162.609
11
89.9321
21
-163.181
0
LINE
8
Black
10
89.9321
20
-163.181
11
89.7893
21
-163.466
0
LINE
8
Black
10
89.7893
20
-163.466
11
89.6464
21
-163.609
0
LINE
8
Black
10
89.6464
20
-163.609
11
89.3607
21
-163.752
0
LINE
8
Black
10
89.3607
20
-163.752
11
89.075
21
-163.752
0
LINE
8
Black
10
89.075
20
-163.752
11
88.7893
21
-163.609
0
LINE
8
Black
10
88.7893
20
-163.609
11
88.6464
21
-163.466
0
LINE
8
Black
10
88.6464
20
-163.466
11
88.5036
21
-163.181
0
LINE
8
Black
10
88.5036
20
-163.181
11
88.3607
21
-162.609
0
LINE
8
Black
10
88.3607
20
-162.609
11
88.3607
21
-161.895
0
LINE
8
Black
10
88.3607
20
-161.895
11
88.5036
21
-161.324
0
LINE
8
Black
10
88.5036
20
-161.324
11
88.6464
21
-161.038
0
LINE
8
Black
10
88.6464
20
-161.038
11
88.7893
21
-160.895
0
LINE
8
Black
10
88.7893
20
-160.895
11
89.075
21
-160.752
0
LINE
8
Black
10
91.2179
20
-160.752
11
91.2179
21
-161.324
0
LINE
8
Black
10
92.3607
20
-160.752
11
92.3607
21
-161.324
0
LINE
8
Black
10
96.7893
20
-164.895
11
96.6464
21
-164.752
0
LINE
8
Black
10
96.6464
20
-164.752
11
96.3607
21
-164.324
0
LINE
8
Black
10
96.3607
20
-164.324
11
96.2179
21
-164.038
0
LINE
8
Black
10
96.2179
20
-164.038
11
96.075
21
-163.609
0
LINE
8
Black
10
96.075
20
-163.609
11
95.9321
21
-162.895
0
LINE
8
Black
10
95.9321
20
-162.895
11
95.9321
21
-162.324
0
LINE
8
Black
10
95.9321
20
-162.324
11
96.075
21
-161.609
0
LINE
8
Black
10
96.075
20
-161.609
11
96.2179
21
-161.181
0
LINE
8
Black
10
96.2179
20
-161.181
11
96.3607
21
-160.895
0
LINE
8
Black
10
96.3607
20
-160.895
11
96.6464
21
-160.466
0
LINE
8
Black
10
96.6464
20
-160.466
11
96.7893
21
-160.324
0
LINE
8
Black
10
97.7893
20
-161.038
11
97.9321
21
-160.895
0
LINE
8
Black
10
97.9321
20
-160.895
11
98.2179
21
-160.752
0
LINE
8
Black
10
98.2179
20
-160.752
11
98.9321
21
-160.752
0
LINE
8
Black
10
98.9321
20
-160.752
11
99.2179
21
-160.895
0
LINE
8
Black
10
99.2179
20
-160.895
11
99.3607
21
-161.038
0
LINE
8
Black
10
99.3607
20
-161.038
11
99.5036
21
-161.324
0
LINE
8
Black
10
99.5036
20
-161.324
11
99.5036
21
-161.609
0
LINE
8
Black
10
99.5036
20
-161.609
11
99.3607
21
-162.038
0
LINE
8
Black
10
99.3607
20
-162.038
11
97.6464
21
-163.752
0
LINE
8
Black
10
97.6464
20
-163.752
11
99.5036
21
-163.752
0
LINE
8
Black
10
102.361
20
-163.752
11
100.646
21
-163.752
0
LINE
8
Black
10
101.504
20
-163.752
11
101.504
21
-160.752
0
LINE
8
Black
10
101.504
20
-160.752
11
101.218
21
-161.181
0
LINE
8
Black
10
101.218
20
-161.181
11
100.932
21
-161.466
0
LINE
8
Black
10
100.932
20
-161.466
11
100.646
21
-161.609
0
LINE
8
Black
10
105.932
20
-163.752
11
105.932
21
-160.752
0
LINE
8
Black
10
107.218
20
-163.752
11
107.218
21
-162.181
0
LINE
8
Black
10
107.218
20
-162.181
11
107.075
21
-161.895
0
LINE
8
Black
10
107.075
20
-161.895
11
106.789
21
-161.752
0
LINE
8
Black
10
106.789
20
-161.752
11
106.361
21
-161.752
0
LINE
8
Black
10
106.361
20
-161.752
11
106.075
21
-161.895
0
LINE
8
Black
10
106.075
20
-161.895
11
105.932
21
-162.038
0
LINE
8
Black
10
109.075
20
-163.752
11
108.789
21
-163.609
0
LINE
8
Black
10
108.789
20
-163.609
11
108.646
21
-163.466
0
LINE
8
Black
10
108.646
20
-163.466
11
108.504
21
-163.181
0
LINE
8
Black
10
108.504
20
-163.181
11
108.504
21
-162.324
0
LINE
8
Black
10
108.504
20
-162.324
11
108.646
21
-162.038
0
LINE
8
Black
10
108.646
20
-162.038
11
108.789
21
-161.895
0
LINE
8
Black
10
108.789
20
-161.895
11
109.075
21
-161.752
0
LINE
8
Black
10
109.075
20
-161.752
11
109.504
21
-161.752
0
LINE
8
Black
10
109.504
20
-161.752
11
109.789
21
-161.895
0
LINE
8
Black
10
109.789
20
-161.895
11
109.932
21
-162.038
0
LINE
8
Black
10
109.932
20
-162.038
11
110.075
21
-162.324
0
LINE
8
Black
10
110.075
20
-162.324
11
110.075
21
-163.181
0
LINE
8
Black
10
110.075
20
-163.181
11
109.932
21
-163.466
0
LINE
8
Black
10
109.932
20
-163.466
11
109.789
21
-163.609
0
LINE
8
Black
10
109.789
20
-163.609
11
109.504
21
-163.752
0
LINE
8
Black
10
109.504
20
-163.752
11
109.075
21
-163.752
0
LINE
8
Black
10
111.789
20
-163.752
11
111.504
21
-163.609
0
LINE
8
Black
10
111.504
20
-163.609
11
111.361
21
-163.324
0
LINE
8
Black
10
111.361
20
-163.324
11
111.361
21
-160.752
0
LINE
8
Black
10
114.075
20
-163.609
11
113.789
21
-163.752
0
LINE
8
Black
10
113.789
20
-163.752
11
113.218
21
-163.752
0
LINE
8
Black
10
113.218
20
-163.752
11
112.932
21
-163.609
0
LINE
8
Black
10
112.932
20
-163.609
11
112.789
21
-163.324
0
LINE
8
Black
10
112.789
20
-163.324
11
112.789
21
-162.181
0
LINE
8
Black
10
112.789
20
-162.181
11
112.932
21
-161.895
0
LINE
8
Black
10
112.932
20
-161.895
11
113.218
21
-161.752
0
LINE
8
Black
10
113.218
20
-161.752
11
113.789
21
-161.752
0
LINE
8
Black
10
113.789
20
-161.752
11
114.075
21
-161.895
0
LINE
8
Black
10
114.075
20
-161.895
11
114.218
21
-162.181
0
LINE
8
Black
10
114.218
20
-162.181
11
114.218
21
-162.466
0
LINE
8
Black
10
114.218
20
-162.466
11
112.789
21
-162.752
0
LINE
8
Black
10
115.361
20
-163.609
11
115.646
21
-163.752
0
LINE
8
Black
10
115.646
20
-163.752
11
116.218
21
-163.752
0
LINE
8
Black
10
116.218
20
-163.752
11
116.504
21
-163.609
0
LINE
8
Black
10
116.504
20
-163.609
11
116.646
21
-163.324
0
LINE
8
Black
10
116.646
20
-163.324
11
116.646
21
-163.181
0
LINE
8
Black
10
116.646
20
-163.181
11
116.504
21
-162.895
0
LINE
8
Black
10
116.504
20
-162.895
11
116.218
21
-162.752
0
LINE
8
Black
10
116.218
20
-162.752
11
115.789
21
-162.752
0
LINE
8
Black
10
115.789
20
-162.752
11
115.504
21
-162.609
0
LINE
8
Black
10
115.504
20
-162.609
11
115.361
21
-162.324
0
LINE
8
Black
10
115.361
20
-162.324
11
115.361
21
-162.181
0
LINE
8
Black
10
115.361
20
-162.181
11
115.504
21
-161.895
0
LINE
8
Black
10
115.504
20
-161.895
11
115.789
21
-161.752
0
LINE
8
Black
10
115.789
20
-161.752
11
116.218
21
-161.752
0
LINE
8
Black
10
116.218
20
-161.752
11
116.504
21
-161.895
0
LINE
8
Black
10
117.646
20
-164.895
11
117.789
21
-164.752
0
LINE
8
Black
10
117.789
20
-164.752
11
118.075
21
-164.324
0
LINE
8
Black
10
118.075
20
-164.324
11
118.218
21
-164.038
0
LINE
8
Black
10
118.218
20
-164.038
11
118.361
21
-163.609
0
LINE
8
Black
10
118.361
20
-163.609
11
118.504
21
-162.895
0
LINE
8
Black
10
118.504
20
-162.895
11
118.504
21
-162.324
0
LINE
8
Black
10
118.504
20
-162.324
11
118.361
21
-161.609
0
LINE
8
Black
10
118.361
20
-161.609
11
118.218
21
-161.181
0
LINE
8
Black
10
118.218
20
-161.181
11
118.075
21
-160.895
0
LINE
8
Black
10
118.075
20
-160.895
11
117.789
21
-160.466
0
LINE
8
Black
10
117.789
20
-160.466
11
117.646
21
-160.324
0
LINE
8
Black
10
48.725
20
-165.755
11
49.925
21
-166.955
0
LINE
8
Black
10
49.925
20
-165.755
11
48.725
21
-166.955
0
LINE
8
Black
10
49.325
20
-166.955
11
49.925
21
-166.355
0
LINE
8
Black
10
49.925
20
-166.355
11
49.325
21
-165.755
0
LINE
8
Black
10
49.325
20
-165.755
11
48.725
21
-166.355
0
LINE
8
Black
10
48.725
20
-166.355
11
49.325
21
-166.955
0
LINE
8
Black
10
54.3607
20
-167.712
11
52.6464
21
-167.712
0
LINE
8
Black
10
53.5036
20
-167.712
11
53.5036
21
-164.712
0
LINE
8
Black
10
53.5036
20
-164.712
11
53.2179
21
-165.141
0
LINE
8
Black
10
53.2179
20
-165.141
11
52.9321
21
-165.426
0
LINE
8
Black
10
52.9321
20
-165.426
11
52.6464
21
-165.569
0
LINE
8
Black
10
55.6464
20
-167.426
11
55.7893
21
-167.569
0
LINE
8
Black
10
55.7893
20
-167.569
11
55.6464
21
-167.712
0
LINE
8
Black
10
55.6464
20
-167.712
11
55.5036
21
-167.569
0
LINE
8
Black
10
55.5036
20
-167.569
11
55.6464
21
-167.426
0
LINE
8
Black
10
55.6464
20
-167.426
11
55.6464
21
-167.712
0
LINE
8
Black
10
56.9321
20
-164.998
11
57.075
21
-164.855
0
LINE
8
Black
10
57.075
20
-164.855
11
57.3607
21
-164.712
0
LINE
8
Black
10
57.3607
20
-164.712
11
58.075
21
-164.712
0
LINE
8
Black
10
58.075
20
-164.712
11
58.3607
21
-164.855
0
LINE
8
Black
10
58.3607
20
-164.855
11
58.5036
21
-164.998
0
LINE
8
Black
10
58.5036
20
-164.998
11
58.6464
21
-165.284
0
LINE
8
Black
10
58.6464
20
-165.284
11
58.6464
21
-165.569
0
LINE
8
Black
10
58.6464
20
-165.569
11
58.5036
21
-165.998
0
LINE
8
Black
10
58.5036
20
-165.998
11
56.7893
21
-167.712
0
LINE
8
Black
10
56.7893
20
-167.712
11
58.6464
21
-167.712
0
LINE
8
Black
10
60.5036
20
-164.712
11
60.7893
21
-164.712
0
LINE
8
Black
10
60.7893
20
-164.712
11
61.075
21
-164.855
0
LINE
8
Black
10
61.075
20
-164.855
11
61.2179
21
-164.998
0
LINE
8
Black
10
61.2179
20
-164.998
11
61.3607
21
-165.284
0
LINE
8
Black
10
61.3607
20
-165.284
11
61.5036
21
-165.855
0
LINE
8
Black
10
61.5036
20
-165.855
11
61.5036
21
-166.569
0
LINE
8
Black
10
61.5036
20
-166.569
11
61.3607
21
-167.141
0
LINE
8
Black
10
61.3607
20
-167.141
11
61.2179
21
-167.426
0
LINE
8
Black
10
61.2179
20
-167.426
11
61.075
21
-167.569
0
LINE
8
Black
10
61.075
20
-167.569
11
60.7893
21
-167.712
0
LINE
8
Black
10
60.7893
20
-167.712
11
60.5036
21
-167.712
0
LINE
8
Black
10
60.5036
20
-167.712
11
60.2179
21
-167.569
0
LINE
8
Black
10
60.2179
20
-167.569
11
60.075
21
-167.426
0
LINE
8
Black
10
60.075
20
-167.426
11
59.9321
21
-167.141
0
LINE
8
Black
10
59.9321
20
-167.141
11
59.7893
21
-166.569
0
LINE
8
Black
10
59.7893
20
-166.569
11
59.7893
21
-165.855
0
LINE
8
Black
10
59.7893
20
-165.855
11
59.9321
21
-165.284
0
LINE
8
Black
10
59.9321
20
-165.284
11
60.075
21
-164.998
0
LINE
8
Black
10
60.075
20
-164.998
11
60.2179
21
-164.855
0
LINE
8
Black
10
60.2179
20
-164.855
11
60.5036
21
-164.712
0
LINE
8
Black
10
62.7893
20
-167.712
11
62.7893
21
-165.712
0
LINE
8
Black
10
62.7893
20
-165.998
11
62.9321
21
-165.855
0
LINE
8
Black
10
62.9321
20
-165.855
11
63.2179
21
-165.712
0
LINE
8
Black
10
63.2179
20
-165.712
11
63.6464
21
-165.712
0
LINE
8
Black
10
63.6464
20
-165.712
11
63.9321
21
-165.855
0
LINE
8
Black
10
63.9321
20
-165.855
11
64.075
21
-166.141
0
LINE
8
Black
10
64.075
20
-166.141
11
64.075
21
-167.712
0
LINE
8
Black
10
64.075
20
-166.141
11
64.2179
21
-165.855
0
LINE
8
Black
10
64.2179
20
-165.855
11
64.5036
21
-165.712
0
LINE
8
Black
10
64.5036
20
-165.712
11
64.9321
21
-165.712
0
LINE
8
Black
10
64.9321
20
-165.712
11
65.2179
21
-165.855
0
LINE
8
Black
10
65.2179
20
-165.855
11
65.3607
21
-166.141
0
LINE
8
Black
10
65.3607
20
-166.141
11
65.3607
21
-167.712
0
LINE
8
Black
10
66.7893
20
-167.712
11
66.7893
21
-165.712
0
LINE
8
Black
10
66.7893
20
-165.998
11
66.9321
21
-165.855
0
LINE
8
Black
10
66.9321
20
-165.855
11
67.2179
21
-165.712
0
LINE
8
Black
10
67.2179
20
-165.712
11
67.6464
21
-165.712
0
LINE
8
Black
10
67.6464
20
-165.712
11
67.9321
21
-165.855
0
LINE
8
Black
10
67.9321
20
-165.855
11
68.075
21
-166.141
0
LINE
8
Black
10
68.075
20
-166.141
11
68.075
21
-167.712
0
LINE
8
Black
10
68.075
20
-166.141
11
68.2179
21
-165.855
0
LINE
8
Black
10
68.2179
20
-165.855
11
68.5036
21
-165.712
0
LINE
8
Black
10
68.5036
20
-165.712
11
68.9321
21
-165.712
0
LINE
8
Black
10
68.9321
20
-165.712
11
69.2179
21
-165.855
0
LINE
8
Black
10
69.2179
20
-165.855
11
69.3607
21
-166.141
0
LINE
8
Black
10
69.3607
20
-166.141
11
69.3607
21
-167.712
0
LINE
8
Black
10
75.2179
20
-164.569
11
72.6464
21
-168.426
0
LINE
8
Black
10
79.075
20
-164.712
11
79.3607
21
-164.712
0
LINE
8
Black
10
79.3607
20
-164.712
11
79.6464
21
-164.855
0
LINE
8
Black
10
79.6464
20
-164.855
11
79.7893
21
-164.998
0
LINE
8
Black
10
79.7893
20
-164.998
11
79.9321
21
-165.284
0
LINE
8
Black
10
79.9321
20
-165.284
11
80.075
21
-165.855
0
LINE
8
Black
10
80.075
20
-165.855
11
80.075
21
-166.569
0
LINE
8
Black
10
80.075
20
-166.569
11
79.9321
21
-167.141
0
LINE
8
Black
10
79.9321
20
-167.141
11
79.7893
21
-167.426
0
LINE
8
Black
10
79.7893
20
-167.426
11
79.6464
21
-167.569
0
LINE
8
Black
10
79.6464
20
-167.569
11
79.3607
21
-167.712
0
LINE
8
Black
10
79.3607
20
-167.712
11
79.075
21
-167.712
0
LINE
8
Black
10
79.075
20
-167.712
11
78.7893
21
-167.569
0
LINE
8
Black
10
78.7893
20
-167.569
11
78.6464
21
-167.426
0
LINE
8
Black
10
78.6464
20
-167.426
11
78.5036
21
-167.141
0
LINE
8
Black
10
78.5036
20
-167.141
11
78.3607
21
-166.569
0
LINE
8
Black
10
78.3607
20
-166.569
11
78.3607
21
-165.855
0
LINE
8
Black
10
78.3607
20
-165.855
11
78.5036
21
-165.284
0
LINE
8
Black
10
78.5036
20
-165.284
11
78.6464
21
-164.998
0
LINE
8
Black
10
78.6464
20
-164.998
11
78.7893
21
-164.855
0
LINE
8
Black
10
78.7893
20
-164.855
11
79.075
21
-164.712
0
LINE
8
Black
10
81.3607
20
-167.426
11
81.5036
21
-167.569
0
LINE
8
Black
10
81.5036
20
-167.569
11
81.3607
21
-167.712
0
LINE
8
Black
10
81.3607
20
-167.712
11
81.2179
21
-167.569
0
LINE
8
Black
10
81.2179
20
-167.569
11
81.3607
21
-167.426
0
LINE
8
Black
10
81.3607
20
-167.426
11
81.3607
21
-167.712
0
LINE
8
Black
10
83.3607
20
-164.712
11
83.6464
21
-164.712
0
LINE
8
Black
10
83.6464
20
-164.712
11
83.9321
21
-164.855
0
LINE
8
Black
10
83.9321
20
-164.855
11
84.075
21
-164.998
0
LINE
8
Black
10
84.075
20
-164.998
11
84.2179
21
-165.284
0
LINE
8
Black
10
84.2179
20
-165.284
11
84.3607
21
-165.855
0
LINE
8
Black
10
84.3607
20
-165.855
11
84.3607
21
-166.569
0
LINE
8
Black
10
84.3607
20
-166.569
11
84.2179
21
-167.141
0
LINE
8
Black
10
84.2179
20
-167.141
11
84.075
21
-167.426
0
LINE
8
Black
10
84.075
20
-167.426
11
83.9321
21
-167.569
0
LINE
8
Black
10
83.9321
20
-167.569
11
83.6464
21
-167.712
0
LINE
8
Black
10
83.6464
20
-167.712
11
83.3607
21
-167.712
0
LINE
8
Black
10
83.3607
20
-167.712
11
83.075
21
-167.569
0
LINE
8
Black
10
83.075
20
-167.569
11
82.9321
21
-167.426
0
LINE
8
Black
10
82.9321
20
-167.426
11
82.7893
21
-167.141
0
LINE
8
Black
10
82.7893
20
-167.141
11
82.6464
21
-166.569
0
LINE
8
Black
10
82.6464
20
-166.569
11
82.6464
21
-165.855
0
LINE
8
Black
10
82.6464
20
-165.855
11
82.7893
21
-165.284
0
LINE
8
Black
10
82.7893
20
-165.284
11
82.9321
21
-164.998
0
LINE
8
Black
10
82.9321
20
-164.998
11
83.075
21
-164.855
0
LINE
8
Black
10
83.075
20
-164.855
11
83.3607
21
-164.712
0
LINE
8
Black
10
86.9321
20
-165.712
11
86.9321
21
-167.712
0
LINE
8
Black
10
86.2179
20
-164.569
11
85.5036
21
-166.712
0
LINE
8
Black
10
85.5036
20
-166.712
11
87.3607
21
-166.712
0
LINE
8
Black
10
88.2179
20
-164.712
11
90.2179
21
-164.712
0
LINE
8
Black
10
90.2179
20
-164.712
11
88.9321
21
-167.712
0
LINE
8
Black
10
91.2179
20
-164.712
11
91.2179
21
-165.284
0
LINE
8
Black
10
92.3607
20
-164.712
11
92.3607
21
-165.284
0
LINE
8
Black
10
96.7893
20
-168.855
11
96.6464
21
-168.712
0
LINE
8
Black
10
96.6464
20
-168.712
11
96.3607
21
-168.284
0
LINE
8
Black
10
96.3607
20
-168.284
11
96.2179
21
-167.998
0
LINE
8
Black
10
96.2179
20
-167.998
11
96.075
21
-167.569
0
LINE
8
Black
10
96.075
20
-167.569
11
95.9321
21
-166.855
0
LINE
8
Black
10
95.9321
20
-166.855
11
95.9321
21
-166.284
0
LINE
8
Black
10
95.9321
20
-166.284
11
96.075
21
-165.569
0
LINE
8
Black
10
96.075
20
-165.569
11
96.2179
21
-165.141
0
LINE
8
Black
10
96.2179
20
-165.141
11
96.3607
21
-164.855
0
LINE
8
Black
10
96.3607
20
-164.855
11
96.6464
21
-164.426
0
LINE
8
Black
10
96.6464
20
-164.426
11
96.7893
21
-164.284
0
LINE
8
Black
10
99.2179
20
-165.712
11
99.2179
21
-167.712
0
LINE
8
Black
10
98.5036
20
-164.569
11
97.7893
21
-166.712
0
LINE
8
Black
10
97.7893
20
-166.712
11
99.6464
21
-166.712
0
LINE
8
Black
10
103.075
20
-167.712
11
103.075
21
-164.712
0
LINE
8
Black
10
104.361
20
-167.712
11
104.361
21
-166.141
0
LINE
8
Black
10
104.361
20
-166.141
11
104.218
21
-165.855
0
LINE
8
Black
10
104.218
20
-165.855
11
103.932
21
-165.712
0
LINE
8
Black
10
103.932
20
-165.712
11
103.504
21
-165.712
0
LINE
8
Black
10
103.504
20
-165.712
11
103.218
21
-165.855
0
LINE
8
Black
10
103.218
20
-165.855
11
103.075
21
-165.998
0
LINE
8
Black
10
106.218
20
-167.712
11
105.932
21
-167.569
0
LINE
8
Black
10
105.932
20
-167.569
11
105.789
21
-167.426
0
LINE
8
Black
10
105.789
20
-167.426
11
105.646
21
-167.141
0
LINE
8
Black
10
105.646
20
-167.141
11
105.646
21
-166.284
0
LINE
8
Black
10
105.646
20
-166.284
11
105.789
21
-165.998
0
LINE
8
Black
10
105.789
20
-165.998
11
105.932
21
-165.855
0
LINE
8
Black
10
105.932
20
-165.855
11
106.218
21
-165.712
0
LINE
8
Black
10
106.218
20
-165.712
11
106.646
21
-165.712
0
LINE
8
Black
10
106.646
20
-165.712
11
106.932
21
-165.855
0
LINE
8
Black
10
106.932
20
-165.855
11
107.075
21
-165.998
0
LINE
8
Black
10
107.075
20
-165.998
11
107.218
21
-166.284
0
LINE
8
Black
10
107.218
20
-166.284
11
107.218
21
-167.141
0
LINE
8
Black
10
107.218
20
-167.141
11
107.075
21
-167.426
0
LINE
8
Black
10
107.075
20
-167.426
11
106.932
21
-167.569
0
LINE
8
Black
10
106.932
20
-167.569
11
106.646
21
-167.712
0
LINE
8
Black
10
106.646
20
-167.712
11
106.218
21
-167.712
0
LINE
8
Black
10
108.932
20
-167.712
11
108.646
21
-167.569
0
LINE
8
Black
10
108.646
20
-167.569
11
108.504
21
-167.284
0
LINE
8
Black
10
108.504
20
-167.284
11
108.504
21
-164.712
0
LINE
8
Black
10
111.218
20
-167.569
11
110.932
21
-167.712
0
LINE
8
Black
10
110.932
20
-167.712
11
110.361
21
-167.712
0
LINE
8
Black
10
110.361
20
-167.712
11
110.075
21
-167.569
0
LINE
8
Black
10
110.075
20
-167.569
11
109.932
21
-167.284
0
LINE
8
Black
10
109.932
20
-167.284
11
109.932
21
-166.141
0
LINE
8
Black
10
109.932
20
-166.141
11
110.075
21
-165.855
0
LINE
8
Black
10
110.075
20
-165.855
11
110.361
21
-165.712
0
LINE
8
Black
10
110.361
20
-165.712
11
110.932
21
-165.712
0
LINE
8
Black
10
110.932
20
-165.712
11
111.218
21
-165.855
0
LINE
8
Black
10
111.218
20
-165.855
11
111.361
21
-166.141
0
LINE
8
Black
10
111.361
20
-166.141
11
111.361
21
-166.426
0
LINE
8
Black
10
111.361
20
-166.426
11
109.932
21
-166.712
0
LINE
8
Black
10
112.504
20
-167.569
11
112.789
21
-167.712
0
LINE
8
Black
10
112.789
20
-167.712
11
113.361
21
-167.712
0
LINE
8
Black
10
113.361
20
-167.712
11
113.646
21
-167.569
0
LINE
8
Black
10
113.646
20
-167.569
11
113.789
21
-167.284
0
LINE
8
Black
10
113.789
20
-167.284
11
113.789
21
-167.141
0
LINE
8
Black
10
113.789
20
-167.141
11
113.646
21
-166.855
0
LINE
8
Black
10
113.646
20
-166.855
11
113.361
21
-166.712
0
LINE
8
Black
10
113.361
20
-166.712
11
112.932
21
-166.712
0
LINE
8
Black
10
112.932
20
-166.712
11
112.646
21
-166.569
0
LINE
8
Black
10
112.646
20
-166.569
11
112.504
21
-166.284
0
LINE
8
Black
10
112.504
20
-166.284
11
112.504
21
-166.141
0
LINE
8
Black
10
112.504
20
-166.141
11
112.646
21
-165.855
0
LINE
8
Black
10
112.646
20
-165.855
11
112.932
21
-165.712
0
LINE
8
Black
10
112.932
20
-165.712
11
113.361
21
-165.712
0
LINE
8
Black
10
113.361
20
-165.712
11
113.646
21
-165.855
0
LINE
8
Black
10
114.789
20
-168.855
11
114.932
21
-168.712
0
LINE
8
Black
10
114.932
20
-168.712
11
115.218
21
-168.284
0
LINE
8
Black
10
115.218
20
-168.284
11
115.361
21
-167.998
0
LINE
8
Black
10
115.361
20
-167.998
11
115.504
21
-167.569
0
LINE
8
Black
10
115.504
20
-167.569
11
115.646
21
-166.855
0
LINE
8
Black
10
115.646
20
-166.855
11
115.646
21
-166.284
0
LINE
8
Black
10
115.646
20
-166.284
11
115.504
21
-165.569
0
LINE
8
Black
10
115.504
20
-165.569
11
115.361
21
-165.141
0
LINE
8
Black
10
115.361
20
-165.141
11
115.218
21
-164.855
0
LINE
8
Black
10
115.218
20
-164.855
11
114.932
21
-164.426
0
LINE
8
Black
10
114.932
20
-164.426
11
114.789
21
-164.284
  0
ENDSEC
  0
EOF
