M48
;DRILL file {KiCad (2016-08-15 BZR 7057)-product} date Wed Aug 31 20:24:51 2016
;FORMAT={-:-/ absolute / metric / decimal}
FMAT,2
METRIC,TZ
T1C0.400
T2C0.698
T3C0.762
T4C0.800
T5C0.800
T6C0.900
T7C1.000
T8C1.016
T9C1.200
%
G90
G05
M71
T1
X61.5Y-88.007
X66.185Y-89.896
X66.678Y-77.724
X67.Y-73.
X67.248Y-91.28
X69.Y-72.75
X69.Y-84.5
X70.25Y-58.75
X71.819Y-95.389
X72.Y-84.5
X73.5Y-71.
X74.Y-93.5
X76.186Y-69.521
X78.099Y-68.587
X78.783Y-118.237
X79.Y-72.5
X80.Y-89.5
X80.25Y-80.25
X80.25Y-81.5
X80.25Y-82.75
X81.061Y-66.262
X85.Y-89.
X85.101Y-109.5
X86.Y-72.5
X88.Y-116.5
X88.Y-118.
X88.415Y-74.805
X88.5Y-61.5
X88.5Y-72.5
X93.Y-81.5
X93.5Y-68.5
X94.612Y-76.647
X98.65Y-102.85
X99.Y-61.5
X99.66Y-79.6
X101.Y-79.5
X101.45Y-68.5
X107.215Y-96.
X107.5Y-93.
X109.Y-82.
X109.Y-89.75
X110.75Y-61.
X115.Y-110.
X118.5Y-79.5
T2
X78.203Y-121.051
X82.Y-121.054
T3
X108.23Y-66.
X109.5Y-66.
X110.77Y-66.
X112.04Y-66.
T4
X59.Y-111.
X76.Y-118.5
X103.761Y-103.435
X108.004Y-102.281
X109.75Y-112.
X112.577Y-111.962
T5
X71.559Y-87.5
X76.441Y-87.5
T6
X118.5Y-83.5
X118.5Y-86.
X118.5Y-88.5
X118.5Y-91.
T7
X78.5Y-109.5
X81.Y-109.5
X88.38Y-56.5
X90.88Y-56.5
X98.88Y-56.5
X101.38Y-56.5
T8
X55.Y-74.92
X55.Y-77.46
X55.Y-80.
X57.54Y-74.92
X57.54Y-77.46
X57.54Y-80.
X63.96Y-109.7
X66.5Y-109.7
X69.04Y-109.7
X70.34Y-56.
X72.88Y-56.
X75.42Y-56.
X77.96Y-56.
X118.Y-102.42
X118.Y-104.96
X118.Y-107.5
X118.Y-110.04
X120.54Y-102.42
X120.54Y-104.96
X120.54Y-107.5
X120.54Y-110.04
T9
X92.5Y-120.2
X97.58Y-120.2
X102.66Y-120.2
X107.74Y-120.2
T4
X65.15Y-114.8G85X67.85Y-114.8
G05
X65.4Y-120.8G85X67.6Y-120.8
G05
X71.3Y-118.4G85X71.3Y-116.2
G05
T0
M30
