M48
;DRILL file {KiCad (2016-08-15 BZR 7057)-product} date Sun Dec 18 20:18:58 2016
;FORMAT={-:-/ absolute / metric / decimal}
FMAT,2
METRIC,TZ
T1C0.400
T2C0.800
T3C0.800
T4C0.900
T5C1.000
T6C1.001
T7C1.016
T8C1.400
T9C1.501
T10C3.100
%
G90
G05
M71
T1
X9.779Y21.082
X11.811Y22.86
X13.843Y34.29
X14.097Y44.45
X14.163Y24.591
X14.478Y65.405
X15.748Y60.325
X15.829Y27.334
X16.154Y33.761
X17.025Y43.706
X18.815Y18.847
X20.175Y34.003
X21.461Y36.533
X22.212Y26.771
X22.413Y37.334
X24.552Y37.161
X26.163Y47.173
X26.523Y34.427
X27.054Y48.153
X27.601Y27.921
X27.938Y41.778
X28.763Y51.007
X28.829Y54.864
X29.448Y49.117
X29.877Y30.825
X30.749Y39.41
X31.115Y52.578
X31.527Y38.632
X32.782Y36.367
X32.893Y24.765
X33.037Y35.171
X34.106Y37.68
X34.141Y39.957
X34.163Y63.5
X34.779Y34.659
X34.798Y49.53
X35.053Y59.186
X35.082Y37.1
X36.226Y30.796
X36.893Y19.152
X37.162Y28.201
X37.255Y33.552
X37.852Y40.861
X37.973Y62.23
X38.008Y46.556
X38.053Y42.854
X38.481Y34.567
X38.608Y19.215
X39.243Y22.225
X39.413Y35.904
X40.369Y39.523
X40.463Y28.817
X40.504Y45.352
X40.767Y56.896
X41.402Y19.215
X41.541Y39.611
X42.589Y26.
X43.053Y56.388
X44.674Y19.64
X46.551Y39.099
X48.666Y51.549
X50.419Y23.368
X50.718Y46.206
X51.195Y57.488
X51.689Y61.468
X51.876Y19.964
X52.057Y48.844
X52.509Y56.469
X52.653Y45.136
X53.541Y55.326
X54.737Y51.562
X54.877Y39.091
X55.118Y50.165
X58.928Y50.8
T3
X30.607Y26.67
X35.489Y26.67
T4
X10.033Y55.88
X10.033Y53.38
X10.033Y50.88
X10.033Y48.38
X25.263Y16.54
X27.763Y16.54
X30.263Y16.54
X32.763Y16.54
X35.263Y16.54
X37.763Y16.54
X40.263Y16.54
X42.763Y16.54
T5
X10.033Y27.94
X10.033Y25.44
X57.023Y55.84
X57.023Y53.34
X57.023Y46.99
X57.023Y44.49
T6
X17.653Y28.948
X17.653Y24.448
X24.155Y28.948
X24.155Y24.448
T7
X10.033Y41.91
X10.033Y39.37
X10.033Y36.83
X10.033Y34.29
X15.113Y40.64
X15.113Y38.1
X15.113Y35.56
X17.653Y40.64
X17.653Y38.1
X17.653Y35.56
X44.831Y34.036
X44.831Y31.496
X44.831Y28.956
X44.831Y26.416
X47.371Y34.036
X47.371Y31.496
X47.371Y28.956
X47.371Y26.416
X57.023Y35.56
X57.023Y33.02
X57.023Y30.48
X57.023Y27.94
X57.023Y25.4
X59.563Y35.56
X59.563Y33.02
X59.563Y30.48
X59.563Y27.94
X59.563Y25.4
T8
X21.463Y66.04
X26.543Y66.04
X31.623Y66.04
X36.703Y66.04
T9
X26.543Y59.436
X41.783Y59.436
T10
X11.303Y63.5
X11.303Y17.78
X57.023Y63.5
X57.023Y17.78
T2
X43.333Y64.52G85X43.333Y62.32
G05
X49.233Y66.92G85X47.033Y66.92
G05
X49.483Y60.92G85X46.783Y60.92
G05
T0
M30
