<?xml version="1.0" standalone="no"?>
<!DOCTYPE svg PUBLIC "-//W3C//DTD SVG 1.1//EN"
"http://www.w3.org/Graphics/SVG/1.1/DTD/svg11.dtd">
<svg width="4498.55" height="4498.55" viewBox="0 0 4498.55 4498.55" version="1.1"
xmlns="http://www.w3.org/2000/svg"
xmlns:xlink="http://www.w3.org/1999/xlink">
<circle cx="329" cy="3788" r="15" style=""/>
<circle cx="489" cy="3648" r="15" style=""/>
<circle cx="674" cy="3512" r="15" style=""/>
<circle cx="805" cy="3296" r="15" style=""/>
<circle cx="1308" cy="3340" r="15" style=""/>
<circle cx="1732" cy="3250" r="15" style=""/>
<circle cx="1911" cy="3021" r="15" style=""/>
<circle cx="2248" cy="3008" r="15" style=""/>
<circle cx="2388" cy="3028" r="15" style=""/>
<circle cx="2492" cy="2807" r="15" style=""/>
<circle cx="2589" cy="2727" r="15" style=""/>
<circle cx="2662" cy="2621" r="15" style=""/>
<circle cx="2737" cy="2336" r="15" style=""/>
<circle cx="2829" cy="2330" r="15" style=""/>
<circle cx="2539" cy="2231" r="15" style=""/>
<circle cx="2555" cy="2074" r="15" style=""/>
<circle cx="2748" cy="1878" r="15" style=""/>
<circle cx="2551" cy="1783" r="15" style=""/>
<circle cx="2298" cy="1549" r="15" style=""/>
<circle cx="2009" cy="1309" r="15" style=""/>
<circle cx="1829" cy="1129" r="15" style=""/>
<circle cx="1823" cy="1432" r="15" style=""/>
<circle cx="1877" cy="1581" r="15" style=""/>
<circle cx="1689" cy="1657" r="15" style=""/>
<circle cx="1619" cy="1734" r="15" style=""/>
<circle cx="1758" cy="2159" r="15" style=""/>
<circle cx="1980" cy="2345" r="15" style=""/>
<circle cx="2041" cy="2407" r="15" style=""/>
<circle cx="2247" cy="2302" r="15" style=""/>
<circle cx="2244" cy="2482" r="15" style=""/>
<circle cx="2321" cy="2527" r="15" style=""/>
<circle cx="2297" cy="2719" r="15" style=""/>
<circle cx="2160" cy="2679" r="15" style=""/>
<circle cx="2140" cy="2585" r="15" style=""/>
<circle cx="1647" cy="2738" r="15" style=""/>
<circle cx="1492" cy="2522" r="15" style=""/>
<circle cx="1323" cy="2509" r="15" style=""/>
<circle cx="1248" cy="2572" r="15" style=""/>
<circle cx="1147" cy="2771" r="15" style=""/>
<circle cx="831" cy="2790" r="15" style=""/>
<circle cx="649" cy="2748" r="15" style=""/>
<circle cx="899" cy="2007" r="15" style=""/>
<circle cx="669" cy="1949" r="15" style=""/>
<circle cx="799" cy="699" r="15" style=""/>
<circle cx="699" cy="299" r="15" style=""/>
<circle cx="2248" cy="449" r="15" style=""/>
<circle cx="2548" cy="549" r="15" style=""/>
<circle cx="2319" cy="788" r="15" style=""/>
<circle cx="2768" cy="969" r="15" style=""/>
<circle cx="2948" cy="1009" r="15" style=""/>
<circle cx="3390" cy="1390" r="15" style=""/>
<circle cx="3657" cy="1603" r="15" style=""/>
<circle cx="3898" cy="1499" r="15" style=""/>
<circle cx="3868" cy="1389" r="15" style=""/>
<circle cx="4198" cy="1449" r="15" style=""/>
<circle cx="3774" cy="1092" r="15" style=""/>
<circle cx="3628" cy="609" r="15" style=""/>
<circle cx="3552" cy="1810" r="15" style=""/>
<circle cx="3704" cy="1895" r="15" style=""/>
<circle cx="3879" cy="2370" r="15" style=""/>
<circle cx="3224" cy="2370" r="15" style=""/>
<circle cx="2745" cy="3179" r="15" style=""/>
<circle cx="2912" cy="3401" r="15" style=""/>
<circle cx="2648" cy="3698" r="15" style=""/>
<circle cx="2598" cy="3935" r="15" style=""/>
<circle cx="2463" cy="3940" r="15" style=""/>
<circle cx="2818" cy="3935" r="15" style=""/>
<circle cx="3076" cy="3902" r="15" style=""/>
<circle cx="3528" cy="3608" r="15" style=""/>
<circle cx="3643" cy="3876" r="15" style=""/>
<circle cx="2485" cy="3228" r="15" style=""/>
<circle cx="2149" cy="3498" r="15" style=""/>
<circle cx="1040" cy="3964" r="15" style=""/>
<circle cx="2970" cy="368" r="31" style=""/>
<circle cx="3435" cy="179" r="31" style=""/>
<circle cx="3455" cy="652" r="31" style=""/>
<circle cx="1969" cy="3348" r="31" style=""/>
<circle cx="2353" cy="3348" r="31" style=""/>
<circle cx="1548" cy="4146" r="34" style=""/>
<circle cx="1745" cy="4146" r="34" style=""/>
<circle cx="1941" cy="4146" r="34" style=""/>
<circle cx="2138" cy="4146" r="34" style=""/>
<circle cx="2335" cy="4146" r="34" style=""/>
<circle cx="2532" cy="4146" r="34" style=""/>
<circle cx="2729" cy="4146" r="34" style=""/>
<circle cx="2926" cy="4146" r="34" style=""/>
<circle cx="349" cy="1639" r="34" style=""/>
<circle cx="349" cy="1442" r="34" style=""/>
<circle cx="349" cy="1245" r="34" style=""/>
<circle cx="349" cy="1049" r="34" style=""/>
<circle cx="349" cy="3445" r="38" style=""/>
<circle cx="349" cy="3248" r="38" style=""/>
<circle cx="4048" cy="1945" r="38" style=""/>
<circle cx="4048" cy="1749" r="38" style=""/>
<circle cx="4048" cy="1249" r="38" style=""/>
<circle cx="4048" cy="1052" r="38" style=""/>
<circle cx="949" cy="3523" r="38" style=""/>
<circle cx="949" cy="3169" r="38" style=""/>
<circle cx="1461" cy="3169" r="38" style=""/>
<circle cx="1461" cy="3523" r="38" style=""/>
<circle cx="349" cy="2748" r="39" style=""/>
<circle cx="349" cy="2548" r="39" style=""/>
<circle cx="349" cy="2348" r="39" style=""/>
<circle cx="349" cy="2149" r="39" style=""/>
<circle cx="749" cy="2248" r="39" style=""/>
<circle cx="949" cy="2248" r="39" style=""/>
<circle cx="949" cy="2448" r="39" style=""/>
<circle cx="949" cy="2648" r="39" style=""/>
<circle cx="749" cy="2648" r="39" style=""/>
<circle cx="749" cy="2448" r="39" style=""/>
<circle cx="3088" cy="2768" r="39" style=""/>
<circle cx="3288" cy="2768" r="39" style=""/>
<circle cx="3288" cy="2968" r="39" style=""/>
<circle cx="3288" cy="3168" r="39" style=""/>
<circle cx="3288" cy="3368" r="39" style=""/>
<circle cx="3088" cy="3368" r="39" style=""/>
<circle cx="3088" cy="3168" r="39" style=""/>
<circle cx="3088" cy="2968" r="39" style=""/>
<circle cx="4048" cy="3048" r="39" style=""/>
<circle cx="4248" cy="3048" r="39" style=""/>
<circle cx="4248" cy="3248" r="39" style=""/>
<circle cx="4248" cy="3448" r="39" style=""/>
<circle cx="4048" cy="3448" r="39" style=""/>
<circle cx="4048" cy="3248" r="39" style=""/>
<circle cx="4048" cy="2848" r="39" style=""/>
<circle cx="4248" cy="2848" r="39" style=""/>
<circle cx="4248" cy="2648" r="39" style=""/>
<circle cx="4048" cy="2648" r="39" style=""/>
<circle cx="1249" cy="249" r="54" style=""/>
<circle cx="1649" cy="249" r="54" style=""/>
<circle cx="2049" cy="249" r="54" style=""/>
<circle cx="2448" cy="249" r="54" style=""/>
<circle cx="1649" cy="769" r="58" style=""/>
<circle cx="2848" cy="769" r="58" style=""/>
<circle cx="449" cy="4048" r="120" style=""/>
<circle cx="4048" cy="4048" r="120" style=""/>
<circle cx="4048" cy="449" r="120" style=""/>
<circle cx="449" cy="449" r="120" style=""/>
</svg>
