<?xml version="1.0" standalone="no"?>
<!DOCTYPE svg PUBLIC "-//W3C//DTD SVG 1.1//EN"
"http://www.w3.org/Graphics/SVG/1.1/DTD/svg11.dtd">
<svg width="8576.27" height="5566.27" viewBox="0 0 8576.27 5566.27" version="1.1"
xmlns="http://www.w3.org/2000/svg"
xmlns:xlink="http://www.w3.org/1999/xlink">
<circle cx="364" cy="4821" r="15" style=""/>
<circle cx="524" cy="4681" r="15" style=""/>
<circle cx="709" cy="4545" r="15" style=""/>
<circle cx="841" cy="4329" r="15" style=""/>
<circle cx="1343" cy="4373" r="15" style=""/>
<circle cx="1768" cy="4282" r="15" style=""/>
<circle cx="1947" cy="4054" r="15" style=""/>
<circle cx="1683" cy="3770" r="15" style=""/>
<circle cx="1527" cy="3555" r="15" style=""/>
<circle cx="1359" cy="3541" r="15" style=""/>
<circle cx="1284" cy="3604" r="15" style=""/>
<circle cx="1183" cy="3803" r="15" style=""/>
<circle cx="866" cy="3823" r="15" style=""/>
<circle cx="684" cy="3781" r="15" style=""/>
<circle cx="935" cy="3039" r="15" style=""/>
<circle cx="704" cy="2981" r="15" style=""/>
<circle cx="1654" cy="2767" r="15" style=""/>
<circle cx="1724" cy="2689" r="15" style=""/>
<circle cx="1913" cy="2613" r="15" style=""/>
<circle cx="1859" cy="2465" r="15" style=""/>
<circle cx="2044" cy="2341" r="15" style=""/>
<circle cx="1864" cy="2161" r="15" style=""/>
<circle cx="2354" cy="1821" r="15" style=""/>
<circle cx="2584" cy="1581" r="15" style=""/>
<circle cx="2284" cy="1481" r="15" style=""/>
<circle cx="2804" cy="2001" r="15" style=""/>
<circle cx="2984" cy="2041" r="15" style=""/>
<circle cx="3426" cy="2422" r="15" style=""/>
<circle cx="3693" cy="2635" r="15" style=""/>
<circle cx="3934" cy="2531" r="15" style=""/>
<circle cx="3904" cy="2421" r="15" style=""/>
<circle cx="4234" cy="2481" r="15" style=""/>
<circle cx="3810" cy="2125" r="15" style=""/>
<circle cx="3729" cy="2035" r="15" style=""/>
<circle cx="3625" cy="1954" r="15" style=""/>
<circle cx="3664" cy="1641" r="15" style=""/>
<circle cx="3588" cy="2843" r="15" style=""/>
<circle cx="3740" cy="2927" r="15" style=""/>
<circle cx="3915" cy="3403" r="15" style=""/>
<circle cx="3260" cy="3402" r="15" style=""/>
<circle cx="2865" cy="3362" r="15" style=""/>
<circle cx="2773" cy="3369" r="15" style=""/>
<circle cx="2575" cy="3264" r="15" style=""/>
<circle cx="2590" cy="3107" r="15" style=""/>
<circle cx="2783" cy="2910" r="15" style=""/>
<circle cx="2587" cy="2815" r="15" style=""/>
<circle cx="2334" cy="2581" r="15" style=""/>
<circle cx="2282" cy="3335" r="15" style=""/>
<circle cx="2280" cy="3514" r="15" style=""/>
<circle cx="2357" cy="3560" r="15" style=""/>
<circle cx="2333" cy="3752" r="15" style=""/>
<circle cx="2196" cy="3712" r="15" style=""/>
<circle cx="2175" cy="3617" r="15" style=""/>
<circle cx="2077" cy="3439" r="15" style=""/>
<circle cx="2015" cy="3378" r="15" style=""/>
<circle cx="1794" cy="3191" r="15" style=""/>
<circle cx="2528" cy="3839" r="15" style=""/>
<circle cx="2624" cy="3759" r="15" style=""/>
<circle cx="2698" cy="3654" r="15" style=""/>
<circle cx="2447" cy="4056" r="15" style=""/>
<circle cx="2520" cy="4260" r="15" style=""/>
<circle cx="2780" cy="4212" r="15" style=""/>
<circle cx="2948" cy="4434" r="15" style=""/>
<circle cx="2684" cy="4731" r="15" style=""/>
<circle cx="2634" cy="4968" r="15" style=""/>
<circle cx="2499" cy="4973" r="15" style=""/>
<circle cx="2854" cy="4968" r="15" style=""/>
<circle cx="3112" cy="4934" r="15" style=""/>
<circle cx="3564" cy="4641" r="15" style=""/>
<circle cx="3679" cy="4909" r="15" style=""/>
<circle cx="2184" cy="4531" r="15" style=""/>
<circle cx="1076" cy="4997" r="15" style=""/>
<circle cx="834" cy="1731" r="15" style=""/>
<circle cx="734" cy="1331" r="15" style=""/>
<circle cx="3006" cy="1401" r="31" style=""/>
<circle cx="3471" cy="1212" r="31" style=""/>
<circle cx="3490" cy="1684" r="31" style=""/>
<circle cx="2004" cy="4381" r="31" style=""/>
<circle cx="2389" cy="4381" r="31" style=""/>
<circle cx="1583" cy="5178" r="34" style=""/>
<circle cx="1780" cy="5178" r="34" style=""/>
<circle cx="1977" cy="5178" r="34" style=""/>
<circle cx="2174" cy="5178" r="34" style=""/>
<circle cx="2371" cy="5178" r="34" style=""/>
<circle cx="2568" cy="5178" r="34" style=""/>
<circle cx="2764" cy="5178" r="34" style=""/>
<circle cx="2961" cy="5178" r="34" style=""/>
<circle cx="384" cy="2671" r="34" style=""/>
<circle cx="384" cy="2475" r="34" style=""/>
<circle cx="384" cy="2278" r="34" style=""/>
<circle cx="384" cy="2081" r="34" style=""/>
<circle cx="384" cy="4478" r="38" style=""/>
<circle cx="384" cy="4281" r="38" style=""/>
<circle cx="4084" cy="2978" r="38" style=""/>
<circle cx="4084" cy="2781" r="38" style=""/>
<circle cx="4084" cy="2281" r="38" style=""/>
<circle cx="4084" cy="2084" r="38" style=""/>
<circle cx="984" cy="4556" r="38" style=""/>
<circle cx="984" cy="4201" r="38" style=""/>
<circle cx="1496" cy="4201" r="38" style=""/>
<circle cx="1496" cy="4556" r="38" style=""/>
<circle cx="384" cy="3781" r="39" style=""/>
<circle cx="384" cy="3581" r="39" style=""/>
<circle cx="384" cy="3381" r="39" style=""/>
<circle cx="384" cy="3181" r="39" style=""/>
<circle cx="784" cy="3281" r="39" style=""/>
<circle cx="984" cy="3281" r="39" style=""/>
<circle cx="984" cy="3481" r="39" style=""/>
<circle cx="984" cy="3681" r="39" style=""/>
<circle cx="784" cy="3681" r="39" style=""/>
<circle cx="784" cy="3481" r="39" style=""/>
<circle cx="3124" cy="3801" r="39" style=""/>
<circle cx="3324" cy="3801" r="39" style=""/>
<circle cx="3324" cy="4001" r="39" style=""/>
<circle cx="3324" cy="4201" r="39" style=""/>
<circle cx="3324" cy="4401" r="39" style=""/>
<circle cx="3124" cy="4401" r="39" style=""/>
<circle cx="3124" cy="4201" r="39" style=""/>
<circle cx="3124" cy="4001" r="39" style=""/>
<circle cx="4084" cy="4081" r="39" style=""/>
<circle cx="4284" cy="4081" r="39" style=""/>
<circle cx="4284" cy="4281" r="39" style=""/>
<circle cx="4284" cy="4481" r="39" style=""/>
<circle cx="4084" cy="4481" r="39" style=""/>
<circle cx="4084" cy="4281" r="39" style=""/>
<circle cx="4084" cy="3881" r="39" style=""/>
<circle cx="4284" cy="3881" r="39" style=""/>
<circle cx="4284" cy="3681" r="39" style=""/>
<circle cx="4084" cy="3681" r="39" style=""/>
<circle cx="1284" cy="1281" r="54" style=""/>
<circle cx="1684" cy="1281" r="54" style=""/>
<circle cx="2084" cy="1281" r="54" style=""/>
<circle cx="2484" cy="1281" r="54" style=""/>
<circle cx="1684" cy="1801" r="58" style=""/>
<circle cx="2884" cy="1801" r="58" style=""/>
<circle cx="484" cy="5081" r="120" style=""/>
<circle cx="4084" cy="5081" r="120" style=""/>
<circle cx="4084" cy="1481" r="120" style=""/>
<circle cx="484" cy="1481" r="120" style=""/>
</svg>
