M48
INCH,TZ
T10C0.016
T11C0.024
T12C0.027
T13C0.030
T14C0.031
T15C0.031
T16C0.035
T17C0.039
T18C0.040
T19C0.055
T20C0.126
%
T10
X023228Y-43701
X024213Y-34648
X026057Y-35392
X026251Y-30600
X026378Y-28740
X026476Y-35937
X027165Y-28642
X027165Y-33268
X027657Y-23130
X028275Y-37555
X028346Y-33268
X028937Y-27953
X029134Y-36811
X029921Y-46654
X029994Y-27370
X030748Y-27003
X031102Y-28543
X031496Y-35236
X031594Y-31594
X031594Y-32087
X031594Y-32579
X031914Y-26087
X033465Y-35039
X033858Y-28543
X034111Y-46231
X034111Y-47013
X034809Y-29451
X034843Y-24213
X034843Y-28543
X036614Y-32087
X036811Y-26969
X037249Y-30176
X038799Y-27047
X038839Y-40492
X038976Y-24213
X039236Y-31339
X039764Y-31299
X039941Y-26969
X040768Y-29016
X040851Y-40722
X042087Y-34891
X042211Y-37795
X042323Y-32736
X042323Y-36614
X042521Y-40268
X042913Y-32283
X042913Y-35335
X042957Y-33801
X043602Y-24016
X044322Y-44080
X045276Y-43307
X046654Y-31299
T11
X031017Y-46550
X033504Y-43110
X043231Y-44015
T12
X030789Y-47658
X032283Y-47659
T13
X042610Y-25984
X043110Y-25984
X043610Y-25984
X044110Y-25984
T14
X025650Y-45197G85X026713Y-45197
X025748Y-47559G85X026614Y-47559
X028071Y-46614G85X028071Y-45748
T15
X028173Y-34449
X030095Y-34449
T16
X046654Y-32874
X046654Y-33858
X046654Y-34843
X046654Y-35827
T17
X030906Y-43110
X031890Y-43110
X034795Y-22244
X035780Y-22244
X038929Y-22244
X039913Y-22244
T18
X021654Y-29496
X021654Y-30496
X021654Y-31496
X022654Y-29496
X022654Y-30496
X022654Y-31496
X025181Y-43189
X026181Y-43189
X027181Y-43189
X027693Y-22047
X028693Y-22047
X029693Y-22047
X030693Y-22047
X046457Y-40323
X046457Y-41323
X046457Y-42323
X046457Y-43323
X047457Y-40323
X047457Y-41323
X047457Y-42323
X047457Y-43323
T19
X036287Y-46555
X038287Y-46555
X040287Y-46555
X042287Y-46555
T20
X022047Y-22047
X022047Y-46850
X046850Y-22047
X046850Y-46850
M30

